Nepomuk-Regular.ufo
<glyph name="exclam" format="2">
  <advance width="332"/>
  <unicode hex="0021"/>
  <outline>
    <contour>
      <point x="166" y="-7" type="curve" smooth="yes"/>
      <point x="200" y="-7"/>
      <point x="228" y="21"/>
      <point x="228" y="55" type="curve" smooth="yes"/>
      <point x="228" y="89"/>
      <point x="200" y="117"/>
      <point x="166" y="117" type="curve" smooth="yes"/>
      <point x="132" y="117"/>
      <point x="104" y="89"/>
      <point x="104" y="55" type="curve" smooth="yes"/>
      <point x="104" y="21"/>
      <point x="132" y="-7"/>
    </contour>
    <contour>
      <point x="148" y="216" type="curve"/>
      <point x="184" y="216" type="line"/>
      <point x="184" y="378"/>
      <point x="206" y="479"/>
      <point x="227" y="580" type="curve" smooth="yes"/>
      <point x="230" y="594"/>
      <point x="232" y="607"/>
      <point x="232" y="620" type="curve" smooth="yes"/>
      <point x="232" y="665"/>
      <point x="208" y="692"/>
      <point x="166" y="692" type="curve" smooth="yes"/>
      <point x="124" y="692"/>
      <point x="100" y="665"/>
      <point x="100" y="620" type="curve" smooth="yes"/>
      <point x="100" y="607"/>
      <point x="102" y="594"/>
      <point x="105" y="580" type="curve" smooth="yes"/>
      <point x="126" y="479"/>
      <point x="148" y="378"/>
    </contour>
  </outline>
</glyph>
<glyph name="percent" format="2">
  <advance width="796"/>
  <unicode hex="0025"/>
  <outline>
    <contour>
      <point x="593" y="-12" type="curve" smooth="yes"/>
      <point x="674" y="-12"/>
      <point x="736" y="71"/>
      <point x="736" y="166" type="curve" smooth="yes"/>
      <point x="736" y="261"/>
      <point x="674" y="343"/>
      <point x="593" y="343" type="curve" smooth="yes"/>
      <point x="512" y="343"/>
      <point x="450" y="261"/>
      <point x="450" y="166" type="curve" smooth="yes"/>
      <point x="450" y="71"/>
      <point x="512" y="-12"/>
    </contour>
    <contour>
      <point x="593" y="14" type="curve" smooth="yes"/>
      <point x="559" y="14"/>
      <point x="537" y="54"/>
      <point x="537" y="166" type="curve" smooth="yes"/>
      <point x="537" y="278"/>
      <point x="559" y="317"/>
      <point x="593" y="317" type="curve" smooth="yes"/>
      <point x="627" y="317"/>
      <point x="649" y="278"/>
      <point x="649" y="166" type="curve" smooth="yes"/>
      <point x="649" y="54"/>
      <point x="627" y="14"/>
    </contour>
    <contour>
      <point x="203" y="338" type="curve" smooth="yes"/>
      <point x="284" y="338"/>
      <point x="346" y="421"/>
      <point x="346" y="516" type="curve" smooth="yes"/>
      <point x="346" y="611"/>
      <point x="284" y="693"/>
      <point x="203" y="693" type="curve" smooth="yes"/>
      <point x="122" y="693"/>
      <point x="60" y="611"/>
      <point x="60" y="516" type="curve" smooth="yes"/>
      <point x="60" y="421"/>
      <point x="122" y="338"/>
    </contour>
    <contour>
      <point x="203" y="364" type="curve" smooth="yes"/>
      <point x="169" y="364"/>
      <point x="147" y="404"/>
      <point x="147" y="516" type="curve" smooth="yes"/>
      <point x="147" y="628"/>
      <point x="169" y="667"/>
      <point x="203" y="667" type="curve" smooth="yes"/>
      <point x="237" y="667"/>
      <point x="259" y="628"/>
      <point x="259" y="516" type="curve" smooth="yes"/>
      <point x="259" y="404"/>
      <point x="237" y="364"/>
    </contour>
    <contour>
      <point x="137" y="0" type="line"/>
      <point x="190" y="0" type="line"/>
      <point x="659" y="680" type="line"/>
      <point x="606" y="680" type="line"/>
    </contour>
  </outline>
</glyph>
<glyph name="parenright" format="2">
  <advance width="337"/>
  <unicode hex="0029"/>
  <outline>
    <contour>
      <point x="23" y="-230" type="line"/>
      <point x="129" y="-147"/>
      <point x="277" y="25"/>
      <point x="277" y="265" type="curve" smooth="yes"/>
      <point x="277" y="505"/>
      <point x="129" y="677"/>
      <point x="23" y="760" type="curve"/>
      <point x="0" y="736" type="line"/>
      <point x="97" y="643"/>
      <point x="181" y="505"/>
      <point x="181" y="265" type="curve" smooth="yes"/>
      <point x="181" y="25"/>
      <point x="97" y="-113"/>
      <point x="0" y="-206" type="curve"/>
    </contour>
  </outline>
</glyph>
<glyph name="asterisk" format="2">
  <advance width="544"/>
  <unicode hex="002A"/>
  <outline>
    <contour>
      <point x="287" y="454" type="line" smooth="yes"/>
      <point x="287" y="440"/>
      <point x="282" y="407"/>
      <point x="270" y="377" type="curve"/>
      <point x="260" y="349"/>
      <point x="255" y="329"/>
      <point x="255" y="316" type="curve" smooth="yes"/>
      <point x="255" y="287"/>
      <point x="273" y="266"/>
      <point x="295" y="266" type="curve" smooth="yes"/>
      <point x="316" y="266"/>
      <point x="332" y="290"/>
      <point x="332" y="318" type="curve" smooth="yes"/>
      <point x="332" y="330"/>
      <point x="328" y="348"/>
      <point x="318" y="372" type="curve" smooth="yes"/>
      <point x="305" y="404"/>
      <point x="297" y="441"/>
      <point x="297" y="462" type="curve"/>
      <point x="302" y="464" type="line"/>
      <point x="318" y="456"/>
      <point x="346" y="432"/>
      <point x="367" y="407" type="curve"/>
      <point x="394" y="372"/>
      <point x="420" y="354"/>
      <point x="443" y="354" type="curve" smooth="yes"/>
      <point x="463" y="354"/>
      <point x="478" y="368"/>
      <point x="478" y="388" type="curve" smooth="yes"/>
      <point x="478" y="397"/>
      <point x="473" y="409"/>
      <point x="464" y="420" type="curve" smooth="yes"/>
      <point x="454" y="431"/>
      <point x="430" y="440"/>
      <point x="394" y="447" type="curve" smooth="yes"/>
      <point x="358" y="455"/>
      <point x="323" y="465"/>
      <point x="307" y="473" type="curve"/>
      <point x="307" y="479" type="line"/>
      <point x="323" y="490"/>
      <point x="355" y="502"/>
      <point x="387" y="507" type="curve" smooth="yes"/>
      <point x="447" y="516"/>
      <point x="478" y="535"/>
      <point x="478" y="562" type="curve" smooth="yes"/>
      <point x="478" y="582"/>
      <point x="464" y="598"/>
      <point x="442" y="598" type="curve" smooth="yes"/>
      <point x="419" y="598"/>
      <point x="393" y="580"/>
      <point x="364" y="544" type="curve" smooth="yes"/>
      <point x="343" y="518"/>
      <point x="316" y="497"/>
      <point x="301" y="489" type="curve"/>
      <point x="297" y="490" type="line"/>
      <point x="297" y="511"/>
      <point x="305" y="546"/>
      <point x="317" y="578" type="curve"/>
      <point x="326" y="603"/>
      <point x="331" y="622"/>
      <point x="331" y="634" type="curve" smooth="yes"/>
      <point x="331" y="662"/>
      <point x="317" y="684"/>
      <point x="293" y="684" type="curve" smooth="yes"/>
      <point x="267" y="684"/>
      <point x="254" y="668"/>
      <point x="254" y="635" type="curve" smooth="yes"/>
      <point x="254" y="620"/>
      <point x="259" y="601"/>
      <point x="268" y="580" type="curve"/>
      <point x="280" y="550"/>
      <point x="287" y="514"/>
      <point x="287" y="490" type="curve"/>
      <point x="282" y="487" type="line"/>
      <point x="266" y="496"/>
      <point x="245" y="514"/>
      <point x="229" y="534" type="curve" smooth="yes"/>
      <point x="196" y="575"/>
      <point x="168" y="597"/>
      <point x="144" y="597" type="curve" smooth="yes"/>
      <point x="125" y="597"/>
      <point x="108" y="584"/>
      <point x="108" y="564" type="curve" smooth="yes"/>
      <point x="108" y="535"/>
      <point x="131" y="515"/>
      <point x="193" y="506" type="curve"/>
      <point x="229" y="499"/>
      <point x="261" y="488"/>
      <point x="276" y="479" type="curve"/>
      <point x="276" y="473" type="line"/>
      <point x="261" y="465"/>
      <point x="232" y="455"/>
      <point x="201" y="447" type="curve"/>
      <point x="139" y="436"/>
      <point x="109" y="417"/>
      <point x="109" y="389" type="curve" smooth="yes"/>
      <point x="109" y="370"/>
      <point x="124" y="353"/>
      <point x="143" y="353" type="curve" smooth="yes"/>
      <point x="167" y="353"/>
      <point x="193" y="371"/>
      <point x="220" y="406" type="curve" smooth="yes"/>
      <point x="242" y="434"/>
      <point x="266" y="457"/>
      <point x="282" y="464" type="curve"/>
      <point x="287" y="462" type="line"/>
    </contour>
  </outline>
</glyph>
<glyph name="plus" format="2">
  <advance width="576"/>
  <unicode hex="002B"/>
  <outline>
    <contour>
      <point x="63" y="250" type="line"/>
      <point x="265" y="250" type="line"/>
      <point x="265" y="48" type="line"/>
      <point x="311" y="48" type="line"/>
      <point x="311" y="250" type="line"/>
      <point x="513" y="250" type="line"/>
      <point x="513" y="296" type="line"/>
      <point x="311" y="296" type="line"/>
      <point x="311" y="498" type="line"/>
      <point x="265" y="498" type="line"/>
      <point x="265" y="296" type="line"/>
      <point x="63" y="296" type="line"/>
    </contour>
  </outline>
</glyph>
<glyph name="comma" format="2">
  <advance width="287"/>
  <unicode hex="002C"/>
  <outline>
    <contour>
      <point x="162" y="37" type="curve" smooth="yes"/>
      <point x="197" y="37"/>
      <point x="213" y="28"/>
      <point x="213" y="-5" type="curve" smooth="yes"/>
      <point x="213" y="-65"/>
      <point x="146" y="-121"/>
      <point x="70" y="-139" type="curve"/>
      <point x="78" y="-168" type="line"/>
      <point x="164" y="-152"/>
      <point x="260" y="-90"/>
      <point x="260" y="46" type="curve" smooth="yes"/>
      <point x="260" y="136"/>
      <point x="222" y="179"/>
      <point x="161" y="179" type="curve" smooth="yes"/>
      <point x="119" y="179"/>
      <point x="90" y="144" name="hr01"/>
      <point x="90" y="108" type="curve" smooth="yes"/>
      <point x="90" y="72"/>
      <point x="119" y="37"/>
    </contour>
  </outline>
</glyph>
<glyph name="hyphen" format="2">
  <advance width="371"/>
  <unicode hex="002D"/>
  <outline>
    <contour>
      <point x="60" y="214" type="line"/>
      <point x="310" y="214" type="line"/>
      <point x="310" y="289" type="line"/>
      <point x="60" y="289" type="line"/>
    </contour>
  </outline>
</glyph>
<glyph name="period" format="2">
  <advance width="283"/>
  <unicode hex="002E"/>
  <outline>
    <contour>
      <point x="141" y="-12" type="curve" smooth="yes"/>
      <point x="180" y="-12"/>
      <point x="212" y="20"/>
      <point x="212" y="59" type="curve" smooth="yes"/>
      <point x="212" y="98"/>
      <point x="180" y="130"/>
      <point x="141" y="130" type="curve" smooth="yes"/>
      <point x="102" y="130"/>
      <point x="70" y="98"/>
      <point x="70" y="59" type="curve" smooth="yes"/>
      <point x="70" y="20"/>
      <point x="102" y="-12"/>
    </contour>
  </outline>
</glyph>
<glyph name="slash" format="2">
  <advance width="354"/>
  <unicode hex="002F"/>
  <outline>
    <contour>
      <point x="29" y="0" type="line"/>
      <point x="76" y="0" type="line"/>
      <point x="350" y="692" type="line"/>
      <point x="303" y="692" type="line"/>
    </contour>
  </outline>
</glyph>
<glyph name="zero" format="2">
  <advance width="587"/>
  <unicode hex="0030"/>
  <outline>
    <contour>
      <point x="294" y="-12" type="curve" smooth="yes"/>
      <point x="438" y="-12"/>
      <point x="537" y="147"/>
      <point x="537" y="342" type="curve" smooth="yes"/>
      <point x="537" y="537"/>
      <point x="438" y="692"/>
      <point x="294" y="692" type="curve" smooth="yes"/>
      <point x="150" y="692"/>
      <point x="50" y="537"/>
      <point x="50" y="342" type="curve" smooth="yes"/>
      <point x="50" y="147"/>
      <point x="150" y="-12"/>
    </contour>
    <contour>
      <point x="166" y="367" type="line" smooth="yes"/>
      <point x="166" y="557"/>
      <point x="205" y="663"/>
      <point x="294" y="663" type="curve" smooth="yes"/>
      <point x="383" y="663"/>
      <point x="421" y="557"/>
      <point x="421" y="367" type="curve" smooth="yes"/>
      <point x="421" y="312" type="line" smooth="yes"/>
      <point x="421" y="122"/>
      <point x="383" y="17"/>
      <point x="294" y="17" type="curve" smooth="yes"/>
      <point x="205" y="17"/>
      <point x="166" y="122"/>
      <point x="166" y="312" type="curve" smooth="yes"/>
    </contour>
  </outline>
</glyph>
<glyph name="one" format="2">
  <advance width="450"/>
  <unicode hex="0031"/>
  <outline>
    <contour>
      <point x="105" y="0" type="line"/>
      <point x="400" y="0" type="line"/>
      <point x="400" y="35" type="line"/>
      <point x="350" y="35" type="line" smooth="yes"/>
      <point x="315" y="35"/>
      <point x="300" y="50"/>
      <point x="300" y="85" type="curve" smooth="yes"/>
      <point x="300" y="680" type="line"/>
      <point x="272" y="680" type="line"/>
      <point x="230" y="612"/>
      <point x="184" y="587"/>
      <point x="77" y="563" type="curve"/>
      <point x="77" y="540" type="line"/>
      <point x="99" y="542"/>
      <point x="205" y="540"/>
      <point x="205" y="494" type="curve" smooth="yes"/>
      <point x="205" y="85" type="line" smooth="yes"/>
      <point x="205" y="50"/>
      <point x="190" y="35"/>
      <point x="155" y="35" type="curve" smooth="yes"/>
      <point x="105" y="35" type="line"/>
    </contour>
  </outline>
</glyph>
<glyph name="two" format="2">
  <advance width="573"/>
  <unicode hex="0032"/>
  <outline>
    <contour>
      <point x="93" y="0" type="line"/>
      <point x="111" y="56"/>
      <point x="145" y="77"/>
      <point x="181" y="77" type="curve" smooth="yes"/>
      <point x="254" y="77"/>
      <point x="275" y="-12" name=".hr01"/>
      <point x="372" y="-12" type="curve" smooth="yes"/>
      <point x="491" y="-12"/>
      <point x="513" y="126"/>
      <point x="513" y="197" type="curve"/>
      <point x="480" y="197" type="line"/>
      <point x="475" y="123"/>
      <point x="443" y="86"/>
      <point x="401" y="86" type="curve" smooth="yes"/>
      <point x="340" y="86"/>
      <point x="294" y="148"/>
      <point x="232" y="159" type="curve" smooth="yes"/>
      <point x="196" y="165"/>
      <point x="183" y="177"/>
      <point x="204" y="197" type="curve" smooth="yes"/>
      <point x="244" y="235"/>
      <point x="290" y="261"/>
      <point x="337" y="287" type="curve" smooth="yes"/>
      <point x="421" y="334"/>
      <point x="504" y="408" name=".hr02"/>
      <point x="504" y="508" type="curve" smooth="yes"/>
      <point x="504" y="618"/>
      <point x="401" y="692"/>
      <point x="287" y="692" type="curve" smooth="yes"/>
      <point x="162" y="692"/>
      <point x="71" y="596"/>
      <point x="71" y="504" type="curve" smooth="yes"/>
      <point x="71" y="444"/>
      <point x="113" y="409"/>
      <point x="155" y="409" type="curve" smooth="yes"/>
      <point x="199" y="409"/>
      <point x="231" y="440"/>
      <point x="231" y="484" type="curve" smooth="yes"/>
      <point x="231" y="526"/>
      <point x="199" y="560"/>
      <point x="155" y="560" type="curve" smooth="yes"/>
      <point x="129" y="560"/>
      <point x="122" y="575"/>
      <point x="144" y="600" type="curve" smooth="yes"/>
      <point x="175" y="635"/>
      <point x="225" y="658"/>
      <point x="276" y="658" type="curve" smooth="yes"/>
      <point x="336" y="658"/>
      <point x="390" y="623"/>
      <point x="390" y="522" type="curve" smooth="yes"/>
      <point x="390" y="423"/>
      <point x="365" y="363"/>
      <point x="234" y="265" type="curve" smooth="yes"/>
      <point x="158" y="208"/>
      <point x="67" y="104"/>
      <point x="60" y="0" type="curve"/>
    </contour>
  </outline>
</glyph>
<glyph name="three" format="2">
  <advance width="583"/>
  <unicode hex="0033"/>
  <outline>
    <contour>
      <point x="215" y="353" type="line"/>
      <point x="368" y="353"/>
      <point x="406" y="278"/>
      <point x="406" y="192" type="curve" smooth="yes"/>
      <point x="406" y="91"/>
      <point x="360" y="24"/>
      <point x="261" y="24" type="curve" smooth="yes"/>
      <point x="208" y="24"/>
      <point x="167" y="45"/>
      <point x="139" y="68" type="curve" smooth="yes"/>
      <point x="124" y="80"/>
      <point x="125" y="101"/>
      <point x="155" y="107" type="curve" smooth="yes"/>
      <point x="190" y="114"/>
      <point x="215" y="143"/>
      <point x="215" y="182" type="curve" smooth="yes"/>
      <point x="215" y="225"/>
      <point x="181" y="260"/>
      <point x="137" y="260" type="curve" smooth="yes"/>
      <point x="96" y="260"/>
      <point x="50" y="229"/>
      <point x="50" y="159" type="curve" smooth="yes"/>
      <point x="50" y="71"/>
      <point x="152" y="-12"/>
      <point x="275" y="-12" type="curve" smooth="yes"/>
      <point x="449" y="-12"/>
      <point x="523" y="87"/>
      <point x="523" y="184" type="curve" smooth="yes"/>
      <point x="523" y="271"/>
      <point x="448" y="346"/>
      <point x="344" y="364" type="curve"/>
      <point x="344" y="373" type="line"/>
      <point x="429" y="386"/>
      <point x="494" y="448"/>
      <point x="494" y="527" type="curve" smooth="yes"/>
      <point x="494" y="626"/>
      <point x="400" y="692"/>
      <point x="285" y="692" type="curve" smooth="yes"/>
      <point x="182" y="692"/>
      <point x="87" y="613"/>
      <point x="87" y="525" type="curve" smooth="yes"/>
      <point x="87" y="476"/>
      <point x="120" y="447"/>
      <point x="161" y="447" type="curve" smooth="yes"/>
      <point x="201" y="447"/>
      <point x="232" y="476"/>
      <point x="232" y="517" type="curve" smooth="yes"/>
      <point x="232" y="551"/>
      <point x="208" y="580"/>
      <point x="175" y="587" type="curve" smooth="yes"/>
      <point x="159" y="590"/>
      <point x="149" y="603"/>
      <point x="169" y="621" type="curve" smooth="yes"/>
      <point x="197" y="645"/>
      <point x="236" y="659"/>
      <point x="272" y="659" type="curve" smooth="yes"/>
      <point x="368" y="659"/>
      <point x="391" y="598"/>
      <point x="391" y="520" type="curve" smooth="yes"/>
      <point x="391" y="446"/>
      <point x="360" y="382"/>
      <point x="215" y="382" type="curve"/>
    </contour>
  </outline>
</glyph>
<glyph name="four" format="2">
  <advance width="546"/>
  <unicode hex="0034"/>
  <outline>
    <contour>
      <point x="380" y="171" type="line"/>
      <point x="516" y="171" type="line"/>
      <point x="516" y="208" type="line"/>
      <point x="380" y="208" type="line"/>
      <point x="380" y="500" type="line" smooth="yes"/>
      <point x="380" y="509"/>
      <point x="376" y="511"/>
      <point x="370" y="503" type="curve" smooth="yes"/>
      <point x="285" y="378" type="line"/>
      <point x="285" y="208" type="line"/>
      <point x="71" y="208" type="line"/>
      <point x="179" y="382"/>
      <point x="295" y="510"/>
      <point x="372" y="680" type="curve"/>
      <point x="215" y="680" type="line"/>
      <point x="189" y="519"/>
      <point x="129" y="378"/>
      <point x="30" y="208" type="curve"/>
      <point x="30" y="171" type="line"/>
      <point x="49" y="171" type="line"/>
      <point x="285" y="171" type="line"/>
      <point x="285" y="85" type="line" smooth="yes"/>
      <point x="285" y="50"/>
      <point x="270" y="35"/>
      <point x="235" y="35" type="curve" smooth="yes"/>
      <point x="185" y="35" type="line"/>
      <point x="185" y="0" type="line"/>
      <point x="480" y="0" type="line"/>
      <point x="480" y="35" type="line"/>
      <point x="430" y="35" type="line" smooth="yes"/>
      <point x="395" y="35"/>
      <point x="380" y="50"/>
      <point x="380" y="85" type="curve" smooth="yes"/>
    </contour>
  </outline>
</glyph>
<glyph name="five" format="2">
  <advance width="565"/>
  <unicode hex="0035"/>
  <outline>
    <contour>
      <point x="108" y="354" type="line" smooth="yes"/>
      <point x="108" y="334"/>
      <point x="110" y="335"/>
      <point x="124" y="344" type="curve" smooth="yes"/>
      <point x="166" y="373"/>
      <point x="208" y="392"/>
      <point x="252" y="392" type="curve" smooth="yes"/>
      <point x="366" y="392"/>
      <point x="389" y="327"/>
      <point x="389" y="212" type="curve" smooth="yes"/>
      <point x="389" y="82"/>
      <point x="342" y="22"/>
      <point x="251" y="22" type="curve" smooth="yes"/>
      <point x="208" y="22"/>
      <point x="174" y="33"/>
      <point x="148" y="51" type="curve" smooth="yes"/>
      <point x="130" y="64"/>
      <point x="127" y="85"/>
      <point x="157" y="90" type="curve" smooth="yes"/>
      <point x="193" y="96"/>
      <point x="219" y="125"/>
      <point x="219" y="164" type="curve" smooth="yes"/>
      <point x="219" y="207"/>
      <point x="187" y="239"/>
      <point x="144" y="239" type="curve" smooth="yes"/>
      <point x="101" y="239"/>
      <point x="60" y="204"/>
      <point x="60" y="146" type="curve" smooth="yes"/>
      <point x="60" y="60"/>
      <point x="137" y="-12"/>
      <point x="259" y="-12" type="curve" smooth="yes"/>
      <point x="412" y="-12"/>
      <point x="505" y="93"/>
      <point x="505" y="212" type="curve" smooth="yes"/>
      <point x="505" y="353"/>
      <point x="385" y="426"/>
      <point x="283" y="426" type="curve" smooth="yes"/>
      <point x="226" y="426"/>
      <point x="177" y="408"/>
      <point x="143" y="391" type="curve"/>
      <point x="143" y="578" type="line"/>
      <point x="279" y="557"/>
      <point x="412" y="557"/>
      <point x="455" y="664" type="curve" smooth="yes"/>
      <point x="462" y="682"/>
      <point x="457" y="683"/>
      <point x="439" y="679" type="curve" smooth="yes"/>
      <point x="360" y="660"/>
      <point x="284" y="651"/>
      <point x="108" y="685" type="curve"/>
    </contour>
  </outline>
</glyph>
<glyph name="six" format="2">
  <advance width="581"/>
  <unicode hex="0036"/>
  <outline>
    <contour>
      <point x="165" y="406" type="line" smooth="yes"/>
      <point x="165" y="525"/>
      <point x="214" y="660"/>
      <point x="326" y="660" type="curve" smooth="yes"/>
      <point x="364" y="660"/>
      <point x="371" y="641"/>
      <point x="354" y="612" type="curve" smooth="yes"/>
      <point x="347" y="601"/>
      <point x="344" y="589"/>
      <point x="344" y="575" type="curve" smooth="yes"/>
      <point x="344" y="534"/>
      <point x="374" y="504"/>
      <point x="415" y="504" type="curve" smooth="yes"/>
      <point x="456" y="504"/>
      <point x="486" y="535"/>
      <point x="486" y="575" type="curve" smooth="yes"/>
      <point x="486" y="639"/>
      <point x="419" y="692"/>
      <point x="326" y="692" type="curve" smooth="yes"/>
      <point x="174" y="692"/>
      <point x="60" y="530"/>
      <point x="60" y="336" type="curve" smooth="yes"/>
      <point x="60" y="130"/>
      <point x="154" y="-12"/>
      <point x="306" y="-12" type="curve" smooth="yes"/>
      <point x="413" y="-12"/>
      <point x="521" y="78"/>
      <point x="521" y="219" type="curve" smooth="yes"/>
      <point x="521" y="355"/>
      <point x="419" y="426"/>
      <point x="322" y="426" type="curve" smooth="yes"/>
      <point x="249" y="426"/>
      <point x="192" y="385"/>
      <point x="165" y="347" type="curve"/>
    </contour>
    <contour>
      <point x="165" y="255" type="line" smooth="yes"/>
      <point x="165" y="343"/>
      <point x="257" y="391"/>
      <point x="304" y="391" type="curve" smooth="yes"/>
      <point x="368" y="391"/>
      <point x="412" y="330"/>
      <point x="412" y="215" type="curve" smooth="yes"/>
      <point x="412" y="100"/>
      <point x="380" y="20"/>
      <point x="303" y="20" type="curve" smooth="yes"/>
      <point x="217" y="20"/>
      <point x="165" y="122"/>
      <point x="165" y="206" type="curve" smooth="yes"/>
    </contour>
  </outline>
</glyph>
<glyph name="seven" format="2">
  <advance width="519"/>
  <unicode hex="0037"/>
  <outline>
    <contour>
      <point x="295" y="-1" type="line"/>
      <point x="295" y="266"/>
      <point x="489" y="388"/>
      <point x="489" y="692" type="curve"/>
      <point x="453" y="692" type="line"/>
      <point x="443" y="644"/>
      <point x="428" y="618"/>
      <point x="378" y="618" type="curve" smooth="yes"/>
      <point x="304" y="618"/>
      <point x="267" y="680" name=".hr01"/>
      <point x="188" y="680" type="curve" smooth="yes"/>
      <point x="157" y="680"/>
      <point x="132" y="668"/>
      <point x="113" y="646" type="curve" smooth="yes"/>
      <point x="95" y="626"/>
      <point x="85" y="629"/>
      <point x="85" y="654" type="curve" smooth="yes"/>
      <point x="85" y="692" type="line"/>
      <point x="50" y="692" type="line"/>
      <point x="50" y="462" type="line"/>
      <point x="85" y="462" type="line"/>
      <point x="91" y="542"/>
      <point x="110" y="584"/>
      <point x="159" y="584" type="curve" smooth="yes"/>
      <point x="227" y="584"/>
      <point x="279" y="514" name=".hr02"/>
      <point x="342" y="514" type="curve" smooth="yes"/>
      <point x="359" y="514"/>
      <point x="375" y="516"/>
      <point x="390" y="523" type="curve" smooth="yes"/>
      <point x="416" y="534"/>
      <point x="428" y="528"/>
      <point x="420" y="507" type="curve" smooth="yes"/>
      <point x="349" y="319"/>
      <point x="186" y="205"/>
      <point x="141" y="-1" type="curve"/>
    </contour>
  </outline>
</glyph>
<glyph name="colon" format="2">
  <advance width="302"/>
  <unicode hex="003A"/>
  <outline>
    <contour>
      <point x="80" y="390" type="curve" smooth="yes"/>
      <point x="80" y="351"/>
      <point x="112" y="319"/>
      <point x="151" y="319" type="curve" smooth="yes"/>
      <point x="190" y="319"/>
      <point x="222" y="351"/>
      <point x="222" y="390" type="curve" smooth="yes"/>
      <point x="222" y="429"/>
      <point x="190" y="461"/>
      <point x="151" y="461" type="curve" smooth="yes"/>
      <point x="112" y="461"/>
      <point x="80" y="429"/>
    </contour>
    <contour>
      <point x="80" y="59" type="curve" smooth="yes"/>
      <point x="80" y="20"/>
      <point x="112" y="-12"/>
      <point x="151" y="-12" type="curve" smooth="yes"/>
      <point x="190" y="-12"/>
      <point x="222" y="20"/>
      <point x="222" y="59" type="curve" smooth="yes"/>
      <point x="222" y="98"/>
      <point x="190" y="130"/>
      <point x="151" y="130" type="curve" smooth="yes"/>
      <point x="112" y="130"/>
      <point x="80" y="98"/>
    </contour>
  </outline>
</glyph>
<glyph name="semicolon" format="2">
  <advance width="330"/>
  <unicode hex="003B"/>
  <outline>
    <contour>
      <point x="95" y="391" type="curve" smooth="yes"/>
      <point x="95" y="352"/>
      <point x="127" y="320"/>
      <point x="166" y="320" type="curve" smooth="yes"/>
      <point x="205" y="320"/>
      <point x="237" y="352"/>
      <point x="237" y="391" type="curve" smooth="yes"/>
      <point x="237" y="430"/>
      <point x="205" y="462"/>
      <point x="166" y="462" type="curve" smooth="yes"/>
      <point x="127" y="462"/>
      <point x="95" y="430"/>
    </contour>
    <contour>
      <point x="157" y="17" type="curve" smooth="yes"/>
      <point x="192" y="17"/>
      <point x="208" y="8"/>
      <point x="208" y="-25" type="curve" smooth="yes"/>
      <point x="208" y="-85"/>
      <point x="141" y="-141"/>
      <point x="65" y="-159" type="curve"/>
      <point x="73" y="-188" type="line"/>
      <point x="159" y="-172"/>
      <point x="255" y="-110"/>
      <point x="255" y="26" type="curve" smooth="yes"/>
      <point x="255" y="116"/>
      <point x="217" y="159"/>
      <point x="156" y="159" type="curve" smooth="yes"/>
      <point x="114" y="159"/>
      <point x="85" y="124"/>
      <point x="85" y="88" type="curve" smooth="yes"/>
      <point x="85" y="52"/>
      <point x="114" y="17"/>
    </contour>
  </outline>
</glyph>
<glyph name="less" format="2">
  <advance width="708"/>
  <unicode hex="003C"/>
  <outline>
    <contour>
      <point x="43" y="260" type="line"/>
      <point x="43" y="281" type="line"/>
      <point x="624" y="593" type="line"/>
      <point x="640" y="566" type="line"/>
      <point x="91" y="270" type="line"/>
      <point x="640" y="-25" type="line"/>
      <point x="624" y="-53" type="line"/>
    </contour>
  </outline>
</glyph>
<glyph name="question" format="2">
  <advance width="418"/>
  <unicode hex="003F"/>
  <outline>
    <contour>
      <point x="194" y="-7" type="curve" smooth="yes"/>
      <point x="228" y="-7"/>
      <point x="256" y="21"/>
      <point x="256" y="55" type="curve" smooth="yes"/>
      <point x="256" y="89"/>
      <point x="228" y="117"/>
      <point x="194" y="117" type="curve" smooth="yes"/>
      <point x="160" y="117"/>
      <point x="132" y="89"/>
      <point x="132" y="55" type="curve" smooth="yes"/>
      <point x="132" y="21"/>
      <point x="160" y="-7"/>
    </contour>
    <contour>
      <point x="207" y="216" type="line"/>
      <point x="193" y="380"/>
      <point x="388" y="383"/>
      <point x="388" y="546" type="curve" smooth="yes"/>
      <point x="388" y="638"/>
      <point x="310" y="692"/>
      <point x="204" y="692" type="curve" smooth="yes"/>
      <point x="101" y="692"/>
      <point x="20" y="630"/>
      <point x="20" y="557" type="curve" smooth="yes"/>
      <point x="20" y="511"/>
      <point x="46" y="476"/>
      <point x="88" y="476" type="curve" smooth="yes"/>
      <point x="119" y="476"/>
      <point x="148" y="500"/>
      <point x="148" y="537" type="curve" smooth="yes"/>
      <point x="148" y="583"/>
      <point x="93" y="588"/>
      <point x="93" y="611" type="curve" smooth="yes"/>
      <point x="93" y="634"/>
      <point x="126" y="664"/>
      <point x="191" y="664" type="curve" smooth="yes"/>
      <point x="235" y="664"/>
      <point x="282" y="641"/>
      <point x="282" y="556" type="curve" smooth="yes"/>
      <point x="282" y="398"/>
      <point x="157" y="354"/>
      <point x="171" y="216" type="curve"/>
    </contour>
  </outline>
</glyph>
<glyph name="at" format="2">
  <advance width="892"/>
  <unicode hex="0040"/>
  <outline>
    <contour>
      <point x="455" y="68" type="line"/>
      <point x="455" y="28"/>
      <point x="466" y="-1"/>
      <point x="511" y="-1" type="curve" smooth="yes"/>
      <point x="634" y="-1"/>
      <point x="758" y="147"/>
      <point x="758" y="263" type="curve" smooth="yes"/>
      <point x="758" y="431"/>
      <point x="649" y="541"/>
      <point x="481" y="541" type="curve" smooth="yes"/>
      <point x="274" y="541"/>
      <point x="115" y="382"/>
      <point x="115" y="170" type="curve" smooth="yes"/>
      <point x="115" y="-28"/>
      <point x="257" y="-159"/>
      <point x="452" y="-159" type="curve" smooth="yes"/>
      <point x="603" y="-159"/>
      <point x="724" y="-65"/>
      <point x="777" y="72" type="curve"/>
      <point x="763" y="72" type="line"/>
      <point x="703" y="-64"/>
      <point x="596" y="-136"/>
      <point x="452" y="-136" type="curve" smooth="yes"/>
      <point x="273" y="-136"/>
      <point x="147" y="-20"/>
      <point x="147" y="160" type="curve" smooth="yes"/>
      <point x="147" y="355"/>
      <point x="286" y="516"/>
      <point x="484" y="516" type="curve" smooth="yes"/>
      <point x="641" y="516"/>
      <point x="735" y="423"/>
      <point x="735" y="263" type="curve" smooth="yes"/>
      <point x="735" y="176"/>
      <point x="637" y="27"/>
      <point x="537" y="27" type="curve" smooth="yes"/>
      <point x="534" y="27"/>
      <point x="531" y="27"/>
      <point x="528" y="27" type="curve"/>
      <point x="515" y="30"/>
      <point x="516" y="39"/>
      <point x="516" y="50" type="curve" smooth="yes"/>
      <point x="516" y="63"/>
      <point x="524" y="86"/>
      <point x="534" y="117" type="curve" smooth="yes"/>
      <point x="613" y="360" type="line"/>
      <point x="542" y="360" type="line"/>
      <point x="526" y="308" type="line"/>
      <point x="519" y="308" type="line"/>
      <point x="512" y="346"/>
      <point x="493" y="369"/>
      <point x="454" y="369" type="curve" smooth="yes"/>
      <point x="383" y="369"/>
      <point x="302" y="296"/>
      <point x="273" y="204" type="curve" smooth="yes"/>
      <point x="265" y="180"/>
      <point x="261" y="150"/>
      <point x="261" y="122" type="curve" smooth="yes"/>
      <point x="261" y="58"/>
      <point x="283" y="-4"/>
      <point x="341" y="-4" type="curve" smooth="yes"/>
      <point x="379" y="-4"/>
      <point x="420" y="26"/>
      <point x="450" y="68" type="curve"/>
    </contour>
    <contour>
      <point x="480" y="169" type="line"/>
      <point x="457" y="106"/>
      <point x="409" y="32"/>
      <point x="353" y="32" type="curve" smooth="yes"/>
      <point x="333" y="32"/>
      <point x="326" y="49"/>
      <point x="326" y="75" type="curve" smooth="yes"/>
      <point x="326" y="106"/>
      <point x="337" y="150"/>
      <point x="351" y="195" type="curve"/>
      <point x="370" y="252"/>
      <point x="409" y="339"/>
      <point x="463" y="339" type="curve" smooth="yes"/>
      <point x="492" y="339"/>
      <point x="502" y="313"/>
      <point x="502" y="280" type="curve" smooth="yes"/>
      <point x="502" y="254"/>
      <point x="496" y="223"/>
      <point x="489" y="196" type="curve"/>
    </contour>
  </outline>
</glyph>
<glyph name="B" format="2">
  <advance width="642"/>
  <unicode hex="0042"/>
  <outline>
    <contour>
      <point x="48" y="0" type="line"/>
      <point x="329" y="0" type="line" smooth="yes"/>
      <point x="491" y="0"/>
      <point x="595" y="65"/>
      <point x="595" y="190" type="curve" smooth="yes"/>
      <point x="595" y="276"/>
      <point x="535" y="343"/>
      <point x="443" y="363" type="curve"/>
      <point x="443" y="363"/>
      <point x="436" y="365"/>
      <point x="436" y="369" type="curve" smooth="yes"/>
      <point x="436" y="372"/>
      <point x="443" y="374"/>
      <point x="443" y="374" type="curve"/>
      <point x="518" y="396"/>
      <point x="551" y="451"/>
      <point x="551" y="514" type="curve" smooth="yes"/>
      <point x="551" y="619"/>
      <point x="471" y="680"/>
      <point x="319" y="680" type="curve" smooth="yes"/>
      <point x="48" y="680" type="line"/>
      <point x="48" y="645" type="line"/>
      <point x="88" y="645" type="line" smooth="yes"/>
      <point x="133" y="645"/>
      <point x="138" y="640"/>
      <point x="138" y="595" type="curve" smooth="yes"/>
      <point x="138" y="85" type="line" smooth="yes"/>
      <point x="138" y="40"/>
      <point x="133" y="35"/>
      <point x="88" y="35" type="curve" smooth="yes"/>
      <point x="48" y="35" type="line"/>
    </contour>
    <contour>
      <point x="233" y="347" type="line"/>
      <point x="319" y="347" type="line" smooth="yes"/>
      <point x="419" y="347"/>
      <point x="485" y="300"/>
      <point x="485" y="190" type="curve" smooth="yes"/>
      <point x="485" y="80"/>
      <point x="419" y="36"/>
      <point x="319" y="36" type="curve" smooth="yes"/>
      <point x="307" y="36" type="line" smooth="yes"/>
      <point x="286" y="36"/>
      <point x="233" y="44"/>
      <point x="233" y="76" type="curve" smooth="yes"/>
    </contour>
    <contour>
      <point x="233" y="384" type="line"/>
      <point x="233" y="604" type="line" smooth="yes"/>
      <point x="233" y="636"/>
      <point x="281" y="644"/>
      <point x="302" y="644" type="curve" smooth="yes"/>
      <point x="309" y="644" type="line" smooth="yes"/>
      <point x="389" y="644"/>
      <point x="445" y="609"/>
      <point x="445" y="514" type="curve" smooth="yes"/>
      <point x="445" y="419"/>
      <point x="389" y="384"/>
      <point x="309" y="384" type="curve" smooth="yes"/>
    </contour>
  </outline>
</glyph>
<glyph name="C" format="2">
  <advance width="611"/>
  <unicode hex="0043"/>
  <anchor x="330" y="750" name="t.dieresis"/>
  <anchor x="330" y="730" name="t.asciicircum_1"/>
  <outline>
    <contour>
      <point x="527" y="214" type="line"/>
      <point x="510" y="102"/>
      <point x="435" y="30"/>
      <point x="335" y="30" type="curve" smooth="yes"/>
      <point x="248" y="30"/>
      <point x="164" y="90"/>
      <point x="164" y="340" type="curve" smooth="yes"/>
      <point x="164" y="590"/>
      <point x="242" y="656"/>
      <point x="330" y="656" type="curve" smooth="yes"/>
      <point x="408" y="656"/>
      <point x="490" y="609"/>
      <point x="517" y="436" type="curve"/>
      <point x="557" y="436" type="line"/>
      <point x="557" y="692" type="line"/>
      <point x="522" y="692" type="line"/>
      <point x="514" y="678" type="line" smooth="yes"/>
      <point x="494" y="644"/>
      <point x="482" y="641"/>
      <point x="438" y="664" type="curve" smooth="yes"/>
      <point x="411" y="678"/>
      <point x="383" y="692"/>
      <point x="330" y="692" type="curve" smooth="yes"/>
      <point x="153" y="692"/>
      <point x="47" y="535"/>
      <point x="47" y="340" type="curve" smooth="yes"/>
      <point x="47" y="121"/>
      <point x="170" y="-12"/>
      <point x="330" y="-12" type="curve" smooth="yes"/>
      <point x="445" y="-12"/>
      <point x="544" y="63"/>
      <point x="564" y="208" type="curve"/>
    </contour>
  </outline>
</glyph>
<glyph name="D" format="2">
  <advance width="673"/>
  <unicode hex="0044"/>
  <anchor x="354" y="719" name="t.asciicircum_1"/>
  <outline>
    <contour>
      <point x="47" y="0" type="line"/>
      <point x="318" y="0" type="line" smooth="yes"/>
      <point x="533" y="0"/>
      <point x="627" y="160"/>
      <point x="627" y="340" type="curve" smooth="yes"/>
      <point x="627" y="520"/>
      <point x="533" y="680"/>
      <point x="318" y="680" type="curve" smooth="yes"/>
      <point x="47" y="680" type="line"/>
      <point x="47" y="645" type="line"/>
      <point x="87" y="645" type="line" smooth="yes"/>
      <point x="132" y="645"/>
      <point x="137" y="640"/>
      <point x="137" y="595" type="curve" smooth="yes"/>
      <point x="137" y="85" type="line" smooth="yes"/>
      <point x="137" y="40"/>
      <point x="132" y="35"/>
      <point x="87" y="35" type="curve" smooth="yes"/>
      <point x="47" y="35" type="line"/>
    </contour>
    <contour>
      <point x="301" y="36" type="line" smooth="yes"/>
      <point x="280" y="36"/>
      <point x="232" y="44"/>
      <point x="232" y="76" type="curve" smooth="yes"/>
      <point x="232" y="604" type="line" smooth="yes"/>
      <point x="232" y="636"/>
      <point x="281" y="644"/>
      <point x="301" y="644" type="curve" smooth="yes"/>
      <point x="308" y="644" type="line" smooth="yes"/>
      <point x="448" y="644"/>
      <point x="512" y="560"/>
      <point x="512" y="340" type="curve" smooth="yes"/>
      <point x="512" y="120"/>
      <point x="448" y="36"/>
      <point x="308" y="36" type="curve" smooth="yes"/>
    </contour>
  </outline>
</glyph>
<glyph name="E" format="2">
  <advance width="649"/>
  <unicode hex="0045"/>
  <anchor x="346" y="750" name="t.dieresis"/>
  <anchor x="346" y="730" name="t.asciicircum_1"/>
  <outline>
    <contour>
      <point x="47" y="0" type="line"/>
      <point x="588" y="0" type="line"/>
      <point x="593" y="269" type="line"/>
      <point x="563" y="269" type="line"/>
      <point x="541" y="148"/>
      <point x="523" y="36"/>
      <point x="357" y="36" type="curve" smooth="yes"/>
      <point x="283" y="36" type="line" smooth="yes"/>
      <point x="257" y="36"/>
      <point x="232" y="55"/>
      <point x="232" y="79" type="curve" smooth="yes"/>
      <point x="232" y="326" type="line"/>
      <point x="295" y="326" type="line" smooth="yes"/>
      <point x="351" y="326"/>
      <point x="386" y="270"/>
      <point x="394" y="180" type="curve"/>
      <point x="429" y="180" type="line"/>
      <point x="429" y="507" type="line"/>
      <point x="394" y="507" type="line"/>
      <point x="386" y="417"/>
      <point x="355" y="362"/>
      <point x="295" y="362" type="curve" smooth="yes"/>
      <point x="232" y="362" type="line"/>
      <point x="232" y="604" type="line" smooth="yes"/>
      <point x="232" y="628"/>
      <point x="267" y="644"/>
      <point x="297" y="644" type="curve" smooth="yes"/>
      <point x="360" y="644" type="line" smooth="yes"/>
      <point x="480" y="644"/>
      <point x="519" y="576"/>
      <point x="546" y="449" type="curve"/>
      <point x="576" y="449" type="line"/>
      <point x="571" y="680" type="line"/>
      <point x="47" y="680" type="line"/>
      <point x="47" y="645" type="line"/>
      <point x="87" y="645" type="line" smooth="yes"/>
      <point x="132" y="645"/>
      <point x="137" y="640"/>
      <point x="137" y="595" type="curve" smooth="yes"/>
      <point x="137" y="85" type="line" smooth="yes"/>
      <point x="137" y="40"/>
      <point x="132" y="35"/>
      <point x="87" y="35" type="curve" smooth="yes"/>
      <point x="47" y="35" type="line"/>
    </contour>
  </outline>
</glyph>
<glyph name="F" format="2">
  <advance width="613"/>
  <unicode hex="0046"/>
  <outline>
    <contour>
      <point x="47" y="0" type="line"/>
      <point x="342" y="0" type="line"/>
      <point x="342" y="35" type="line"/>
      <point x="282" y="35" type="line" smooth="yes"/>
      <point x="237" y="35"/>
      <point x="232" y="40"/>
      <point x="232" y="85" type="curve" smooth="yes"/>
      <point x="232" y="326" type="line"/>
      <point x="295" y="326" type="line" smooth="yes"/>
      <point x="351" y="326"/>
      <point x="386" y="270"/>
      <point x="394" y="180" type="curve"/>
      <point x="429" y="180" type="line"/>
      <point x="429" y="507" type="line"/>
      <point x="394" y="507" type="line"/>
      <point x="386" y="417"/>
      <point x="355" y="362"/>
      <point x="295" y="362" type="curve" smooth="yes"/>
      <point x="232" y="362" type="line"/>
      <point x="232" y="604" type="line" smooth="yes"/>
      <point x="232" y="628"/>
      <point x="267" y="644"/>
      <point x="297" y="644" type="curve" smooth="yes"/>
      <point x="360" y="644" type="line" smooth="yes"/>
      <point x="480" y="644"/>
      <point x="519" y="576"/>
      <point x="546" y="449" type="curve"/>
      <point x="576" y="449" type="line"/>
      <point x="571" y="680" type="line"/>
      <point x="47" y="680" type="line"/>
      <point x="47" y="645" type="line"/>
      <point x="87" y="645" type="line" smooth="yes"/>
      <point x="132" y="645"/>
      <point x="137" y="640"/>
      <point x="137" y="595" type="curve" smooth="yes"/>
      <point x="137" y="85" type="line" smooth="yes"/>
      <point x="137" y="40"/>
      <point x="132" y="35"/>
      <point x="87" y="35" type="curve" smooth="yes"/>
      <point x="47" y="35" type="line"/>
    </contour>
  </outline>
</glyph>
<glyph name="G" format="2">
  <advance width="687"/>
  <unicode hex="0047"/>
  <outline>
    <contour>
      <point x="470" y="187" type="line" smooth="yes"/>
      <point x="470" y="73"/>
      <point x="400" y="27"/>
      <point x="340" y="27" type="curve" smooth="yes"/>
      <point x="245" y="27"/>
      <point x="164" y="90"/>
      <point x="164" y="340" type="curve" smooth="yes"/>
      <point x="164" y="590"/>
      <point x="241" y="656"/>
      <point x="330" y="656" type="curve" smooth="yes"/>
      <point x="408" y="656"/>
      <point x="490" y="609"/>
      <point x="517" y="436" type="curve"/>
      <point x="557" y="436" type="line"/>
      <point x="557" y="692" type="line"/>
      <point x="522" y="692" type="line"/>
      <point x="514" y="677" type="line"/>
      <point x="487" y="639"/>
      <point x="482" y="641"/>
      <point x="438" y="664" type="curve" smooth="yes"/>
      <point x="411" y="679"/>
      <point x="383" y="692"/>
      <point x="330" y="692" type="curve" smooth="yes"/>
      <point x="151" y="692"/>
      <point x="47" y="535"/>
      <point x="47" y="340" type="curve" smooth="yes"/>
      <point x="47" y="146"/>
      <point x="153" y="-12"/>
      <point x="321" y="-12" type="curve" smooth="yes"/>
      <point x="370" y="-12"/>
      <point x="416" y="4"/>
      <point x="455" y="37" type="curve"/>
      <point x="488" y="63"/>
      <point x="499" y="74"/>
      <point x="527" y="7" type="curve" smooth="yes"/>
      <point x="535" y="-12" type="line"/>
      <point x="565" y="-12" type="line"/>
      <point x="565" y="272" type="line" smooth="yes"/>
      <point x="565" y="317"/>
      <point x="570" y="322"/>
      <point x="615" y="322" type="curve" smooth="yes"/>
      <point x="655" y="322" type="line"/>
      <point x="655" y="358" type="line"/>
      <point x="380" y="358" type="line"/>
      <point x="380" y="322" type="line"/>
      <point x="420" y="322" type="line" smooth="yes"/>
      <point x="465" y="322"/>
      <point x="470" y="317"/>
      <point x="470" y="272" type="curve" smooth="yes"/>
    </contour>
  </outline>
</glyph>
<glyph name="H" format="2">
  <advance width="732"/>
  <unicode hex="0048"/>
  <outline>
    <contour>
      <point x="42" y="0" type="line"/>
      <point x="317" y="0" type="line"/>
      <point x="317" y="35" type="line"/>
      <point x="277" y="35" type="line" smooth="yes"/>
      <point x="232" y="35"/>
      <point x="227" y="40"/>
      <point x="227" y="85" type="curve" smooth="yes"/>
      <point x="227" y="325" type="line"/>
      <point x="505" y="325" type="line"/>
      <point x="505" y="85" type="line" smooth="yes"/>
      <point x="505" y="40"/>
      <point x="500" y="35"/>
      <point x="455" y="35" type="curve" smooth="yes"/>
      <point x="415" y="35" type="line"/>
      <point x="415" y="0" type="line"/>
      <point x="690" y="0" type="line"/>
      <point x="690" y="35" type="line"/>
      <point x="650" y="35" type="line" smooth="yes"/>
      <point x="605" y="35"/>
      <point x="600" y="40"/>
      <point x="600" y="85" type="curve" smooth="yes"/>
      <point x="600" y="595" type="line" smooth="yes"/>
      <point x="600" y="640"/>
      <point x="605" y="645"/>
      <point x="650" y="645" type="curve" smooth="yes"/>
      <point x="690" y="645" type="line"/>
      <point x="690" y="680" type="line"/>
      <point x="415" y="680" type="line"/>
      <point x="415" y="645" type="line"/>
      <point x="455" y="645" type="line" smooth="yes"/>
      <point x="500" y="645"/>
      <point x="505" y="640"/>
      <point x="505" y="595" type="curve" smooth="yes"/>
      <point x="505" y="361" type="line"/>
      <point x="227" y="361" type="line"/>
      <point x="227" y="595" type="line" smooth="yes"/>
      <point x="227" y="640"/>
      <point x="232" y="645"/>
      <point x="277" y="645" type="curve" smooth="yes"/>
      <point x="317" y="645" type="line"/>
      <point x="317" y="680" type="line"/>
      <point x="42" y="680" type="line"/>
      <point x="42" y="645" type="line"/>
      <point x="82" y="645" type="line" smooth="yes"/>
      <point x="127" y="645"/>
      <point x="132" y="640"/>
      <point x="132" y="595" type="curve" smooth="yes"/>
      <point x="132" y="85" type="line" smooth="yes"/>
      <point x="132" y="40"/>
      <point x="127" y="35"/>
      <point x="82" y="35" type="curve" smooth="yes"/>
      <point x="42" y="35" type="line"/>
    </contour>
  </outline>
</glyph>
<glyph name="I" format="2">
  <advance width="404"/>
  <unicode hex="0049"/>
  <anchor x="199" y="730" name="t.asciicircum_1"/>
  <outline>
    <contour>
      <point x="64" y="0" type="line"/>
      <point x="339" y="0" type="line"/>
      <point x="339" y="35" type="line"/>
      <point x="299" y="35" type="line" smooth="yes"/>
      <point x="254" y="35"/>
      <point x="249" y="49"/>
      <point x="249" y="85" type="curve" smooth="yes"/>
      <point x="249" y="595" type="line" smooth="yes"/>
      <point x="249" y="640"/>
      <point x="254" y="645"/>
      <point x="299" y="645" type="curve" smooth="yes"/>
      <point x="339" y="645" type="line"/>
      <point x="339" y="680" type="line"/>
      <point x="64" y="680" type="line"/>
      <point x="64" y="645" type="line"/>
      <point x="104" y="645" type="line" smooth="yes"/>
      <point x="149" y="645"/>
      <point x="154" y="640"/>
      <point x="154" y="595" type="curve" smooth="yes"/>
      <point x="154" y="85" type="line" smooth="yes"/>
      <point x="154" y="40"/>
      <point x="149" y="35"/>
      <point x="104" y="35" type="curve" smooth="yes"/>
      <point x="64" y="35" type="line"/>
    </contour>
  </outline>
</glyph>
<glyph name="J" format="2">
  <advance width="463"/>
  <unicode hex="004A"/>
  <anchor x="296" y="730" name="t.asciicircum_1"/>
  <outline>
    <contour>
      <point x="250" y="50" type="line" smooth="yes"/>
      <point x="250" y="-18"/>
      <point x="220" y="-47"/>
      <point x="176" y="-47" type="curve" smooth="yes"/>
      <point x="126" y="-47"/>
      <point x="105" y="-18"/>
      <point x="105" y="-2" type="curve" smooth="yes"/>
      <point x="105" y="21"/>
      <point x="144" y="28" name=".hr01"/>
      <point x="144" y="70" type="curve" smooth="yes"/>
      <point x="144" y="104"/>
      <point x="118" y="126"/>
      <point x="90" y="126" type="curve" smooth="yes"/>
      <point x="52" y="126"/>
      <point x="28" y="94"/>
      <point x="28" y="52" type="curve" smooth="yes"/>
      <point x="28" y="-15"/>
      <point x="110" y="-78"/>
      <point x="179" y="-78" type="curve" smooth="yes"/>
      <point x="288" y="-78"/>
      <point x="346" y="6"/>
      <point x="346" y="104" type="curve" smooth="yes"/>
      <point x="346" y="595" type="line" smooth="yes"/>
      <point x="346" y="640"/>
      <point x="351" y="645"/>
      <point x="396" y="645" type="curve" smooth="yes"/>
      <point x="436" y="645" type="line"/>
      <point x="436" y="680" type="line"/>
      <point x="160" y="680" type="line"/>
      <point x="160" y="645" type="line"/>
      <point x="200" y="645" type="line" smooth="yes"/>
      <point x="245" y="645"/>
      <point x="250" y="640"/>
      <point x="250" y="595" type="curve" smooth="yes"/>
    </contour>
  </outline>
</glyph>
<glyph name="K" format="2">
  <advance width="725"/>
  <unicode hex="004B"/>
  <outline>
    <contour>
      <point x="47" y="0" type="line"/>
      <point x="322" y="0" type="line"/>
      <point x="322" y="35" type="line"/>
      <point x="282" y="35" type="line" smooth="yes"/>
      <point x="237" y="35"/>
      <point x="233" y="40"/>
      <point x="233" y="85" type="curve"/>
      <point x="232" y="236" type="line"/>
      <point x="308" y="322" type="line"/>
      <point x="474" y="88" type="line" smooth="yes"/>
      <point x="501" y="49"/>
      <point x="493" y="37"/>
      <point x="448" y="37" type="curve" smooth="yes"/>
      <point x="425" y="37" type="line"/>
      <point x="425" y="0" type="line"/>
      <point x="716" y="0" type="line"/>
      <point x="716" y="37" type="line"/>
      <point x="691" y="37" type="line" smooth="yes"/>
      <point x="635" y="37"/>
      <point x="630" y="42"/>
      <point x="586" y="104" type="curve" smooth="yes"/>
      <point x="375" y="397" type="line"/>
      <point x="537" y="581" type="line" smooth="yes"/>
      <point x="576" y="626"/>
      <point x="635" y="645"/>
      <point x="667" y="645" type="curve" smooth="yes"/>
      <point x="689" y="645" type="line"/>
      <point x="689" y="680" type="line"/>
      <point x="414" y="680" type="line"/>
      <point x="414" y="645" type="line"/>
      <point x="446" y="645" type="line" smooth="yes"/>
      <point x="526" y="645"/>
      <point x="517" y="620"/>
      <point x="469" y="566" type="curve" smooth="yes"/>
      <point x="232" y="297" type="line"/>
      <point x="232" y="595" type="line" smooth="yes"/>
      <point x="232" y="640"/>
      <point x="237" y="645"/>
      <point x="282" y="645" type="curve" smooth="yes"/>
      <point x="322" y="645" type="line"/>
      <point x="322" y="680" type="line"/>
      <point x="47" y="680" type="line"/>
      <point x="47" y="645" type="line"/>
      <point x="87" y="645" type="line" smooth="yes"/>
      <point x="132" y="645"/>
      <point x="137" y="640"/>
      <point x="137" y="595" type="curve" smooth="yes"/>
      <point x="137" y="85" type="line" smooth="yes"/>
      <point x="137" y="40"/>
      <point x="132" y="35"/>
      <point x="87" y="35" type="curve" smooth="yes"/>
      <point x="47" y="35" type="line"/>
    </contour>
  </outline>
</glyph>
<glyph name="L" format="2">
  <advance width="593"/>
  <unicode hex="004C"/>
  <outline>
    <contour>
      <point x="47" y="35" type="line"/>
      <point x="47" y="0" type="line"/>
      <point x="551" y="0" type="line"/>
      <point x="556" y="270" type="line"/>
      <point x="526" y="270" type="line"/>
      <point x="504" y="149"/>
      <point x="486" y="36"/>
      <point x="320" y="36" type="curve" smooth="yes"/>
      <point x="291" y="36" type="line" smooth="yes"/>
      <point x="263" y="36"/>
      <point x="232" y="53"/>
      <point x="232" y="84" type="curve" smooth="yes"/>
      <point x="232" y="595" type="line" smooth="yes"/>
      <point x="232" y="640"/>
      <point x="237" y="645"/>
      <point x="282" y="645" type="curve" smooth="yes"/>
      <point x="322" y="645" type="line"/>
      <point x="322" y="680" type="line"/>
      <point x="47" y="680" type="line"/>
      <point x="47" y="645" type="line"/>
      <point x="87" y="645" type="line" smooth="yes"/>
      <point x="132" y="645"/>
      <point x="137" y="640"/>
      <point x="137" y="595" type="curve" smooth="yes"/>
      <point x="137" y="85" type="line" smooth="yes"/>
      <point x="137" y="40"/>
      <point x="132" y="35"/>
      <point x="87" y="35" type="curve" smooth="yes"/>
    </contour>
  </outline>
</glyph>
<glyph name="M" format="2">
  <advance width="817"/>
  <unicode hex="004D"/>
  <outline>
    <contour>
      <point x="47" y="0" type="line"/>
      <point x="289" y="0" type="line"/>
      <point x="289" y="35" type="line"/>
      <point x="239" y="35" type="line" smooth="yes"/>
      <point x="194" y="35"/>
      <point x="189" y="40"/>
      <point x="189" y="85" type="curve" smooth="yes"/>
      <point x="189" y="549" type="line" smooth="yes"/>
      <point x="189" y="598"/>
      <point x="207" y="607"/>
      <point x="225" y="550" type="curve" smooth="yes"/>
      <point x="274" y="389" type="line" smooth="yes"/>
      <point x="318" y="246"/>
      <point x="369" y="45"/>
      <point x="376" y="15" type="curve"/>
      <point x="397" y="15" type="line"/>
      <point x="403" y="36"/>
      <point x="458" y="226"/>
      <point x="507" y="368" type="curve" smooth="yes"/>
      <point x="563" y="530" type="line" smooth="yes"/>
      <point x="572" y="556"/>
      <point x="585" y="538"/>
      <point x="585" y="528" type="curve" smooth="yes"/>
      <point x="585" y="85" type="line" smooth="yes"/>
      <point x="585" y="40"/>
      <point x="580" y="35"/>
      <point x="535" y="35" type="curve" smooth="yes"/>
      <point x="495" y="35" type="line"/>
      <point x="495" y="0" type="line"/>
      <point x="770" y="0" type="line"/>
      <point x="770" y="35" type="line"/>
      <point x="730" y="35" type="line" smooth="yes"/>
      <point x="685" y="35"/>
      <point x="680" y="40"/>
      <point x="680" y="85" type="curve" smooth="yes"/>
      <point x="680" y="595" type="line" smooth="yes"/>
      <point x="680" y="640"/>
      <point x="685" y="645"/>
      <point x="730" y="645" type="curve" smooth="yes"/>
      <point x="770" y="645" type="line"/>
      <point x="770" y="680" type="line"/>
      <point x="573" y="680" type="line"/>
      <point x="422" y="246" type="line"/>
      <point x="286" y="680" type="line"/>
      <point x="47" y="680" type="line"/>
      <point x="47" y="645" type="line"/>
      <point x="73" y="645" type="line" smooth="yes"/>
      <point x="129" y="645"/>
      <point x="147" y="639"/>
      <point x="147" y="568" type="curve" smooth="yes"/>
      <point x="147" y="85" type="line" smooth="yes"/>
      <point x="147" y="40"/>
      <point x="142" y="35"/>
      <point x="97" y="35" type="curve" smooth="yes"/>
      <point x="47" y="35" type="line"/>
    </contour>
  </outline>
</glyph>
<glyph name="N" format="2">
  <advance width="734"/>
  <unicode hex="004E"/>
  <outline>
    <contour>
      <point x="45" y="0" type="line"/>
      <point x="285" y="0" type="line"/>
      <point x="285" y="35" type="line"/>
      <point x="235" y="35" type="line" smooth="yes"/>
      <point x="190" y="35"/>
      <point x="185" y="40"/>
      <point x="185" y="85" type="curve" smooth="yes"/>
      <point x="185" y="498" type="line" smooth="yes"/>
      <point x="185" y="535"/>
      <point x="198" y="555"/>
      <point x="227" y="511" type="curve" smooth="yes"/>
      <point x="580" y="-12" type="line"/>
      <point x="606" y="-12" type="line"/>
      <point x="607" y="595" type="line"/>
      <point x="607" y="640"/>
      <point x="612" y="645"/>
      <point x="657" y="645" type="curve" smooth="yes"/>
      <point x="707" y="645" type="line"/>
      <point x="707" y="680" type="line"/>
      <point x="465" y="680" type="line"/>
      <point x="465" y="645" type="line"/>
      <point x="515" y="645" type="line" smooth="yes"/>
      <point x="560" y="645"/>
      <point x="567" y="640"/>
      <point x="567" y="595" type="curve" smooth="yes"/>
      <point x="567" y="178" type="line"/>
      <point x="228" y="680" type="line"/>
      <point x="45" y="680" type="line"/>
      <point x="45" y="645" type="line"/>
      <point x="70" y="645" type="line" smooth="yes"/>
      <point x="118" y="645"/>
      <point x="145" y="629"/>
      <point x="145" y="568" type="curve" smooth="yes"/>
      <point x="145" y="85" type="line" smooth="yes"/>
      <point x="145" y="40"/>
      <point x="140" y="35"/>
      <point x="95" y="35" type="curve" smooth="yes"/>
      <point x="45" y="35" type="line"/>
    </contour>
  </outline>
</glyph>
<glyph name="O" format="2">
  <advance width="658"/>
  <unicode hex="004F"/>
  <anchor x="330" y="750" name="t.dieresis"/>
  <anchor x="330" y="730" name="t.asciicircum_1"/>
  <outline>
    <contour>
      <point x="330" y="-12" type="curve" smooth="yes"/>
      <point x="510" y="-12"/>
      <point x="612" y="146"/>
      <point x="612" y="340" type="curve" smooth="yes"/>
      <point x="612" y="535"/>
      <point x="510" y="692"/>
      <point x="330" y="692" type="curve" smooth="yes"/>
      <point x="150" y="692"/>
      <point x="47" y="535"/>
      <point x="47" y="340" type="curve" smooth="yes"/>
      <point x="47" y="146"/>
      <point x="150" y="-12"/>
    </contour>
    <contour>
      <point x="330" y="20" type="curve" smooth="yes"/>
      <point x="240" y="20"/>
      <point x="164" y="90"/>
      <point x="164" y="340" type="curve" smooth="yes"/>
      <point x="164" y="590"/>
      <point x="240" y="660"/>
      <point x="330" y="660" type="curve" smooth="yes"/>
      <point x="420" y="660"/>
      <point x="495" y="590"/>
      <point x="495" y="340" type="curve" smooth="yes"/>
      <point x="495" y="90"/>
      <point x="420" y="20"/>
    </contour>
  </outline>
</glyph>
<glyph name="Q" format="2">
  <advance width="658"/>
  <unicode hex="0051"/>
  <outline>
    <contour>
      <point x="588" y="-22" type="line"/>
      <point x="498" y="-154"/>
      <point x="431" y="-101"/>
      <point x="330" y="-12" type="curve"/>
      <point x="510" y="-12"/>
      <point x="612" y="146"/>
      <point x="612" y="340" type="curve" smooth="yes"/>
      <point x="612" y="535"/>
      <point x="510" y="692"/>
      <point x="330" y="692" type="curve" smooth="yes"/>
      <point x="150" y="692"/>
      <point x="47" y="535"/>
      <point x="47" y="340" type="curve" smooth="yes"/>
      <point x="47" y="204"/>
      <point x="98" y="86"/>
      <point x="190" y="27" type="curve"/>
      <point x="130" y="12"/>
      <point x="94" y="-51"/>
      <point x="61" y="-115" type="curve"/>
      <point x="82" y="-125" type="line"/>
      <point x="146" y="-12"/>
      <point x="211" y="-17"/>
      <point x="279" y="-87" type="curve" smooth="yes"/>
      <point x="384" y="-196"/>
      <point x="522" y="-249"/>
      <point x="607" y="-35" type="curve"/>
    </contour>
    <contour>
      <point x="330" y="20" type="curve" smooth="yes"/>
      <point x="240" y="20"/>
      <point x="164" y="90"/>
      <point x="164" y="340" type="curve" smooth="yes"/>
      <point x="164" y="590"/>
      <point x="240" y="660"/>
      <point x="330" y="660" type="curve" smooth="yes"/>
      <point x="420" y="660"/>
      <point x="495" y="590"/>
      <point x="495" y="340" type="curve" smooth="yes"/>
      <point x="495" y="90"/>
      <point x="420" y="20"/>
    </contour>
  </outline>
</glyph>
<glyph name="S" format="2">
  <advance width="621"/>
  <unicode hex="0053"/>
  <outline>
    <contour>
      <point x="316" y="27" type="curve" smooth="yes"/>
      <point x="221" y="27"/>
      <point x="118" y="94"/>
      <point x="98" y="287" type="curve"/>
      <point x="58" y="287" type="line"/>
      <point x="58" y="-12" type="line"/>
      <point x="93" y="-12" type="line"/>
      <point x="101" y="3" type="line" smooth="yes"/>
      <point x="123" y="44"/>
      <point x="135" y="53"/>
      <point x="175" y="29" type="curve" smooth="yes"/>
      <point x="223" y="1"/>
      <point x="268" y="-12"/>
      <point x="321" y="-12" type="curve" smooth="yes"/>
      <point x="464" y="-12"/>
      <point x="563" y="76"/>
      <point x="563" y="189" type="curve" smooth="yes"/>
      <point x="563" y="312"/>
      <point x="470" y="374"/>
      <point x="349" y="416" type="curve" smooth="yes"/>
      <point x="276" y="441" type="line" smooth="yes"/>
      <point x="210" y="464"/>
      <point x="154" y="503"/>
      <point x="154" y="568" type="curve" smooth="yes"/>
      <point x="154" y="617"/>
      <point x="206" y="656"/>
      <point x="282" y="656" type="curve" smooth="yes"/>
      <point x="353" y="656"/>
      <point x="457" y="619"/>
      <point x="484" y="446" type="curve"/>
      <point x="524" y="446" type="line"/>
      <point x="524" y="692" type="line"/>
      <point x="489" y="692" type="line"/>
      <point x="481" y="677" type="line" smooth="yes"/>
      <point x="461" y="640"/>
      <point x="446" y="638"/>
      <point x="405" y="660" type="curve" smooth="yes"/>
      <point x="378" y="675"/>
      <point x="335" y="692"/>
      <point x="282" y="692" type="curve" smooth="yes"/>
      <point x="146" y="692"/>
      <point x="61" y="606"/>
      <point x="61" y="511" type="curve" smooth="yes"/>
      <point x="61" y="417"/>
      <point x="145" y="366"/>
      <point x="239" y="333" type="curve" smooth="yes"/>
      <point x="331" y="302" type="line" smooth="yes"/>
      <point x="426" y="270"/>
      <point x="478" y="222"/>
      <point x="478" y="146" type="curve" smooth="yes"/>
      <point x="478" y="93"/>
      <point x="434" y="27"/>
    </contour>
  </outline>
</glyph>
<glyph name="T" format="2">
  <advance width="630"/>
  <unicode hex="0054"/>
  <outline>
    <contour>
      <point x="413" y="644" type="curve" smooth="yes"/>
      <point x="426" y="644" type="line" smooth="yes"/>
      <point x="502" y="644"/>
      <point x="533" y="558"/>
      <point x="562" y="430" type="curve" name="hr01"/>
      <point x="592" y="430" type="line"/>
      <point x="586" y="680" type="line"/>
      <point x="44" y="680" type="line"/>
      <point x="38" y="430" type="line"/>
      <point x="68" y="430" type="line"/>
      <point x="97" y="558"/>
      <point x="128" y="644" name="hr02"/>
      <point x="204" y="644" type="curve" smooth="yes"/>
      <point x="217" y="644" type="line" smooth="yes"/>
      <point x="252" y="644"/>
      <point x="267" y="629"/>
      <point x="267" y="594" type="curve"/>
      <point x="268" y="85" type="line"/>
      <point x="268" y="50"/>
      <point x="253" y="35"/>
      <point x="218" y="35" type="curve" smooth="yes"/>
      <point x="178" y="35" type="line"/>
      <point x="178" y="0" type="line"/>
      <point x="453" y="0" type="line"/>
      <point x="453" y="35" type="line"/>
      <point x="413" y="35" type="line" smooth="yes"/>
      <point x="378" y="35"/>
      <point x="363" y="50"/>
      <point x="363" y="85" type="curve" smooth="yes"/>
      <point x="363" y="594" type="line" smooth="yes"/>
      <point x="363" y="629"/>
      <point x="378" y="644"/>
    </contour>
  </outline>
</glyph>
<glyph name="U" format="2">
  <advance width="692"/>
  <unicode hex="0055"/>
  <anchor x="366" y="750" name="t.dieresis"/>
  <anchor x="366" y="730" name="t.asciicircum_1"/>
  <outline>
    <contour>
      <point x="118" y="269" type="line" smooth="yes"/>
      <point x="118" y="69"/>
      <point x="198" y="-12"/>
      <point x="338" y="-12" type="curve" smooth="yes"/>
      <point x="525" y="-12"/>
      <point x="564" y="118"/>
      <point x="564" y="257" type="curve"/>
      <point x="565" y="595" type="line"/>
      <point x="565" y="640"/>
      <point x="570" y="645"/>
      <point x="615" y="645" type="curve" smooth="yes"/>
      <point x="665" y="645" type="line"/>
      <point x="665" y="680" type="line"/>
      <point x="424" y="680" type="line"/>
      <point x="424" y="645" type="line"/>
      <point x="474" y="645" type="line" smooth="yes"/>
      <point x="519" y="645"/>
      <point x="524" y="640"/>
      <point x="524" y="595" type="curve" smooth="yes"/>
      <point x="524" y="274" type="line" smooth="yes"/>
      <point x="524" y="154"/>
      <point x="496" y="31"/>
      <point x="360" y="31" type="curve" smooth="yes"/>
      <point x="244" y="31"/>
      <point x="223" y="128"/>
      <point x="223" y="288" type="curve" smooth="yes"/>
      <point x="223" y="595" type="line" smooth="yes"/>
      <point x="223" y="640"/>
      <point x="228" y="645"/>
      <point x="273" y="645" type="curve" smooth="yes"/>
      <point x="313" y="645" type="line"/>
      <point x="313" y="680" type="line"/>
      <point x="28" y="680" type="line"/>
      <point x="28" y="645" type="line"/>
      <point x="68" y="645" type="line" smooth="yes"/>
      <point x="113" y="645"/>
      <point x="118" y="640"/>
      <point x="118" y="595" type="curve" smooth="yes"/>
    </contour>
  </outline>
</glyph>
<glyph name="V" format="2">
  <advance width="732"/>
  <unicode hex="0056"/>
  <anchor x="426" y="750" name="t.dieresis"/>
  <anchor x="426" y="720" name="t.asciicircum_1"/>
  <outline>
    <contour>
      <point x="330" y="-12" type="line"/>
      <point x="122" y="574" type="line" smooth="yes"/>
      <point x="97" y="643"/>
      <point x="88" y="645"/>
      <point x="40" y="645" type="curve" smooth="yes"/>
      <point x="16" y="645" type="line"/>
      <point x="16" y="680" type="line"/>
      <point x="304" y="680" type="line"/>
      <point x="304" y="645" type="line"/>
      <point x="270" y="645" type="line" smooth="yes"/>
      <point x="222" y="645"/>
      <point x="209" y="636"/>
      <point x="232" y="570" type="curve" smooth="yes"/>
      <point x="386" y="134" type="line"/>
      <point x="556" y="579" type="line" smooth="yes"/>
      <point x="580" y="641"/>
      <point x="561" y="645"/>
      <point x="508" y="645" type="curve" smooth="yes"/>
      <point x="466" y="645" type="line"/>
      <point x="466" y="680" type="line"/>
      <point x="716" y="680" type="line"/>
      <point x="716" y="645" type="line"/>
      <point x="684" y="645" type="line" smooth="yes"/>
      <point x="636" y="645"/>
      <point x="623" y="643"/>
      <point x="600" y="584" type="curve" smooth="yes"/>
      <point x="368" y="-12" type="line"/>
    </contour>
  </outline>
</glyph>
<glyph name="W" format="2">
  <advance width="964"/>
  <unicode hex="0057"/>
  <outline>
    <contour>
      <point x="311" y="-12" type="line"/>
      <point x="336" y="-12" type="line"/>
      <point x="487" y="420" type="line"/>
      <point x="625" y="-12" type="line"/>
      <point x="646" y="-12" type="line"/>
      <point x="646" y="-13" type="line"/>
      <point x="828" y="570" type="line" smooth="yes"/>
      <point x="849" y="637"/>
      <point x="868" y="645"/>
      <point x="907" y="645" type="curve" smooth="yes"/>
      <point x="948" y="645" type="line"/>
      <point x="948" y="680" type="line"/>
      <point x="685" y="680" type="line"/>
      <point x="685" y="645" type="line"/>
      <point x="738" y="645" type="line" smooth="yes"/>
      <point x="797" y="645"/>
      <point x="805" y="637"/>
      <point x="785" y="572" type="curve" smooth="yes"/>
      <point x="663" y="183" type="line"/>
      <point x="535" y="588" type="line" smooth="yes"/>
      <point x="521" y="631"/>
      <point x="530" y="645"/>
      <point x="580" y="645" type="curve" smooth="yes"/>
      <point x="613" y="645" type="line"/>
      <point x="613" y="680" type="line"/>
      <point x="370" y="680" type="line"/>
      <point x="370" y="645" type="line"/>
      <point x="384" y="645" type="line" smooth="yes"/>
      <point x="407" y="645"/>
      <point x="416" y="642"/>
      <point x="424" y="616" type="curve" smooth="yes"/>
      <point x="466" y="484" type="line"/>
      <point x="354" y="169" type="line"/>
      <point x="223" y="589" type="line" smooth="yes"/>
      <point x="208" y="637"/>
      <point x="225" y="645"/>
      <point x="270" y="645" type="curve" smooth="yes"/>
      <point x="302" y="645" type="line"/>
      <point x="302" y="680" type="line"/>
      <point x="16" y="680" type="line"/>
      <point x="16" y="645" type="line"/>
      <point x="46" y="645" type="line" smooth="yes"/>
      <point x="95" y="645"/>
      <point x="105" y="643"/>
      <point x="126" y="576" type="curve" smooth="yes"/>
    </contour>
  </outline>
</glyph>
<glyph name="X" format="2">
  <advance width="704"/>
  <unicode hex="0058"/>
  <outline>
    <contour>
      <point x="16" y="0" type="line"/>
      <point x="268" y="0" type="line"/>
      <point x="268" y="35" type="line"/>
      <point x="222" y="35" type="line" smooth="yes"/>
      <point x="170" y="35"/>
      <point x="149" y="45"/>
      <point x="196" y="111" type="curve" smooth="yes"/>
      <point x="330" y="301" type="line"/>
      <point x="452" y="108" type="line" smooth="yes"/>
      <point x="486" y="54"/>
      <point x="480" y="35"/>
      <point x="426" y="35" type="curve" smooth="yes"/>
      <point x="396" y="35" type="line"/>
      <point x="396" y="0" type="line"/>
      <point x="688" y="0" type="line"/>
      <point x="688" y="35" type="line"/>
      <point x="658" y="35" type="line" smooth="yes"/>
      <point x="617" y="35"/>
      <point x="610" y="37"/>
      <point x="582" y="81" type="curve" smooth="yes"/>
      <point x="392" y="380" type="line"/>
      <point x="538" y="588" type="line" smooth="yes"/>
      <point x="574" y="640"/>
      <point x="588" y="645"/>
      <point x="628" y="645" type="curve" smooth="yes"/>
      <point x="664" y="645" type="line"/>
      <point x="664" y="680" type="line"/>
      <point x="416" y="680" type="line"/>
      <point x="416" y="645" type="line"/>
      <point x="462" y="645" type="line" smooth="yes"/>
      <point x="517" y="645"/>
      <point x="520" y="633"/>
      <point x="476" y="571" type="curve" smooth="yes"/>
      <point x="368" y="417" type="line"/>
      <point x="262" y="587" type="line" smooth="yes"/>
      <point x="230" y="638"/>
      <point x="240" y="645"/>
      <point x="290" y="645" type="curve" smooth="yes"/>
      <point x="318" y="645" type="line"/>
      <point x="318" y="680" type="line"/>
      <point x="36" y="680" type="line"/>
      <point x="36" y="645" type="line"/>
      <point x="72" y="645" type="line" smooth="yes"/>
      <point x="104" y="645"/>
      <point x="117" y="638"/>
      <point x="144" y="595" type="curve" smooth="yes"/>
      <point x="306" y="339" type="line"/>
      <point x="134" y="93" type="line" smooth="yes"/>
      <point x="98" y="42"/>
      <point x="90" y="35"/>
      <point x="42" y="35" type="curve" smooth="yes"/>
      <point x="16" y="35" type="line"/>
    </contour>
  </outline>
</glyph>
<glyph name="Y" format="2">
  <advance width="692"/>
  <unicode hex="0059"/>
  <anchor x="372" y="750" name="t.dieresis"/>
  <anchor x="372" y="730" name="t.asciicircum_1"/>
  <outline>
    <contour>
      <point x="212" y="0" type="line"/>
      <point x="488" y="0" type="line"/>
      <point x="488" y="35" type="line"/>
      <point x="448" y="35" type="line" smooth="yes"/>
      <point x="413" y="35"/>
      <point x="398" y="50"/>
      <point x="398" y="85" type="curve" smooth="yes"/>
      <point x="398" y="313" type="line"/>
      <point x="552" y="590" type="line" smooth="yes"/>
      <point x="577" y="635"/>
      <point x="584" y="645"/>
      <point x="626" y="645" type="curve" smooth="yes"/>
      <point x="676" y="645" type="line"/>
      <point x="676" y="680" type="line"/>
      <point x="450" y="680" type="line"/>
      <point x="450" y="645" type="line"/>
      <point x="484" y="645" type="line" smooth="yes"/>
      <point x="530" y="645"/>
      <point x="539" y="642"/>
      <point x="510" y="590" type="curve" smooth="yes"/>
      <point x="378" y="353" type="line"/>
      <point x="240" y="600" type="line"/>
      <point x="224" y="632"/>
      <point x="229" y="645"/>
      <point x="266" y="645" type="curve" smooth="yes"/>
      <point x="302" y="645" type="line"/>
      <point x="302" y="680" type="line"/>
      <point x="16" y="680" type="line"/>
      <point x="16" y="645" type="line"/>
      <point x="62" y="645" type="line" smooth="yes"/>
      <point x="103" y="645"/>
      <point x="110" y="640"/>
      <point x="132" y="600" type="curve" smooth="yes"/>
      <point x="302" y="295" type="line"/>
      <point x="302" y="85" type="line" smooth="yes"/>
      <point x="302" y="50"/>
      <point x="287" y="35"/>
      <point x="252" y="35" type="curve" smooth="yes"/>
      <point x="212" y="35" type="line"/>
    </contour>
  </outline>
</glyph>
<glyph name="Z" format="2">
  <advance width="585"/>
  <unicode hex="005A"/>
  <outline>
    <contour>
      <point x="38" y="0" type="line"/>
      <point x="539" y="0" type="line"/>
      <point x="547" y="253" type="line"/>
      <point x="517" y="253" type="line"/>
      <point x="488" y="132"/>
      <point x="431" y="36"/>
      <point x="305" y="36" type="curve" smooth="yes"/>
      <point x="191" y="36" type="line" smooth="yes"/>
      <point x="168" y="36"/>
      <point x="164" y="47"/>
      <point x="177" y="70" type="curve" smooth="yes"/>
      <point x="512" y="660" type="line"/>
      <point x="512" y="680" type="line"/>
      <point x="66" y="680" type="line"/>
      <point x="57" y="442" type="line"/>
      <point x="87" y="442" type="line"/>
      <point x="122" y="579"/>
      <point x="158" y="644"/>
      <point x="285" y="644" type="curve" smooth="yes"/>
      <point x="348" y="644" type="line" smooth="yes"/>
      <point x="367" y="644"/>
      <point x="390" y="638"/>
      <point x="375" y="610" type="curve"/>
      <point x="38" y="20" type="line"/>
    </contour>
  </outline>
</glyph>
<glyph name="bracketleft" format="2">
  <advance width="288"/>
  <unicode hex="005B"/>
  <outline>
    <contour>
      <point x="40" y="-179" type="line"/>
      <point x="253" y="-179" type="line"/>
      <point x="253" y="-144" type="line"/>
      <point x="160" y="-144" type="line" smooth="yes"/>
      <point x="125" y="-144"/>
      <point x="110" y="-130"/>
      <point x="110" y="-95" type="curve" smooth="yes"/>
      <point x="110" y="656" type="line" smooth="yes"/>
      <point x="110" y="691"/>
      <point x="125" y="705"/>
      <point x="160" y="705" type="curve" smooth="yes"/>
      <point x="253" y="705" type="line"/>
      <point x="253" y="740" type="line"/>
      <point x="40" y="740" type="line"/>
    </contour>
  </outline>
</glyph>
<glyph name="bracketright" format="2">
  <advance width="288"/>
  <unicode hex="005D"/>
  <outline>
    <contour>
      <point x="40" y="-179" type="line"/>
      <point x="253" y="-179" type="line"/>
      <point x="253" y="760" type="line"/>
      <point x="40" y="760" type="line"/>
      <point x="40" y="725" type="line"/>
      <point x="133" y="725" type="line" smooth="yes"/>
      <point x="168" y="725"/>
      <point x="183" y="711"/>
      <point x="183" y="676" type="curve" smooth="yes"/>
      <point x="183" y="-95" type="line" smooth="yes"/>
      <point x="183" y="-130"/>
      <point x="168" y="-144"/>
      <point x="133" y="-144" type="curve" smooth="yes"/>
      <point x="40" y="-144" type="line"/>
    </contour>
  </outline>
</glyph>
<glyph name="asciicircum" format="2">
  <advance width="339"/>
  <unicode hex="005E"/>
  <outline>
    <contour>
      <point x="24" y="523" type="line"/>
      <point x="59" y="544"/>
      <point x="123" y="589"/>
      <point x="170" y="628" type="curve"/>
      <point x="216" y="589"/>
      <point x="280" y="544"/>
      <point x="315" y="523" type="curve"/>
      <point x="323" y="545" type="line"/>
      <point x="283" y="582"/>
      <point x="224" y="655"/>
      <point x="200" y="702" type="curve"/>
      <point x="139" y="702" type="line"/>
      <point x="115" y="655"/>
      <point x="56" y="582"/>
      <point x="16" y="545" type="curve"/>
    </contour>
  </outline>
</glyph>
<glyph name="grave" format="2">
  <advance width="252"/>
  <unicode hex="0060"/>
  <anchor x="129" y="530" name="_t.asciicircum_1"/>
  <outline>
    <contour>
      <point x="23" y="686" type="line"/>
      <point x="65" y="646"/>
      <point x="171" y="564"/>
      <point x="227" y="532" type="curve"/>
      <point x="235" y="554" type="line"/>
      <point x="201" y="594"/>
      <point x="159" y="662"/>
      <point x="141" y="706" type="curve"/>
      <point x="30" y="706" type="line"/>
    </contour>
  </outline>
</glyph>
<glyph name="a" format="2">
  <advance width="515"/>
  <unicode hex="0061"/>
  <anchor x="245" y="530" name="t.dieresis"/>
  <anchor x="245" y="524" name="t.asciicircum_1"/>
  <outline>
    <contour>
      <point x="239" y="270" type="line" smooth="yes"/>
      <point x="132" y="244"/>
      <point x="41" y="206"/>
      <point x="41" y="107" type="curve" smooth="yes"/>
      <point x="41" y="39"/>
      <point x="96" y="-12"/>
      <point x="172" y="-12" type="curve" smooth="yes"/>
      <point x="251" y="-12"/>
      <point x="302" y="28"/>
      <point x="329" y="66" type="curve"/>
      <point x="340" y="18"/>
      <point x="367" y="-12"/>
      <point x="421" y="-12" type="curve" smooth="yes"/>
      <point x="468" y="-12"/>
      <point x="512" y="28"/>
      <point x="522" y="92" type="curve"/>
      <point x="498" y="98" type="line"/>
      <point x="489" y="59"/>
      <point x="473" y="34"/>
      <point x="449" y="34" type="curve" smooth="yes"/>
      <point x="425" y="34"/>
      <point x="413" y="55"/>
      <point x="413" y="124" type="curve" smooth="yes"/>
      <point x="413" y="316" type="line" smooth="yes"/>
      <point x="413" y="400"/>
      <point x="349" y="462"/>
      <point x="241" y="462" type="curve" smooth="yes"/>
      <point x="118" y="462"/>
      <point x="67" y="402"/>
      <point x="67" y="357" type="curve" smooth="yes"/>
      <point x="67" y="326"/>
      <point x="83" y="296"/>
      <point x="122" y="296" type="curve" smooth="yes"/>
      <point x="148" y="296"/>
      <point x="168" y="317"/>
      <point x="168" y="343" type="curve" smooth="yes"/>
      <point x="168" y="366"/>
      <point x="148" y="379"/>
      <point x="148" y="394" type="curve" smooth="yes"/>
      <point x="148" y="417"/>
      <point x="176" y="431"/>
      <point x="233" y="431" type="curve" smooth="yes"/>
      <point x="303" y="431"/>
      <point x="323" y="377"/>
      <point x="323" y="301" type="curve" smooth="yes"/>
      <point x="323" y="290" type="line"/>
    </contour>
    <contour>
      <point x="323" y="132" type="line" smooth="yes"/>
      <point x="323" y="81"/>
      <point x="255" y="24"/>
      <point x="208" y="24" type="curve" smooth="yes"/>
      <point x="160" y="24"/>
      <point x="142" y="56"/>
      <point x="142" y="118" type="curve" smooth="yes"/>
      <point x="142" y="185"/>
      <point x="164" y="222"/>
      <point x="257" y="245" type="curve" smooth="yes"/>
      <point x="323" y="261" type="line"/>
    </contour>
  </outline>
</glyph>
<glyph name="b" format="2">
  <advance width="518"/>
  <unicode hex="0062"/>
  <outline>
    <contour>
      <point x="91" y="-12" type="line"/>
      <point x="116" y="-12" type="line"/>
      <point x="166" y="85" type="line"/>
      <point x="166" y="85"/>
      <point x="167" y="87"/>
      <point x="169" y="87" type="curve" smooth="yes"/>
      <point x="172" y="87"/>
      <point x="173" y="85"/>
      <point x="173" y="85" type="curve"/>
      <point x="201" y="27"/>
      <point x="236" y="-12"/>
      <point x="301" y="-12" type="curve" smooth="yes"/>
      <point x="397" y="-12"/>
      <point x="478" y="75"/>
      <point x="478" y="225" type="curve" smooth="yes"/>
      <point x="478" y="375"/>
      <point x="402" y="462"/>
      <point x="309" y="462" type="curve" smooth="yes"/>
      <point x="264" y="462"/>
      <point x="215" y="431"/>
      <point x="184" y="368" type="curve"/>
      <point x="184" y="368"/>
      <point x="183" y="365"/>
      <point x="180" y="365" type="curve" smooth="yes"/>
      <point x="176" y="365"/>
      <point x="176" y="368"/>
      <point x="176" y="368" type="curve"/>
      <point x="176" y="680" type="line"/>
      <point x="11" y="680" type="line"/>
      <point x="11" y="645" type="line"/>
      <point x="41" y="645" type="line" smooth="yes"/>
      <point x="86" y="645"/>
      <point x="91" y="640"/>
      <point x="91" y="595" type="curve" smooth="yes"/>
    </contour>
    <contour>
      <point x="289" y="19" type="curve" smooth="yes"/>
      <point x="236" y="19"/>
      <point x="181" y="79"/>
      <point x="181" y="225" type="curve" smooth="yes"/>
      <point x="181" y="329"/>
      <point x="230" y="429"/>
      <point x="292" y="429" type="curve" smooth="yes"/>
      <point x="344" y="429"/>
      <point x="375" y="360"/>
      <point x="375" y="225" type="curve" smooth="yes"/>
      <point x="375" y="90"/>
      <point x="336" y="19"/>
    </contour>
  </outline>
</glyph>
<glyph name="c" format="2">
  <advance width="431"/>
  <unicode hex="0063"/>
  <outline>
    <contour>
      <point x="370" y="122" type="line"/>
      <point x="339" y="59"/>
      <point x="301" y="24"/>
      <point x="254" y="24" type="curve" smooth="yes"/>
      <point x="197" y="24"/>
      <point x="140" y="75"/>
      <point x="140" y="225" type="curve" smooth="yes"/>
      <point x="140" y="375"/>
      <point x="181" y="433"/>
      <point x="244" y="433" type="curve" smooth="yes"/>
      <point x="291" y="433"/>
      <point x="314" y="412"/>
      <point x="314" y="394" type="curve" smooth="yes"/>
      <point x="314" y="376"/>
      <point x="278" y="366"/>
      <point x="278" y="326" type="curve" smooth="yes"/>
      <point x="278" y="293"/>
      <point x="305" y="266"/>
      <point x="338" y="266" type="curve" smooth="yes"/>
      <point x="373" y="266"/>
      <point x="396" y="298"/>
      <point x="396" y="333" type="curve" smooth="yes"/>
      <point x="396" y="393"/>
      <point x="338" y="462"/>
      <point x="240" y="462" type="curve" smooth="yes"/>
      <point x="114" y="462"/>
      <point x="32" y="355"/>
      <point x="32" y="225" type="curve" smooth="yes"/>
      <point x="32" y="95"/>
      <point x="114" y="-12"/>
      <point x="238" y="-12" type="curve" smooth="yes"/>
      <point x="320" y="-12"/>
      <point x="371" y="45"/>
      <point x="400" y="114" type="curve"/>
    </contour>
  </outline>
</glyph>
<glyph name="f" format="2">
  <advance width="343"/>
  <unicode hex="0066"/>
  <outline>
    <contour>
      <point x="28" y="0" type="line"/>
      <point x="298" y="0" type="line"/>
      <point x="298" y="35" type="line"/>
      <point x="248" y="35" type="line" smooth="yes"/>
      <point x="203" y="35"/>
      <point x="198" y="40"/>
      <point x="198" y="85" type="curve" smooth="yes"/>
      <point x="198" y="415" type="line"/>
      <point x="307" y="415" type="line"/>
      <point x="307" y="450" type="line"/>
      <point x="198" y="450" type="line"/>
      <point x="198" y="594" type="line" smooth="yes"/>
      <point x="198" y="658"/>
      <point x="228" y="681"/>
      <point x="271" y="681" type="curve" smooth="yes"/>
      <point x="300" y="681"/>
      <point x="329" y="670"/>
      <point x="329" y="650" type="curve" smooth="yes"/>
      <point x="329" y="629"/>
      <point x="299" y="612"/>
      <point x="299" y="578" type="curve" smooth="yes"/>
      <point x="299" y="546"/>
      <point x="326" y="527"/>
      <point x="351" y="527" type="curve" smooth="yes"/>
      <point x="385" y="527"/>
      <point x="409" y="557"/>
      <point x="409" y="590" type="curve" smooth="yes"/>
      <point x="409" y="654"/>
      <point x="348" y="710"/>
      <point x="268" y="710" type="curve" smooth="yes"/>
      <point x="185" y="710"/>
      <point x="108" y="654"/>
      <point x="108" y="540" type="curve" smooth="yes"/>
      <point x="108" y="450" type="line"/>
      <point x="24" y="450" type="line"/>
      <point x="24" y="415" type="line"/>
      <point x="108" y="415" type="line"/>
      <point x="108" y="85" type="line" smooth="yes"/>
      <point x="108" y="40"/>
      <point x="103" y="35"/>
      <point x="58" y="35" type="curve" smooth="yes"/>
      <point x="28" y="35" type="line"/>
    </contour>
  </outline>
</glyph>
<glyph name="h" format="2">
  <advance width="540"/>
  <unicode hex="0068"/>
  <outline>
    <contour>
      <point x="186" y="364" type="curve"/>
      <point x="174" y="364" type="line"/>
      <point x="174" y="390" type="line" smooth="yes"/>
      <point x="174" y="480"/>
      <point x="182" y="680"/>
      <point x="182" y="680" type="curve"/>
      <point x="12" y="680" type="line"/>
      <point x="12" y="645" type="line"/>
      <point x="42" y="645" type="line" smooth="yes"/>
      <point x="87" y="645"/>
      <point x="92" y="640"/>
      <point x="92" y="595" type="curve" smooth="yes"/>
      <point x="92" y="85" type="line" smooth="yes"/>
      <point x="92" y="40"/>
      <point x="87" y="35"/>
      <point x="42" y="35" type="curve" smooth="yes"/>
      <point x="22" y="35" type="line"/>
      <point x="22" y="0" type="line"/>
      <point x="238" y="0" type="line"/>
      <point x="238" y="35" type="line"/>
      <point x="228" y="35" type="line" smooth="yes"/>
      <point x="183" y="35"/>
      <point x="178" y="40" name="hr01"/>
      <point x="178" y="85" type="curve" smooth="yes"/>
      <point x="178" y="236" type="line" smooth="yes"/>
      <point x="178" y="296"/>
      <point x="218" y="418"/>
      <point x="296" y="418" type="curve" smooth="yes"/>
      <point x="344" y="418"/>
      <point x="374" y="382"/>
      <point x="374" y="275" type="curve" smooth="yes"/>
      <point x="374" y="85" type="line" smooth="yes"/>
      <point x="374" y="40"/>
      <point x="369" y="35"/>
      <point x="324" y="35" type="curve" smooth="yes"/>
      <point x="314" y="35" type="line"/>
      <point x="314" y="0" type="line"/>
      <point x="524" y="0" type="line"/>
      <point x="524" y="35" type="line"/>
      <point x="514" y="35" type="line" smooth="yes"/>
      <point x="469" y="35"/>
      <point x="464" y="40"/>
      <point x="464" y="85" type="curve" smooth="yes"/>
      <point x="464" y="279" type="line" smooth="yes"/>
      <point x="464" y="383"/>
      <point x="419" y="462"/>
      <point x="324" y="462" type="curve" smooth="yes"/>
      <point x="256" y="462"/>
      <point x="212" y="419"/>
    </contour>
  </outline>
</glyph>
<glyph name="j" format="2">
  <advance width="288"/>
  <unicode hex="006A"/>
  <outline>
    <contour>
      <point x="138" y="-117" type="line" smooth="yes"/>
      <point x="138" y="-170"/>
      <point x="115" y="-199"/>
      <point x="78" y="-199" type="curve" smooth="yes"/>
      <point x="46" y="-199"/>
      <point x="24" y="-185"/>
      <point x="24" y="-168" type="curve" smooth="yes"/>
      <point x="24" y="-145"/>
      <point x="66" y="-147"/>
      <point x="66" y="-102" type="curve" smooth="yes"/>
      <point x="66" y="-68"/>
      <point x="42" y="-46"/>
      <point x="14" y="-46" type="curve" smooth="yes"/>
      <point x="-24" y="-46"/>
      <point x="-44" y="-80"/>
      <point x="-44" y="-118" type="curve" smooth="yes"/>
      <point x="-44" y="-185"/>
      <point x="19" y="-228"/>
      <point x="82" y="-228" type="curve" smooth="yes"/>
      <point x="161" y="-228"/>
      <point x="228" y="-161"/>
      <point x="228" y="-63" type="curve" smooth="yes"/>
      <point x="228" y="450" type="line"/>
      <point x="58" y="450" type="line"/>
      <point x="58" y="415" type="line"/>
      <point x="88" y="415" type="line" smooth="yes"/>
      <point x="133" y="415"/>
      <point x="138" y="410"/>
      <point x="138" y="365" type="curve" smooth="yes"/>
    </contour>
    <contour>
      <point x="170" y="558" type="curve" smooth="yes"/>
      <point x="202" y="558"/>
      <point x="228" y="584"/>
      <point x="228" y="616" type="curve" smooth="yes"/>
      <point x="228" y="648"/>
      <point x="202" y="674"/>
      <point x="170" y="674" type="curve" smooth="yes"/>
      <point x="138" y="674"/>
      <point x="112" y="648"/>
      <point x="112" y="616" type="curve" smooth="yes"/>
      <point x="112" y="584"/>
      <point x="138" y="558"/>
    </contour>
  </outline>
</glyph>
<glyph name="l" format="2">
  <advance width="293"/>
  <unicode hex="006C"/>
  <outline>
    <contour>
      <point x="22" y="0" type="line"/>
      <point x="272" y="0" type="line"/>
      <point x="272" y="35" type="line"/>
      <point x="242" y="35" type="line" smooth="yes"/>
      <point x="197" y="35"/>
      <point x="192" y="40"/>
      <point x="192" y="85" type="curve" smooth="yes"/>
      <point x="192" y="680" type="line"/>
      <point x="22" y="680" type="line"/>
      <point x="22" y="645" type="line"/>
      <point x="52" y="645" type="line" smooth="yes"/>
      <point x="97" y="645"/>
      <point x="102" y="640"/>
      <point x="102" y="595" type="curve" smooth="yes"/>
      <point x="102" y="85" type="line" smooth="yes"/>
      <point x="102" y="40"/>
      <point x="97" y="35"/>
      <point x="52" y="35" type="curve" smooth="yes"/>
      <point x="22" y="35" type="line"/>
    </contour>
  </outline>
</glyph>
<glyph name="n" format="2">
  <advance width="555"/>
  <unicode hex="006E"/>
  <anchor x="268" y="520" name="t.asciicircum_1"/>
  <outline>
    <contour>
      <point x="32" y="0" type="line"/>
      <point x="247" y="0" type="line"/>
      <point x="247" y="35" type="line"/>
      <point x="237" y="35" type="line" smooth="yes"/>
      <point x="192" y="35"/>
      <point x="187" y="40"/>
      <point x="187" y="85" type="curve" smooth="yes"/>
      <point x="187" y="236" type="line" smooth="yes"/>
      <point x="187" y="296"/>
      <point x="227" y="418"/>
      <point x="305" y="418" type="curve" smooth="yes"/>
      <point x="353" y="418"/>
      <point x="383" y="382"/>
      <point x="383" y="275" type="curve" smooth="yes"/>
      <point x="383" y="85" type="line" smooth="yes"/>
      <point x="383" y="40"/>
      <point x="378" y="35"/>
      <point x="333" y="35" type="curve" smooth="yes"/>
      <point x="323" y="35" type="line"/>
      <point x="323" y="0" type="line"/>
      <point x="533" y="0" type="line"/>
      <point x="533" y="35" type="line"/>
      <point x="523" y="35" type="line" smooth="yes"/>
      <point x="478" y="35"/>
      <point x="473" y="40"/>
      <point x="473" y="85" type="curve" smooth="yes"/>
      <point x="473" y="279" type="line" smooth="yes"/>
      <point x="473" y="383"/>
      <point x="429" y="462"/>
      <point x="334" y="462" type="curve" smooth="yes"/>
      <point x="264" y="462"/>
      <point x="218" y="416"/>
      <point x="192" y="358" type="curve"/>
      <point x="192" y="358"/>
      <point x="191" y="355"/>
      <point x="187" y="355" type="curve" smooth="yes"/>
      <point x="182" y="355" name=".hr01"/>
      <point x="182" y="358"/>
      <point x="182" y="358" type="curve"/>
      <point x="182" y="450" type="line"/>
      <point x="22" y="450" type="line"/>
      <point x="22" y="415" type="line"/>
      <point x="52" y="415" type="line" smooth="yes"/>
      <point x="97" y="415"/>
      <point x="102" y="410"/>
      <point x="102" y="365" type="curve" smooth="yes"/>
      <point x="102" y="85" type="line" smooth="yes"/>
      <point x="102" y="45"/>
      <point x="92" y="35"/>
      <point x="52" y="35" type="curve" smooth="yes"/>
      <point x="32" y="35" type="line"/>
    </contour>
  </outline>
</glyph>
<glyph name="o" format="2">
  <advance width="488"/>
  <unicode hex="006F"/>
  <anchor x="244" y="530" name="t.dieresis"/>
  <anchor x="244" y="530" name="t.asciicircum_1"/>
  <outline>
    <contour>
      <point x="244" y="-12" type="curve" smooth="yes"/>
      <point x="374" y="-12"/>
      <point x="456" y="95"/>
      <point x="456" y="225" type="curve" smooth="yes"/>
      <point x="456" y="355"/>
      <point x="374" y="462"/>
      <point x="244" y="462" type="curve" smooth="yes"/>
      <point x="114" y="462"/>
      <point x="32" y="355"/>
      <point x="32" y="225" type="curve" smooth="yes"/>
      <point x="32" y="95"/>
      <point x="114" y="-12"/>
    </contour>
    <contour>
      <point x="244" y="14" type="curve" smooth="yes"/>
      <point x="181" y="14"/>
      <point x="140" y="75"/>
      <point x="140" y="225" type="curve" smooth="yes"/>
      <point x="140" y="375"/>
      <point x="181" y="436"/>
      <point x="244" y="436" type="curve" smooth="yes"/>
      <point x="307" y="436"/>
      <point x="348" y="375"/>
      <point x="348" y="225" type="curve" smooth="yes"/>
      <point x="348" y="75"/>
      <point x="307" y="14"/>
    </contour>
  </outline>
</glyph>
<glyph name="p" format="2">
  <advance width="525"/>
  <unicode hex="0070"/>
  <outline>
    <contour>
      <point x="12" y="-230" type="line"/>
      <point x="278" y="-230" type="line"/>
      <point x="278" y="-195" type="line"/>
      <point x="228" y="-195" type="line" smooth="yes"/>
      <point x="183" y="-195"/>
      <point x="178" y="-190"/>
      <point x="178" y="-145" type="curve" smooth="yes"/>
      <point x="178" y="68" type="line"/>
      <point x="178" y="69"/>
      <point x="179" y="71"/>
      <point x="183" y="71" type="curve" smooth="yes"/>
      <point x="187" y="71"/>
      <point x="188" y="68"/>
      <point x="188" y="68" type="curve"/>
      <point x="214" y="20"/>
      <point x="250" y="-12"/>
      <point x="308" y="-12" type="curve" smooth="yes"/>
      <point x="404" y="-12"/>
      <point x="484" y="75"/>
      <point x="484" y="225" type="curve" smooth="yes"/>
      <point x="484" y="375"/>
      <point x="409" y="462"/>
      <point x="316" y="462" type="curve" smooth="yes"/>
      <point x="269" y="462"/>
      <point x="218" y="428"/>
      <point x="186" y="359" type="curve"/>
      <point x="186" y="359"/>
      <point x="185" y="356"/>
      <point x="182" y="356" type="curve" smooth="yes"/>
      <point x="180" y="356"/>
      <point x="178" y="358"/>
      <point x="178" y="359" type="curve"/>
      <point x="178" y="450" type="line"/>
      <point x="12" y="450" type="line"/>
      <point x="12" y="415" type="line"/>
      <point x="42" y="415" type="line" smooth="yes"/>
      <point x="87" y="415"/>
      <point x="92" y="410"/>
      <point x="92" y="365" type="curve" smooth="yes"/>
      <point x="92" y="-145" type="line" smooth="yes"/>
      <point x="92" y="-190"/>
      <point x="87" y="-195"/>
      <point x="42" y="-195" type="curve" smooth="yes"/>
      <point x="12" y="-195" type="line"/>
    </contour>
    <contour>
      <point x="296" y="19" type="curve" smooth="yes"/>
      <point x="243" y="19"/>
      <point x="188" y="79"/>
      <point x="188" y="225" type="curve" smooth="yes"/>
      <point x="188" y="329"/>
      <point x="236" y="429"/>
      <point x="298" y="429" type="curve" smooth="yes"/>
      <point x="350" y="429"/>
      <point x="382" y="360"/>
      <point x="382" y="225" type="curve" smooth="yes"/>
      <point x="382" y="90"/>
      <point x="343" y="19"/>
    </contour>
  </outline>
</glyph>
<glyph name="q" format="2">
  <advance width="501"/>
  <unicode hex="0071"/>
  <outline>
    <contour>
      <point x="243" y="-230" type="line"/>
      <point x="508" y="-230" type="line"/>
      <point x="508" y="-195" type="line"/>
      <point x="478" y="-195" type="line" smooth="yes"/>
      <point x="433" y="-195"/>
      <point x="428" y="-190"/>
      <point x="428" y="-145" type="curve" smooth="yes"/>
      <point x="428" y="462" type="line"/>
      <point x="403" y="462" type="line"/>
      <point x="353" y="365" type="line"/>
      <point x="353" y="365"/>
      <point x="352" y="362"/>
      <point x="349" y="362" type="curve" smooth="yes"/>
      <point x="347" y="362"/>
      <point x="346" y="365"/>
      <point x="346" y="365" type="curve"/>
      <point x="318" y="423"/>
      <point x="283" y="462"/>
      <point x="218" y="462" type="curve" smooth="yes"/>
      <point x="122" y="462"/>
      <point x="41" y="375"/>
      <point x="41" y="225" type="curve" smooth="yes"/>
      <point x="41" y="75"/>
      <point x="117" y="-12"/>
      <point x="210" y="-12" type="curve" smooth="yes"/>
      <point x="255" y="-12"/>
      <point x="304" y="19"/>
      <point x="335" y="82" type="curve"/>
      <point x="335" y="82"/>
      <point x="336" y="84"/>
      <point x="339" y="84" type="curve" smooth="yes"/>
      <point x="343" y="84"/>
      <point x="343" y="82"/>
      <point x="343" y="82" type="curve"/>
      <point x="343" y="-145" type="line" smooth="yes"/>
      <point x="343" y="-190"/>
      <point x="338" y="-195"/>
      <point x="293" y="-195" type="curve" smooth="yes"/>
      <point x="243" y="-195" type="line"/>
    </contour>
    <contour>
      <point x="227" y="21" type="curve" smooth="yes"/>
      <point x="175" y="21"/>
      <point x="144" y="90"/>
      <point x="144" y="225" type="curve" smooth="yes"/>
      <point x="144" y="360"/>
      <point x="183" y="431"/>
      <point x="230" y="431" type="curve" smooth="yes"/>
      <point x="283" y="431"/>
      <point x="338" y="371"/>
      <point x="338" y="225" type="curve" smooth="yes"/>
      <point x="338" y="121"/>
      <point x="289" y="21"/>
    </contour>
  </outline>
</glyph>
<glyph name="r" format="2">
  <advance width="384"/>
  <unicode hex="0072"/>
  <outline>
    <contour>
      <point x="22" y="0" type="line"/>
      <point x="287" y="0" type="line"/>
      <point x="287" y="35" type="line"/>
      <point x="237" y="35" type="line" smooth="yes"/>
      <point x="192" y="35"/>
      <point x="187" y="40" name=".hr01"/>
      <point x="187" y="85" type="curve" smooth="yes"/>
      <point x="187" y="259" type="line" smooth="yes"/>
      <point x="187" y="298"/>
      <point x="206" y="342"/>
      <point x="224" y="366" type="curve" smooth="yes"/>
      <point x="240" y="387"/>
      <point x="253" y="389"/>
      <point x="267" y="366" type="curve" smooth="yes"/>
      <point x="280" y="345"/>
      <point x="300" y="332"/>
      <point x="326" y="332" type="curve" smooth="yes"/>
      <point x="360" y="332"/>
      <point x="382" y="361"/>
      <point x="382" y="394" type="curve" smooth="yes"/>
      <point x="382" y="433"/>
      <point x="347" y="462"/>
      <point x="309" y="462" type="curve" smooth="yes"/>
      <point x="262" y="462"/>
      <point x="209" y="407"/>
      <point x="182" y="350" type="curve" name=".hr02"/>
      <point x="182" y="450" type="line"/>
      <point x="22" y="450" type="line"/>
      <point x="22" y="415" type="line"/>
      <point x="52" y="415" type="line" smooth="yes"/>
      <point x="97" y="415"/>
      <point x="102" y="410" name=".hr03"/>
      <point x="102" y="365" type="curve" smooth="yes"/>
      <point x="102" y="85" type="line" smooth="yes"/>
      <point x="102" y="40"/>
      <point x="97" y="35"/>
      <point x="52" y="35" type="curve" smooth="yes"/>
      <point x="22" y="35" type="line" name=".hr04"/>
    </contour>
  </outline>
</glyph>
<glyph name="t" format="2">
  <advance width="337"/>
  <unicode hex="0074"/>
  <outline>
    <contour>
      <point x="90" y="125" type="line" smooth="yes"/>
      <point x="90" y="41"/>
      <point x="117" y="-12"/>
      <point x="194" y="-12" type="curve" smooth="yes"/>
      <point x="269" y="-12"/>
      <point x="316" y="51"/>
      <point x="316" y="182" type="curve" smooth="yes"/>
      <point x="316" y="203" type="line"/>
      <point x="286" y="203" type="line"/>
      <point x="286" y="183" type="line" smooth="yes"/>
      <point x="286" y="80"/>
      <point x="256" y="38"/>
      <point x="219" y="38" type="curve" smooth="yes"/>
      <point x="196" y="38"/>
      <point x="175" y="50"/>
      <point x="175" y="139" type="curve" smooth="yes"/>
      <point x="175" y="415" type="line"/>
      <point x="286" y="415" type="line"/>
      <point x="286" y="450" type="line"/>
      <point x="175" y="450" type="line"/>
      <point x="175" y="666" type="line"/>
      <point x="149" y="666" type="line"/>
      <point x="127" y="575"/>
      <point x="80" y="492"/>
      <point x="8" y="438" type="curve"/>
      <point x="8" y="415" type="line"/>
      <point x="90" y="415" type="line"/>
    </contour>
  </outline>
</glyph>
<glyph name="v" format="2">
  <advance width="516"/>
  <unicode hex="0076"/>
  <outline>
    <contour>
      <point x="227" y="450" type="line"/>
      <point x="9" y="450" type="line"/>
      <point x="9" y="415" type="line"/>
      <point x="26" y="415" type="line" smooth="yes"/>
      <point x="59" y="415"/>
      <point x="68" y="408"/>
      <point x="84" y="371" type="curve" smooth="yes"/>
      <point x="249" y="-12" type="line"/>
      <point x="269" y="-12" type="line"/>
      <point x="426" y="363" type="line" smooth="yes"/>
      <point x="447" y="413"/>
      <point x="452" y="415"/>
      <point x="487" y="415" type="curve" smooth="yes"/>
      <point x="507" y="415" type="line"/>
      <point x="507" y="450" type="line"/>
      <point x="317" y="450" type="line"/>
      <point x="317" y="415" type="line"/>
      <point x="354" y="415" type="line" smooth="yes"/>
      <point x="391" y="415"/>
      <point x="408" y="411"/>
      <point x="386" y="359" type="curve" smooth="yes"/>
      <point x="286" y="123" type="line"/>
      <point x="181" y="366" type="line" smooth="yes"/>
      <point x="166" y="400"/>
      <point x="168" y="415"/>
      <point x="213" y="415" type="curve" smooth="yes"/>
      <point x="227" y="415" type="line"/>
    </contour>
  </outline>
</glyph>
<glyph name="w" format="2">
  <advance width="705"/>
  <unicode hex="0077"/>
  <outline>
    <contour>
      <point x="222" y="450" type="line"/>
      <point x="9" y="450" type="line"/>
      <point x="9" y="415" type="line"/>
      <point x="15" y="415" type="line" smooth="yes"/>
      <point x="70" y="415"/>
      <point x="75" y="411"/>
      <point x="95" y="356" type="curve" smooth="yes"/>
      <point x="231" y="-12" type="line"/>
      <point x="251" y="-12" type="line"/>
      <point x="361" y="279" type="line"/>
      <point x="468" y="-12" type="line"/>
      <point x="488" y="-12" type="line"/>
      <point x="613" y="358" type="line" smooth="yes"/>
      <point x="630" y="409"/>
      <point x="645" y="415"/>
      <point x="673" y="415" type="curve" smooth="yes"/>
      <point x="696" y="415" type="line"/>
      <point x="696" y="450" type="line"/>
      <point x="517" y="450" type="line"/>
      <point x="517" y="415" type="line"/>
      <point x="539" y="415" type="line" smooth="yes"/>
      <point x="583" y="415"/>
      <point x="594" y="410"/>
      <point x="576" y="358" type="curve" smooth="yes"/>
      <point x="503" y="144" type="line"/>
      <point x="423" y="362" type="line" smooth="yes"/>
      <point x="406" y="409"/>
      <point x="413" y="415"/>
      <point x="462" y="415" type="curve" smooth="yes"/>
      <point x="471" y="415" type="line"/>
      <point x="471" y="450" type="line"/>
      <point x="266" y="450" type="line"/>
      <point x="266" y="415" type="line"/>
      <point x="275" y="415" type="line" smooth="yes"/>
      <point x="305" y="415"/>
      <point x="311" y="413"/>
      <point x="321" y="386" type="curve" smooth="yes"/>
      <point x="342" y="330" type="line"/>
      <point x="268" y="136" type="line"/>
      <point x="184" y="366" type="line" smooth="yes"/>
      <point x="168" y="409"/>
      <point x="173" y="415"/>
      <point x="216" y="415" type="curve" smooth="yes"/>
      <point x="222" y="415" type="line"/>
    </contour>
  </outline>
</glyph>
<glyph name="z" format="2">
  <advance width="436"/>
  <unicode hex="007A"/>
  <outline>
    <contour>
      <point x="41" y="0" type="line"/>
      <point x="404" y="0" type="line"/>
      <point x="410" y="190" type="line"/>
      <point x="380" y="190" type="line"/>
      <point x="370" y="94"/>
      <point x="328" y="33"/>
      <point x="267" y="33" type="curve" smooth="yes"/>
      <point x="188" y="33" type="line" smooth="yes"/>
      <point x="170" y="33"/>
      <point x="156" y="45"/>
      <point x="169" y="68" type="curve"/>
      <point x="389" y="430" type="line"/>
      <point x="389" y="450" type="line"/>
      <point x="63" y="450" type="line"/>
      <point x="58" y="290" type="line"/>
      <point x="88" y="290" type="line"/>
      <point x="98" y="358"/>
      <point x="120" y="417"/>
      <point x="178" y="417" type="curve" smooth="yes"/>
      <point x="246" y="417" type="line" smooth="yes"/>
      <point x="273" y="417"/>
      <point x="277" y="408"/>
      <point x="265" y="388" type="curve" smooth="yes"/>
      <point x="41" y="20" type="line"/>
    </contour>
  </outline>
</glyph>
<glyph name="braceleft" format="2">
  <advance width="430"/>
  <unicode hex="007B"/>
  <outline>
    <contour>
      <point x="180" y="272" type="line"/>
      <point x="235" y="255"/>
      <point x="276" y="210"/>
      <point x="276" y="125" type="curve" smooth="yes"/>
      <point x="276" y="92"/>
      <point x="270" y="66"/>
      <point x="258" y="23" type="curve" smooth="yes"/>
      <point x="246" y="-21"/>
      <point x="240" y="-47"/>
      <point x="240" y="-80" type="curve" smooth="yes"/>
      <point x="240" y="-132"/>
      <point x="275" y="-152"/>
      <point x="344" y="-176" type="curve"/>
      <point x="332" y="-201" type="line"/>
      <point x="229" y="-168"/>
      <point x="178" y="-110"/>
      <point x="178" y="-29" type="curve" smooth="yes"/>
      <point x="178" y="4"/>
      <point x="183" y="32"/>
      <point x="198" y="81" type="curve"/>
      <point x="209" y="122"/>
      <point x="215" y="154"/>
      <point x="215" y="178" type="curve" smooth="yes"/>
      <point x="215" y="246"/>
      <point x="181" y="264"/>
      <point x="106" y="264" type="curve"/>
      <point x="106" y="283" type="line"/>
      <point x="178" y="283"/>
      <point x="215" y="292"/>
      <point x="215" y="362" type="curve" smooth="yes"/>
      <point x="215" y="385"/>
      <point x="209" y="419"/>
      <point x="198" y="463" type="curve" smooth="yes"/>
      <point x="183" y="518"/>
      <point x="178" y="543"/>
      <point x="178" y="575" type="curve" smooth="yes"/>
      <point x="178" y="656"/>
      <point x="229" y="714"/>
      <point x="332" y="748" type="curve"/>
      <point x="344" y="723" type="line"/>
      <point x="275" y="699"/>
      <point x="240" y="679"/>
      <point x="240" y="627" type="curve" smooth="yes"/>
      <point x="240" y="594"/>
      <point x="246" y="569"/>
      <point x="258" y="521" type="curve" smooth="yes"/>
      <point x="270" y="477"/>
      <point x="276" y="448"/>
      <point x="276" y="416" type="curve" smooth="yes"/>
      <point x="276" y="342"/>
      <point x="244" y="295"/>
      <point x="180" y="274" type="curve"/>
    </contour>
  </outline>
</glyph>
<glyph name="bar" format="2">
  <advance width="363"/>
  <unicode hex="007C"/>
  <outline>
    <contour>
      <point x="160" y="-143" type="line"/>
      <point x="203" y="-143" type="line"/>
      <point x="203" y="754" type="line"/>
      <point x="160" y="754" type="line"/>
    </contour>
  </outline>
</glyph>
<glyph name="braceright" format="2">
  <advance width="430"/>
  <unicode hex="007D"/>
  <outline>
    <contour>
      <point x="250" y="274" type="line"/>
      <point x="186" y="295"/>
      <point x="154" y="342"/>
      <point x="154" y="416" type="curve" smooth="yes"/>
      <point x="154" y="448"/>
      <point x="160" y="477"/>
      <point x="172" y="521" type="curve" smooth="yes"/>
      <point x="184" y="569"/>
      <point x="190" y="594" name=".hr01"/>
      <point x="190" y="627" type="curve" smooth="yes"/>
      <point x="190" y="679"/>
      <point x="155" y="699"/>
      <point x="86" y="723" type="curve"/>
      <point x="98" y="748" type="line"/>
      <point x="201" y="714"/>
      <point x="252" y="656"/>
      <point x="252" y="575" type="curve" smooth="yes"/>
      <point x="252" y="543"/>
      <point x="247" y="518"/>
      <point x="232" y="463" type="curve" smooth="yes"/>
      <point x="221" y="419"/>
      <point x="215" y="385" name=".hr02"/>
      <point x="215" y="362" type="curve" smooth="yes"/>
      <point x="215" y="292"/>
      <point x="252" y="283" name=".hr03"/>
      <point x="324" y="283" type="curve"/>
      <point x="324" y="264" type="line"/>
      <point x="252" y="264"/>
      <point x="215" y="255" name=".hr04"/>
      <point x="215" y="184" type="curve" smooth="yes"/>
      <point x="215" y="161"/>
      <point x="221" y="128"/>
      <point x="232" y="84" type="curve" smooth="yes"/>
      <point x="247" y="29"/>
      <point x="252" y="4" name=".hr05"/>
      <point x="252" y="-29" type="curve" smooth="yes"/>
      <point x="252" y="-110"/>
      <point x="201" y="-168"/>
      <point x="98" y="-201" type="curve"/>
      <point x="86" y="-176" type="line"/>
      <point x="155" y="-152"/>
      <point x="190" y="-132"/>
      <point x="190" y="-80" type="curve" smooth="yes"/>
      <point x="190" y="-47"/>
      <point x="184" y="-22"/>
      <point x="172" y="26" type="curve" smooth="yes"/>
      <point x="160" y="73"/>
      <point x="154" y="98" name=".hr06"/>
      <point x="154" y="131" type="curve" smooth="yes"/>
      <point x="154" y="205"/>
      <point x="186" y="252"/>
      <point x="250" y="272" type="curve"/>
    </contour>
  </outline>
</glyph>
<glyph name="asciitilde" format="2">
  <advance width="373"/>
  <unicode hex="007E"/>
  <anchor x="187" y="140" name="_t.asciicircum_1"/>
  <outline>
    <contour>
      <point x="48" y="210" type="line"/>
      <point x="60" y="235"/>
      <point x="78" y="258"/>
      <point x="104" y="258" type="curve" smooth="yes"/>
      <point x="141" y="258"/>
      <point x="196" y="196"/>
      <point x="246" y="196" type="curve" smooth="yes"/>
      <point x="296" y="196"/>
      <point x="331" y="252"/>
      <point x="347" y="294" type="curve"/>
      <point x="325" y="302" type="line"/>
      <point x="313" y="277"/>
      <point x="295" y="254"/>
      <point x="269" y="254" type="curve" smooth="yes"/>
      <point x="232" y="254"/>
      <point x="177" y="316"/>
      <point x="127" y="316" type="curve" smooth="yes"/>
      <point x="77" y="316"/>
      <point x="42" y="260"/>
      <point x="26" y="218" type="curve"/>
    </contour>
    <contour>
      <point x="48" y="210" type="line"/>
      <point x="60" y="235"/>
      <point x="78" y="258"/>
      <point x="104" y="258" type="curve" smooth="yes"/>
      <point x="141" y="258"/>
      <point x="196" y="196"/>
      <point x="246" y="196" type="curve" smooth="yes"/>
      <point x="296" y="196"/>
      <point x="331" y="252"/>
      <point x="347" y="294" type="curve"/>
      <point x="325" y="302" type="line"/>
      <point x="313" y="277"/>
      <point x="295" y="254"/>
      <point x="269" y="254" type="curve" smooth="yes"/>
      <point x="232" y="254"/>
      <point x="177" y="316"/>
      <point x="127" y="316" type="curve" smooth="yes"/>
      <point x="77" y="316"/>
      <point x="42" y="260"/>
      <point x="26" y="218" type="curve"/>
    </contour>
  </outline>
</glyph>
<glyph name="exclamdown" format="2">
  <advance width="268"/>
  <unicode hex="00A1"/>
  <outline>
    <contour>
      <point x="102" y="-12" type="curve" smooth="yes"/>
      <point x="144" y="-12"/>
      <point x="168" y="15"/>
      <point x="168" y="60" type="curve" smooth="yes"/>
      <point x="168" y="73"/>
      <point x="166" y="86"/>
      <point x="163" y="100" type="curve" smooth="yes"/>
      <point x="142" y="201"/>
      <point x="120" y="302"/>
      <point x="120" y="464" type="curve"/>
      <point x="84" y="464" type="line"/>
      <point x="84" y="302"/>
      <point x="62" y="201"/>
      <point x="41" y="100" type="curve" smooth="yes"/>
      <point x="38" y="86"/>
      <point x="36" y="73"/>
      <point x="36" y="60" type="curve" smooth="yes"/>
      <point x="36" y="15"/>
      <point x="60" y="-12"/>
    </contour>
    <contour>
      <point x="40" y="625" type="curve" smooth="yes"/>
      <point x="40" y="591"/>
      <point x="68" y="563"/>
      <point x="102" y="563" type="curve" smooth="yes"/>
      <point x="136" y="563"/>
      <point x="164" y="591"/>
      <point x="164" y="625" type="curve" smooth="yes"/>
      <point x="164" y="659"/>
      <point x="136" y="687"/>
      <point x="102" y="687" type="curve" smooth="yes"/>
      <point x="68" y="687"/>
      <point x="40" y="659"/>
    </contour>
  </outline>
</glyph>
<glyph name="cent" format="2">
  <advance width="594"/>
  <unicode hex="00A2"/>
  <outline>
    <contour>
      <point x="297" y="-123" type="line"/>
      <point x="297" y="-11" type="line"/>
      <point x="240" y="-5"/>
      <point x="195" y="21"/>
      <point x="163" y="67" type="curve" smooth="yes"/>
      <point x="131" y="112"/>
      <point x="115" y="168"/>
      <point x="115" y="233" type="curve" smooth="yes"/>
      <point x="115" y="360"/>
      <point x="192" y="468"/>
      <point x="297" y="478" type="curve"/>
      <point x="297" y="590" type="line"/>
      <point x="330" y="590" type="line"/>
      <point x="330" y="478" type="line"/>
      <point x="417" y="472"/>
      <point x="469" y="406"/>
      <point x="469" y="345" type="curve" smooth="yes"/>
      <point x="469" y="302"/>
      <point x="444" y="278"/>
      <point x="413" y="278" type="curve" smooth="yes"/>
      <point x="385" y="278"/>
      <point x="365" y="298"/>
      <point x="365" y="323" type="curve" smooth="yes"/>
      <point x="365" y="347"/>
      <point x="380" y="365"/>
      <point x="399" y="370" type="curve" smooth="yes"/>
      <point x="410" y="373"/>
      <point x="416" y="379" name=".hr01"/>
      <point x="416" y="388" type="curve" smooth="yes"/>
      <point x="416" y="409"/>
      <point x="387" y="450"/>
      <point x="330" y="454" type="curve"/>
      <point x="330" y="12" type="line"/>
      <point x="368" y="14"/>
      <point x="397" y="29"/>
      <point x="416" y="58" type="curve" smooth="yes"/>
      <point x="435" y="87"/>
      <point x="448" y="121"/>
      <point x="453" y="160" type="curve"/>
      <point x="477" y="160" type="line" name=".hr02"/>
      <point x="474" y="116"/>
      <point x="461" y="77"/>
      <point x="436" y="43" type="curve" smooth="yes"/>
      <point x="411" y="8"/>
      <point x="376" y="-10"/>
      <point x="330" y="-12" type="curve" name=".hr03"/>
      <point x="330" y="-123" type="line"/>
    </contour>
    <contour>
      <point x="226" y="93" type="curve" smooth="yes"/>
      <point x="240" y="51"/>
      <point x="264" y="25"/>
      <point x="297" y="15" type="curve"/>
      <point x="297" y="453" type="line"/>
      <point x="265" y="444"/>
      <point x="242" y="419"/>
      <point x="227" y="376" type="curve" smooth="yes"/>
      <point x="212" y="333"/>
      <point x="205" y="285"/>
      <point x="205" y="233" type="curve" smooth="yes"/>
      <point x="205" y="182"/>
      <point x="212" y="135"/>
    </contour>
  </outline>
</glyph>
<glyph name="sterling" format="2">
  <advance width="737"/>
  <unicode hex="00A3"/>
  <outline>
    <contour>
      <point x="117" y="371" type="line"/>
      <point x="137" y="388"/>
      <point x="160" y="399"/>
      <point x="201" y="399" type="curve" smooth="yes"/>
      <point x="214" y="399"/>
      <point x="238" y="396"/>
      <point x="273" y="389" type="curve"/>
      <point x="272" y="398"/>
      <point x="272" y="415"/>
      <point x="272" y="440" type="curve" smooth="yes"/>
      <point x="272" y="491"/>
      <point x="282" y="537"/>
      <point x="303" y="580" type="curve" smooth="yes"/>
      <point x="343" y="664"/>
      <point x="416" y="717"/>
      <point x="496" y="717" type="curve" smooth="yes"/>
      <point x="531" y="717"/>
      <point x="560" y="710"/>
      <point x="582" y="695" type="curve" smooth="yes"/>
      <point x="625" y="666"/>
      <point x="642" y="620"/>
      <point x="642" y="591" type="curve" smooth="yes"/>
      <point x="642" y="544"/>
      <point x="621" y="514"/>
      <point x="581" y="514" type="curve" smooth="yes"/>
      <point x="552" y="514"/>
      <point x="529" y="534"/>
      <point x="529" y="562" type="curve" smooth="yes"/>
      <point x="529" y="584"/>
      <point x="538" y="599"/>
      <point x="555" y="608" type="curve" smooth="yes"/>
      <point x="572" y="617"/>
      <point x="579" y="623"/>
      <point x="579" y="638" type="curve" smooth="yes"/>
      <point x="579" y="663"/>
      <point x="553" y="690"/>
      <point x="496" y="690" type="curve" smooth="yes"/>
      <point x="433" y="690"/>
      <point x="366" y="634"/>
      <point x="366" y="514" type="curve" smooth="yes"/>
      <point x="366" y="373" type="line"/>
      <point x="395" y="368"/>
      <point x="415" y="365"/>
      <point x="428" y="365" type="curve" smooth="yes"/>
      <point x="464" y="365"/>
      <point x="479" y="372"/>
      <point x="506" y="387" type="curve"/>
      <point x="520" y="365" type="line"/>
      <point x="501" y="346"/>
      <point x="473" y="336"/>
      <point x="436" y="336" type="curve" smooth="yes"/>
      <point x="425" y="336"/>
      <point x="401" y="339"/>
      <point x="366" y="345" type="curve"/>
      <point x="366" y="279" type="line" smooth="yes"/>
      <point x="366" y="205"/>
      <point x="349" y="144"/>
      <point x="316" y="97" type="curve"/>
      <point x="368" y="66"/>
      <point x="447" y="49"/>
      <point x="511" y="49" type="curve" smooth="yes"/>
      <point x="542" y="49"/>
      <point x="568" y="62"/>
      <point x="591" y="88" type="curve" smooth="yes"/>
      <point x="614" y="113"/>
      <point x="628" y="141"/>
      <point x="635" y="172" type="curve"/>
      <point x="653" y="165" type="line"/>
      <point x="629" y="43"/>
      <point x="568" y="-18"/>
      <point x="470" y="-18" type="curve" smooth="yes"/>
      <point x="419" y="-18"/>
      <point x="359" y="13"/>
      <point x="286" y="58" type="curve"/>
      <point x="271" y="41"/>
      <point x="252" y="26"/>
      <point x="230" y="11" type="curve" smooth="yes"/>
      <point x="208" y="-5"/>
      <point x="187" y="-12"/>
      <point x="166" y="-12" type="curve" smooth="yes"/>
      <point x="110" y="-12"/>
      <point x="66" y="15"/>
      <point x="66" y="68" type="curve" smooth="yes"/>
      <point x="66" y="91"/>
      <point x="76" y="111"/>
      <point x="96" y="127" type="curve" smooth="yes"/>
      <point x="116" y="142"/>
      <point x="137" y="150"/>
      <point x="160" y="150" type="curve" smooth="yes"/>
      <point x="195" y="150"/>
      <point x="232" y="140"/>
      <point x="273" y="120" type="curve"/>
      <point x="278" y="137"/>
      <point x="281" y="152"/>
      <point x="282" y="165" type="curve" smooth="yes"/>
      <point x="283" y="178"/>
      <point x="283" y="196"/>
      <point x="283" y="221" type="curve" smooth="yes"/>
      <point x="283" y="256"/>
      <point x="280" y="328"/>
      <point x="275" y="361" type="curve"/>
      <point x="240" y="368"/>
      <point x="218" y="371"/>
      <point x="209" y="371" type="curve" smooth="yes"/>
      <point x="173" y="371"/>
      <point x="160" y="364"/>
      <point x="131" y="348" type="curve"/>
    </contour>
    <contour>
      <point x="94" y="68" type="curve" smooth="yes"/>
      <point x="94" y="31"/>
      <point x="118" y="12"/>
      <point x="166" y="12" type="curve" smooth="yes"/>
      <point x="198" y="12"/>
      <point x="237" y="41"/>
      <point x="257" y="81" type="curve"/>
      <point x="217" y="109"/>
      <point x="189" y="125"/>
      <point x="154" y="125" type="curve" smooth="yes"/>
      <point x="119" y="125"/>
      <point x="94" y="99"/>
    </contour>
  </outline>
</glyph>
<glyph name="yen" format="2">
  <advance width="594"/>
  <unicode hex="00A5"/>
  <outline>
    <contour>
      <point x="139" y="0" type="line"/>
      <point x="139" y="33" type="line"/>
      <point x="215" y="33" type="line" smooth="yes"/>
      <point x="234" y="33"/>
      <point x="244" y="42"/>
      <point x="244" y="61" type="curve" smooth="yes"/>
      <point x="244" y="199" type="line"/>
      <point x="100" y="199" type="line"/>
      <point x="100" y="231" type="line"/>
      <point x="244" y="231" type="line"/>
      <point x="244" y="305" type="line"/>
      <point x="100" y="305" type="line"/>
      <point x="100" y="338" type="line"/>
      <point x="238" y="338" type="line"/>
      <point x="95" y="628" type="line" smooth="yes"/>
      <point x="83" y="653"/>
      <point x="73" y="668"/>
      <point x="50" y="668" type="curve" smooth="yes"/>
      <point x="14" y="668" type="line"/>
      <point x="14" y="700" type="line"/>
      <point x="248" y="700" type="line"/>
      <point x="248" y="668" type="line"/>
      <point x="214" y="668" type="line" smooth="yes"/>
      <point x="195" y="668"/>
      <point x="186" y="662"/>
      <point x="186" y="650" type="curve" smooth="yes"/>
      <point x="186" y="645"/>
      <point x="189" y="637"/>
      <point x="195" y="625" type="curve" smooth="yes"/>
      <point x="318" y="373" type="line"/>
      <point x="430" y="575" type="line" smooth="yes"/>
      <point x="444" y="600"/>
      <point x="451" y="619"/>
      <point x="451" y="632" type="curve" smooth="yes"/>
      <point x="451" y="649"/>
      <point x="441" y="668"/>
      <point x="416" y="668" type="curve" smooth="yes"/>
      <point x="373" y="668" type="line"/>
      <point x="373" y="700" type="line"/>
      <point x="578" y="700" type="line"/>
      <point x="578" y="668" type="line"/>
      <point x="555" y="668" type="line" smooth="yes"/>
      <point x="524" y="668"/>
      <point x="502" y="638"/>
      <point x="474" y="591" type="curve"/>
      <point x="334" y="338" type="line"/>
      <point x="477" y="338" type="line"/>
      <point x="477" y="305" type="line"/>
      <point x="334" y="305" type="line"/>
      <point x="334" y="231" type="line"/>
      <point x="477" y="231" type="line"/>
      <point x="477" y="199" type="line"/>
      <point x="334" y="199" type="line"/>
      <point x="334" y="61" type="line" smooth="yes"/>
      <point x="334" y="42"/>
      <point x="342" y="33"/>
      <point x="362" y="33" type="curve" smooth="yes"/>
      <point x="438" y="33" type="line"/>
      <point x="438" y="0" type="line"/>
    </contour>
  </outline>
</glyph>
<glyph name="brokenbar" format="2">
  <advance width="291"/>
  <unicode hex="00A6"/>
  <outline>
    <contour>
      <point x="168" y="-172" type="line"/>
      <point x="123" y="-172" type="line"/>
      <point x="123" y="197" type="line"/>
      <point x="168" y="197" type="line"/>
    </contour>
    <contour>
      <point x="168" y="379" type="line"/>
      <point x="123" y="379" type="line"/>
      <point x="123" y="748" type="line"/>
      <point x="168" y="748" type="line"/>
    </contour>
  </outline>
</glyph>
<glyph name="section" format="2">
  <advance width="655"/>
  <unicode hex="00A7"/>
  <outline>
    <contour>
      <point x="170" y="154" type="line"/>
      <point x="123" y="195"/>
      <point x="102" y="233"/>
      <point x="102" y="293" type="curve" smooth="yes"/>
      <point x="102" y="346"/>
      <point x="140" y="397"/>
      <point x="215" y="444" type="curve"/>
      <point x="174" y="481"/>
      <point x="154" y="525"/>
      <point x="154" y="575" type="curve" smooth="yes"/>
      <point x="154" y="660"/>
      <point x="227" y="717"/>
      <point x="305" y="717" type="curve" smooth="yes"/>
      <point x="336" y="717"/>
      <point x="364" y="707"/>
      <point x="389" y="687" type="curve" smooth="yes"/>
      <point x="414" y="666"/>
      <point x="426" y="642"/>
      <point x="426" y="614" type="curve" smooth="yes"/>
      <point x="426" y="579"/>
      <point x="402" y="557"/>
      <point x="373" y="557" type="curve" smooth="yes"/>
      <point x="344" y="557"/>
      <point x="322" y="578"/>
      <point x="322" y="602" type="curve" smooth="yes"/>
      <point x="322" y="622"/>
      <point x="329" y="630"/>
      <point x="348" y="643" type="curve" smooth="yes"/>
      <point x="356" y="648"/>
      <point x="358" y="651"/>
      <point x="358" y="662" type="curve" smooth="yes"/>
      <point x="358" y="682"/>
      <point x="337" y="692"/>
      <point x="305" y="692" type="curve" smooth="yes"/>
      <point x="256" y="692"/>
      <point x="213" y="663"/>
      <point x="213" y="612" type="curve" smooth="yes"/>
      <point x="213" y="583"/>
      <point x="218" y="560"/>
      <point x="229" y="543" type="curve" smooth="yes"/>
      <point x="240" y="526"/>
      <point x="258" y="506"/>
      <point x="283" y="483" type="curve"/>
      <point x="414" y="371" type="line" smooth="yes"/>
      <point x="439" y="350"/>
      <point x="457" y="329"/>
      <point x="467" y="310" type="curve"/>
      <point x="476" y="290"/>
      <point x="481" y="264"/>
      <point x="481" y="231" type="curve" smooth="yes"/>
      <point x="481" y="171"/>
      <point x="434" y="125"/>
      <point x="369" y="82" type="curve"/>
      <point x="404" y="43"/>
      <point x="428" y="-2"/>
      <point x="428" y="-53" type="curve" smooth="yes"/>
      <point x="428" y="-139"/>
      <point x="357" y="-190"/>
      <point x="276" y="-190" type="curve" smooth="yes"/>
      <point x="216" y="-190"/>
      <point x="156" y="-145"/>
      <point x="156" y="-86" type="curve" smooth="yes"/>
      <point x="156" y="-50"/>
      <point x="178" y="-31"/>
      <point x="211" y="-31" type="curve" smooth="yes"/>
      <point x="236" y="-31"/>
      <point x="260" y="-50"/>
      <point x="260" y="-74" type="curve" smooth="yes"/>
      <point x="260" y="-95"/>
      <point x="253" y="-105"/>
      <point x="236" y="-116" type="curve"/>
      <point x="225" y="-121"/>
      <point x="223" y="-124"/>
      <point x="223" y="-135" type="curve" smooth="yes"/>
      <point x="223" y="-155"/>
      <point x="247" y="-166"/>
      <point x="276" y="-166" type="curve" smooth="yes"/>
      <point x="325" y="-166"/>
      <point x="369" y="-135"/>
      <point x="369" y="-86" type="curve" smooth="yes"/>
      <point x="369" y="-33"/>
      <point x="349" y="2"/>
      <point x="301" y="43" type="curve" smooth="yes"/>
    </contour>
    <contour>
      <point x="328" y="119" type="line"/>
      <point x="337" y="110"/>
      <point x="345" y="103"/>
      <point x="350" y="96" type="curve"/>
      <point x="372" y="109"/>
      <point x="393" y="124"/>
      <point x="413" y="142" type="curve" smooth="yes"/>
      <point x="432" y="160"/>
      <point x="442" y="176"/>
      <point x="442" y="190" type="curve" smooth="yes"/>
      <point x="442" y="233"/>
      <point x="429" y="262"/>
      <point x="397" y="287" type="curve"/>
      <point x="254" y="410" type="line" smooth="yes"/>
      <point x="249" y="414"/>
      <point x="242" y="421"/>
      <point x="233" y="430" type="curve"/>
      <point x="172" y="392"/>
      <point x="141" y="360"/>
      <point x="141" y="334" type="curve" smooth="yes"/>
      <point x="141" y="297"/>
      <point x="155" y="265"/>
      <point x="184" y="240" type="curve"/>
    </contour>
  </outline>
</glyph>
<glyph name="copyright" format="2">
  <advance width="804"/>
  <unicode hex="00A9"/>
  <outline>
    <contour>
      <point x="402" y="-12" type="curve" smooth="yes"/>
      <point x="595" y="-12"/>
      <point x="754" y="147"/>
      <point x="754" y="340" type="curve" smooth="yes"/>
      <point x="754" y="533"/>
      <point x="595" y="692"/>
      <point x="402" y="692" type="curve" smooth="yes"/>
      <point x="209" y="692"/>
      <point x="50" y="533"/>
      <point x="50" y="340" type="curve" smooth="yes"/>
      <point x="50" y="147"/>
      <point x="209" y="-12"/>
    </contour>
    <contour>
      <point x="402" y="36" type="curve" smooth="yes"/>
      <point x="235" y="36"/>
      <point x="98" y="173"/>
      <point x="98" y="340" type="curve" smooth="yes"/>
      <point x="98" y="507"/>
      <point x="235" y="644"/>
      <point x="402" y="644" type="curve" smooth="yes"/>
      <point x="569" y="644"/>
      <point x="706" y="507"/>
      <point x="706" y="340" type="curve" smooth="yes"/>
      <point x="706" y="173"/>
      <point x="569" y="36"/>
    </contour>
    <contour>
      <point x="526" y="259" type="line"/>
      <point x="513" y="199"/>
      <point x="471" y="161"/>
      <point x="423" y="161" type="curve" smooth="yes"/>
      <point x="371" y="161"/>
      <point x="322" y="190"/>
      <point x="322" y="335" type="curve" smooth="yes"/>
      <point x="322" y="480"/>
      <point x="362" y="512"/>
      <point x="415" y="512" type="curve" smooth="yes"/>
      <point x="462" y="512"/>
      <point x="510" y="474"/>
      <point x="522" y="393" type="curve"/>
      <point x="549" y="393" type="line"/>
      <point x="549" y="546" type="line"/>
      <point x="525" y="546" type="line"/>
      <point x="520" y="538" type="line" smooth="yes"/>
      <point x="508" y="518"/>
      <point x="504" y="512"/>
      <point x="478" y="526" type="curve" smooth="yes"/>
      <point x="462" y="534"/>
      <point x="439" y="546"/>
      <point x="407" y="546" type="curve" smooth="yes"/>
      <point x="301" y="546"/>
      <point x="223" y="452"/>
      <point x="223" y="335" type="curve" smooth="yes"/>
      <point x="223" y="204"/>
      <point x="316" y="124"/>
      <point x="412" y="124" type="curve" smooth="yes"/>
      <point x="481" y="124"/>
      <point x="542" y="174"/>
      <point x="555" y="253" type="curve"/>
    </contour>
  </outline>
</glyph>
<glyph name="ordfeminine" format="2">
  <advance width="389"/>
  <unicode hex="00AA"/>
  <outline>
    <contour>
      <point x="45" y="371" type="line"/>
      <point x="45" y="395" type="line"/>
      <point x="344" y="395" type="line"/>
      <point x="344" y="371" type="line"/>
    </contour>
    <contour>
      <point x="277" y="626" type="line" smooth="yes"/>
      <point x="277" y="678"/>
      <point x="237" y="717"/>
      <point x="169" y="717" type="curve" smooth="yes"/>
      <point x="93" y="717"/>
      <point x="61" y="680" name="hr01"/>
      <point x="61" y="652" type="curve" smooth="yes"/>
      <point x="61" y="632"/>
      <point x="71" y="614"/>
      <point x="95" y="614" type="curve" smooth="yes"/>
      <point x="112" y="614"/>
      <point x="124" y="627" name="hr02"/>
      <point x="124" y="643" type="curve" smooth="yes"/>
      <point x="124" y="657"/>
      <point x="112" y="665" name="hr03"/>
      <point x="112" y="675" type="curve" smooth="yes"/>
      <point x="112" y="689"/>
      <point x="129" y="698"/>
      <point x="164" y="698" type="curve" smooth="yes"/>
      <point x="208" y="698"/>
      <point x="221" y="664"/>
      <point x="221" y="617" type="curve" smooth="yes"/>
      <point x="221" y="610" type="line"/>
      <point x="168" y="598" type="line" smooth="yes"/>
      <point x="102" y="583"/>
      <point x="45" y="558" name="hr04"/>
      <point x="45" y="496" type="curve" smooth="yes"/>
      <point x="45" y="454"/>
      <point x="79" y="422"/>
      <point x="127" y="422" type="curve" smooth="yes"/>
      <point x="176" y="422"/>
      <point x="207" y="447"/>
      <point x="224" y="471" type="curve"/>
      <point x="231" y="441"/>
      <point x="248" y="422"/>
      <point x="281" y="422" type="curve" smooth="yes"/>
      <point x="311" y="422"/>
      <point x="338" y="447"/>
      <point x="344" y="487" type="curve"/>
      <point x="329" y="490" type="line"/>
      <point x="324" y="466"/>
      <point x="314" y="451" name="hr05"/>
      <point x="299" y="451" type="curve" smooth="yes"/>
      <point x="284" y="451"/>
      <point x="277" y="464"/>
      <point x="277" y="507" type="curve" smooth="yes"/>
    </contour>
    <contour>
      <point x="108" y="503" type="curve" smooth="yes"/>
      <point x="108" y="545"/>
      <point x="122" y="568"/>
      <point x="179" y="582" type="curve" smooth="yes"/>
      <point x="221" y="592" type="line"/>
      <point x="221" y="512" type="line" smooth="yes"/>
      <point x="221" y="480"/>
      <point x="178" y="444" name="hr06"/>
      <point x="149" y="444" type="curve" smooth="yes"/>
      <point x="119" y="444"/>
      <point x="108" y="464"/>
    </contour>
  </outline>
</glyph>
<glyph name="logicalnot" format="2">
  <advance width="683"/>
  <unicode hex="00AC"/>
  <outline>
    <contour>
      <point x="73" y="429" type="line"/>
      <point x="566" y="429" type="line"/>
      <point x="566" y="184" type="line"/>
      <point x="609" y="184" type="line"/>
      <point x="609" y="472" type="line"/>
      <point x="73" y="472" type="line"/>
    </contour>
  </outline>
</glyph>
<glyph name="macron" format="2">
  <advance width="341"/>
  <unicode hex="00AF"/>
  <outline>
    <contour>
      <point x="324" y="558" type="line"/>
      <point x="17" y="558" type="line"/>
      <point x="17" y="530" type="line"/>
      <point x="324" y="530" type="line"/>
    </contour>
  </outline>
</glyph>
<glyph name="degree" format="2">
  <advance width="216"/>
  <unicode hex="00B0"/>
  <outline>
    <contour>
      <point x="108" y="530" type="curve" smooth="yes"/>
      <point x="166" y="530"/>
      <point x="216" y="576"/>
      <point x="216" y="638" type="curve" smooth="yes"/>
      <point x="216" y="696"/>
      <point x="170" y="746"/>
      <point x="108" y="746" type="curve" smooth="yes"/>
      <point x="50" y="746"/>
      <point x="0" y="700"/>
      <point x="0" y="638" type="curve" smooth="yes"/>
      <point x="0" y="580"/>
      <point x="46" y="530"/>
    </contour>
    <contour>
      <point x="108" y="567" type="curve" smooth="yes"/>
      <point x="66" y="567"/>
      <point x="37" y="599"/>
      <point x="37" y="638" type="curve" smooth="yes"/>
      <point x="37" y="680"/>
      <point x="69" y="709"/>
      <point x="108" y="709" type="curve" smooth="yes"/>
      <point x="150" y="709"/>
      <point x="179" y="677"/>
      <point x="179" y="638" type="curve" smooth="yes"/>
      <point x="179" y="596"/>
      <point x="147" y="567"/>
    </contour>
  </outline>
</glyph>
<glyph name="plusminus" format="2">
  <advance width="576"/>
  <unicode hex="00B1"/>
  <outline>
    <contour>
      <point x="80" y="15" type="line"/>
      <point x="496" y="15" type="line"/>
      <point x="496" y="65" type="line"/>
      <point x="80" y="65" type="line"/>
    </contour>
    <contour>
      <point x="90" y="281" type="line"/>
      <point x="263" y="281" type="line"/>
      <point x="263" y="108" type="line"/>
      <point x="313" y="108" type="line"/>
      <point x="313" y="281" type="line"/>
      <point x="486" y="281" type="line"/>
      <point x="486" y="331" type="line"/>
      <point x="313" y="331" type="line"/>
      <point x="313" y="504" type="line"/>
      <point x="263" y="504" type="line"/>
      <point x="263" y="331" type="line"/>
      <point x="90" y="331" type="line"/>
    </contour>
  </outline>
</glyph>
<glyph name="twosuperior" format="2">
  <advance width="424"/>
  <unicode hex="00B2"/>
  <outline>
    <contour>
      <point x="81" y="251" type="line"/>
      <point x="93" y="286"/>
      <point x="114" y="300"/>
      <point x="137" y="300" type="curve" smooth="yes"/>
      <point x="184" y="300"/>
      <point x="197" y="243"/>
      <point x="259" y="243" type="curve" smooth="yes"/>
      <point x="335" y="243"/>
      <point x="350" y="331"/>
      <point x="350" y="377" type="curve"/>
      <point x="328" y="377" type="line"/>
      <point x="325" y="329"/>
      <point x="305" y="306"/>
      <point x="278" y="306" type="curve" smooth="yes"/>
      <point x="239" y="306"/>
      <point x="210" y="345"/>
      <point x="170" y="352" type="curve" smooth="yes"/>
      <point x="147" y="356"/>
      <point x="139" y="364"/>
      <point x="152" y="377" type="curve" smooth="yes"/>
      <point x="178" y="401"/>
      <point x="207" y="418"/>
      <point x="237" y="434" type="curve" smooth="yes"/>
      <point x="291" y="464"/>
      <point x="344" y="511"/>
      <point x="344" y="575" type="curve" smooth="yes"/>
      <point x="344" y="646"/>
      <point x="278" y="693"/>
      <point x="205" y="693" type="curve" smooth="yes"/>
      <point x="125" y="693"/>
      <point x="67" y="632"/>
      <point x="67" y="573" type="curve" smooth="yes"/>
      <point x="67" y="534"/>
      <point x="94" y="512"/>
      <point x="121" y="512" type="curve" smooth="yes"/>
      <point x="149" y="512"/>
      <point x="169" y="532"/>
      <point x="169" y="560" type="curve" smooth="yes"/>
      <point x="169" y="587"/>
      <point x="149" y="609"/>
      <point x="121" y="609" type="curve" smooth="yes"/>
      <point x="104" y="609"/>
      <point x="100" y="618"/>
      <point x="114" y="634" type="curve" smooth="yes"/>
      <point x="134" y="657"/>
      <point x="165" y="671"/>
      <point x="198" y="671" type="curve" smooth="yes"/>
      <point x="236" y="671"/>
      <point x="271" y="649"/>
      <point x="271" y="584" type="curve" smooth="yes"/>
      <point x="271" y="521"/>
      <point x="255" y="483"/>
      <point x="171" y="420" type="curve" smooth="yes"/>
      <point x="123" y="384"/>
      <point x="64" y="317"/>
      <point x="60" y="251" type="curve"/>
    </contour>
  </outline>
</glyph>
<glyph name="acute" format="2">
  <advance width="212"/>
  <unicode hex="00B4"/>
  <anchor x="106" y="530" name="_t.asciicircum_1"/>
  <outline>
    <contour>
      <point x="8" y="532" type="line"/>
      <point x="64" y="564"/>
      <point x="170" y="646"/>
      <point x="212" y="686" type="curve"/>
      <point x="205" y="706" type="line"/>
      <point x="94" y="706" type="line"/>
      <point x="76" y="662"/>
      <point x="34" y="594"/>
      <point x="0" y="554" type="curve"/>
    </contour>
  </outline>
</glyph>
<glyph name="periodcentered" format="2">
  <advance width="322"/>
  <unicode hex="00B7"/>
  <outline>
    <contour>
      <point x="161" y="199" type="curve" smooth="yes"/>
      <point x="205" y="199"/>
      <point x="242" y="236"/>
      <point x="242" y="280" type="curve" smooth="yes"/>
      <point x="242" y="324"/>
      <point x="205" y="361"/>
      <point x="161" y="361" type="curve" smooth="yes"/>
      <point x="117" y="361"/>
      <point x="80" y="324"/>
      <point x="80" y="280" type="curve" smooth="yes"/>
      <point x="80" y="236"/>
      <point x="117" y="199"/>
    </contour>
  </outline>
</glyph>
<glyph name="onesuperior" format="2">
  <advance width="349"/>
  <unicode hex="00B9"/>
  <outline>
    <contour>
      <point x="86" y="243" type="line"/>
      <point x="282" y="243" type="line"/>
      <point x="282" y="266" type="line"/>
      <point x="249" y="266" type="line" smooth="yes"/>
      <point x="225" y="266"/>
      <point x="215" y="276"/>
      <point x="215" y="299" type="curve" smooth="yes"/>
      <point x="215" y="693" type="line"/>
      <point x="161" y="693" type="line"/>
      <point x="50" y="541" type="line"/>
      <point x="68" y="526" type="line"/>
      <point x="133" y="600" type="line"/>
      <point x="143" y="613"/>
      <point x="153" y="605"/>
      <point x="153" y="596" type="curve" smooth="yes"/>
      <point x="153" y="299" type="line" smooth="yes"/>
      <point x="153" y="276"/>
      <point x="143" y="266"/>
      <point x="119" y="266" type="curve" smooth="yes"/>
      <point x="86" y="266" type="line"/>
    </contour>
  </outline>
</glyph>
<glyph name="ordmasculine" format="2">
  <advance width="343"/>
  <unicode hex="00BA"/>
  <outline>
    <contour>
      <point x="49" y="532" type="qcurve" smooth="yes"/>
      <point x="49" y="572"/>
      <point x="81" y="640"/>
      <point x="137" y="680"/>
      <point x="171" y="680" type="qcurve" smooth="yes"/>
      <point x="204" y="680"/>
      <point x="262" y="640"/>
      <point x="294" y="572"/>
      <point x="294" y="532" type="qcurve" smooth="yes"/>
      <point x="294" y="492"/>
      <point x="262" y="425"/>
      <point x="204" y="385"/>
      <point x="171" y="385" type="qcurve" smooth="yes"/>
      <point x="137" y="385"/>
      <point x="81" y="425"/>
      <point x="49" y="492"/>
    </contour>
    <contour>
      <point x="106" y="532" type="qcurve" smooth="yes"/>
      <point x="106" y="480"/>
      <point x="136" y="403"/>
      <point x="171" y="403" type="qcurve" smooth="yes"/>
      <point x="206" y="403"/>
      <point x="237" y="481"/>
      <point x="237" y="532" type="qcurve" smooth="yes"/>
      <point x="237" y="584"/>
      <point x="206" y="661"/>
      <point x="171" y="661" type="qcurve" smooth="yes"/>
      <point x="136" y="661"/>
      <point x="106" y="585"/>
    </contour>
    <contour>
      <point x="49" y="348" type="line" name=".hr01"/>
      <point x="294" y="348" type="line"/>
      <point x="294" y="324" type="line"/>
      <point x="49" y="324" type="line"/>
    </contour>
  </outline>
</glyph>
<glyph name="onehalf" format="2">
  <advance width="749"/>
  <unicode hex="00BD"/>
  <outline>
    <contour>
      <point x="132" y="711" type="line"/>
      <point x="30" y="571" type="line"/>
      <point x="46" y="558" type="line"/>
      <point x="107" y="626" type="line"/>
      <point x="116" y="638"/>
      <point x="124" y="630"/>
      <point x="124" y="622" type="curve" smooth="yes"/>
      <point x="124" y="350" type="line" smooth="yes"/>
      <point x="124" y="328"/>
      <point x="115" y="319"/>
      <point x="94" y="319" type="curve" smooth="yes"/>
      <point x="63" y="319" type="line"/>
      <point x="63" y="298" type="line"/>
      <point x="243" y="298" type="line"/>
      <point x="243" y="319" type="line"/>
      <point x="212" y="319" type="line" smooth="yes"/>
      <point x="191" y="319"/>
      <point x="182" y="328"/>
      <point x="182" y="350" type="curve" smooth="yes"/>
      <point x="182" y="711" type="line"/>
    </contour>
    <contour>
      <point x="169" y="0" type="line"/>
      <point x="597" y="718" type="line"/>
      <point x="561" y="718" type="line"/>
      <point x="133" y="0" type="line"/>
    </contour>
    <contour>
      <point x="506" y="356" type="curve" smooth="yes"/>
      <point x="490" y="356"/>
      <point x="486" y="365"/>
      <point x="499" y="380" type="curve" smooth="yes"/>
      <point x="518" y="401"/>
      <point x="548" y="415"/>
      <point x="578" y="415" type="curve" smooth="yes"/>
      <point x="614" y="415"/>
      <point x="646" y="394"/>
      <point x="646" y="334" type="curve" smooth="yes"/>
      <point x="646" y="275"/>
      <point x="631" y="239"/>
      <point x="553" y="181" type="curve" smooth="yes"/>
      <point x="508" y="147"/>
      <point x="454" y="85"/>
      <point x="449" y="23" type="curve"/>
      <point x="469" y="23" type="line"/>
      <point x="480" y="56"/>
      <point x="500" y="69"/>
      <point x="521" y="69" type="curve" smooth="yes"/>
      <point x="565" y="69"/>
      <point x="577" y="15"/>
      <point x="635" y="15" type="curve" smooth="yes"/>
      <point x="706" y="15"/>
      <point x="719" y="98"/>
      <point x="719" y="140" type="curve"/>
      <point x="700" y="140" type="line"/>
      <point x="697" y="96"/>
      <point x="678" y="74"/>
      <point x="653" y="74" type="curve" smooth="yes"/>
      <point x="616" y="74"/>
      <point x="589" y="111"/>
      <point x="552" y="117" type="curve" smooth="yes"/>
      <point x="530" y="121"/>
      <point x="523" y="128"/>
      <point x="535" y="140" type="curve" smooth="yes"/>
      <point x="559" y="163"/>
      <point x="586" y="178"/>
      <point x="614" y="194" type="curve" smooth="yes"/>
      <point x="664" y="222"/>
      <point x="714" y="266"/>
      <point x="714" y="325" type="curve" smooth="yes"/>
      <point x="714" y="391"/>
      <point x="653" y="435"/>
      <point x="585" y="435" type="curve" smooth="yes"/>
      <point x="510" y="435"/>
      <point x="456" y="378"/>
      <point x="456" y="323" type="curve" smooth="yes"/>
      <point x="456" y="287"/>
      <point x="481" y="266"/>
      <point x="506" y="266" type="curve" smooth="yes"/>
      <point x="532" y="266"/>
      <point x="551" y="285"/>
      <point x="551" y="311" type="curve" smooth="yes"/>
      <point x="551" y="336"/>
      <point x="532" y="356"/>
    </contour>
  </outline>
</glyph>
<glyph name="threequarters" format="2">
  <advance width="801"/>
  <unicode hex="00BE"/>
  <outline>
    <component base="fraction" xOffset="143"/>
    <contour>
      <point x="541" y="18" type="line"/>
      <point x="746" y="18" type="line"/>
      <point x="746" y="40" type="line"/>
      <point x="711" y="40" type="line" smooth="yes"/>
      <point x="687" y="40"/>
      <point x="676" y="50"/>
      <point x="676" y="73" type="curve" smooth="yes"/>
      <point x="676" y="129" type="line"/>
      <point x="771" y="129" type="line"/>
      <point x="771" y="153" type="line"/>
      <point x="676" y="153" type="line"/>
      <point x="676" y="343" type="line" smooth="yes"/>
      <point x="676" y="349"/>
      <point x="673" y="351"/>
      <point x="669" y="345" type="curve" smooth="yes"/>
      <point x="610" y="264" type="line"/>
      <point x="610" y="153" type="line"/>
      <point x="461" y="153" type="line"/>
      <point x="536" y="266"/>
      <point x="617" y="350"/>
      <point x="671" y="461" type="curve"/>
      <point x="561" y="461" type="line"/>
      <point x="543" y="356"/>
      <point x="502" y="264"/>
      <point x="433" y="153" type="curve"/>
      <point x="433" y="129" type="line"/>
      <point x="610" y="129" type="line"/>
      <point x="610" y="73" type="line" smooth="yes"/>
      <point x="610" y="50"/>
      <point x="600" y="40"/>
      <point x="575" y="40" type="curve" smooth="yes"/>
      <point x="541" y="40" type="line"/>
    </contour>
    <contour>
      <point x="126" y="511" type="line" name=".hr05"/>
      <point x="216" y="511"/>
      <point x="238" y="468"/>
      <point x="238" y="417" type="curve" smooth="yes"/>
      <point x="238" y="359"/>
      <point x="211" y="319"/>
      <point x="153" y="319" type="curve" smooth="yes"/>
      <point x="122" y="319"/>
      <point x="98" y="332"/>
      <point x="82" y="345" type="curve" smooth="yes"/>
      <point x="73" y="352"/>
      <point x="74" y="364"/>
      <point x="91" y="368" type="curve" smooth="yes"/>
      <point x="112" y="372"/>
      <point x="126" y="389"/>
      <point x="126" y="412" type="curve" smooth="yes"/>
      <point x="126" y="437"/>
      <point x="106" y="457" name=".hr01"/>
      <point x="81" y="457" type="curve" smooth="yes"/>
      <point x="57" y="457"/>
      <point x="30" y="439"/>
      <point x="30" y="398" type="curve" smooth="yes"/>
      <point x="30" y="347"/>
      <point x="90" y="298"/>
      <point x="161" y="298" type="curve" smooth="yes"/>
      <point x="263" y="298"/>
      <point x="306" y="356"/>
      <point x="306" y="413" type="curve" smooth="yes"/>
      <point x="306" y="464"/>
      <point x="262" y="507"/>
      <point x="202" y="518" type="curve"/>
      <point x="202" y="523" type="line"/>
      <point x="251" y="531"/>
      <point x="289" y="567" name=".hr02"/>
      <point x="289" y="613" type="curve" smooth="yes"/>
      <point x="289" y="671"/>
      <point x="234" y="709"/>
      <point x="167" y="709" type="curve" smooth="yes"/>
      <point x="107" y="709"/>
      <point x="52" y="663"/>
      <point x="52" y="612" type="curve" smooth="yes"/>
      <point x="52" y="583"/>
      <point x="71" y="566" name=".hr03"/>
      <point x="95" y="566" type="curve" smooth="yes"/>
      <point x="118" y="566"/>
      <point x="136" y="583"/>
      <point x="136" y="607" type="curve" smooth="yes"/>
      <point x="136" y="627"/>
      <point x="122" y="644"/>
      <point x="103" y="648" type="curve" smooth="yes"/>
      <point x="94" y="650"/>
      <point x="88" y="657"/>
      <point x="99" y="668" type="curve"/>
      <point x="116" y="682"/>
      <point x="139" y="690"/>
      <point x="160" y="690" type="curve" smooth="yes"/>
      <point x="216" y="690"/>
      <point x="229" y="654"/>
      <point x="229" y="609" type="curve" smooth="yes"/>
      <point x="229" y="566"/>
      <point x="211" y="528"/>
      <point x="126" y="528" type="curve" name=".hr04"/>
    </contour>
  </outline>
</glyph>
<glyph name="questiondown" format="2">
  <advance width="408"/>
  <unicode hex="00BF"/>
  <outline>
    <contour>
      <point x="232" y="464" type="line"/>
      <point x="246" y="326"/>
      <point x="121" y="282"/>
      <point x="121" y="124" type="curve" smooth="yes"/>
      <point x="121" y="39"/>
      <point x="168" y="16"/>
      <point x="212" y="16" type="curve" smooth="yes"/>
      <point x="277" y="16"/>
      <point x="310" y="46"/>
      <point x="310" y="69" type="curve" smooth="yes"/>
      <point x="310" y="92"/>
      <point x="255" y="97" name=".hr01"/>
      <point x="255" y="143" type="curve" smooth="yes"/>
      <point x="255" y="180"/>
      <point x="284" y="204"/>
      <point x="315" y="204" type="curve" smooth="yes"/>
      <point x="357" y="204"/>
      <point x="383" y="169"/>
      <point x="383" y="123" type="curve" smooth="yes"/>
      <point x="383" y="50"/>
      <point x="302" y="-12"/>
      <point x="199" y="-12" type="curve" smooth="yes"/>
      <point x="93" y="-12"/>
      <point x="15" y="42"/>
      <point x="15" y="134" type="curve" smooth="yes"/>
      <point x="15" y="297"/>
      <point x="210" y="300"/>
      <point x="196" y="464" type="curve"/>
    </contour>
    <contour>
      <point x="147" y="625" type="curve" smooth="yes"/>
      <point x="147" y="659"/>
      <point x="175" y="687"/>
      <point x="209" y="687" type="curve" smooth="yes"/>
      <point x="243" y="687"/>
      <point x="271" y="659"/>
      <point x="271" y="625" type="curve" smooth="yes"/>
      <point x="271" y="591"/>
      <point x="243" y="563"/>
      <point x="209" y="563" type="curve" smooth="yes"/>
      <point x="175" y="563"/>
      <point x="147" y="591"/>
    </contour>
  </outline>
</glyph>
<glyph name="Aacute" format="2">
  <advance width="682"/>
  <unicode hex="00C1"/>
  <outline>
    <contour>
      <point x="348" y="896" type="line"/>
      <point x="330" y="852"/>
      <point x="288" y="784"/>
      <point x="254" y="744" type="curve"/>
      <point x="262" y="722" type="line"/>
      <point x="318" y="754"/>
      <point x="424" y="836"/>
      <point x="466" y="876" type="curve"/>
      <point x="459" y="896" type="line"/>
    </contour>
    <contour>
      <point x="240" y="35" type="line"/>
      <point x="200" y="35" type="line" smooth="yes"/>
      <point x="147" y="35"/>
      <point x="129" y="40"/>
      <point x="152" y="101" type="curve" smooth="yes"/>
      <point x="196" y="216" type="line"/>
      <point x="444" y="216" type="line"/>
      <point x="482" y="110" type="line" smooth="yes"/>
      <point x="505" y="44"/>
      <point x="484" y="35"/>
      <point x="436" y="35" type="curve" smooth="yes"/>
      <point x="404" y="35" type="line"/>
      <point x="404" y="0" type="line"/>
      <point x="692" y="0" type="line"/>
      <point x="692" y="35" type="line"/>
      <point x="668" y="35" type="line" smooth="yes"/>
      <point x="620" y="35"/>
      <point x="611" y="37"/>
      <point x="586" y="106" type="curve" smooth="yes"/>
      <point x="376" y="692" type="line"/>
      <point x="340" y="692" type="line"/>
      <point x="108" y="96" type="line" smooth="yes"/>
      <point x="85" y="37"/>
      <point x="70" y="35"/>
      <point x="22" y="35" type="curve" smooth="yes"/>
      <point x="-10" y="35" type="line"/>
      <point x="-10" y="0" type="line"/>
      <point x="240" y="0" type="line"/>
    </contour>
    <contour>
      <point x="210" y="252" type="line"/>
      <point x="326" y="556" type="line"/>
      <point x="432" y="252" type="line"/>
    </contour>
  </outline>
</glyph>
<glyph name="Atilde" format="2">
  <advance width="682"/>
  <unicode hex="00C3"/>
  <outline>
    <contour>
      <point x="278" y="798" type="curve" smooth="yes"/>
      <point x="315" y="798"/>
      <point x="370" y="736"/>
      <point x="420" y="736" type="curve" smooth="yes"/>
      <point x="470" y="736"/>
      <point x="505" y="792"/>
      <point x="521" y="834" type="curve"/>
      <point x="499" y="842" type="line"/>
      <point x="487" y="817"/>
      <point x="469" y="794"/>
      <point x="443" y="794" type="curve" smooth="yes"/>
      <point x="406" y="794"/>
      <point x="351" y="856"/>
      <point x="301" y="856" type="curve" smooth="yes"/>
      <point x="251" y="856"/>
      <point x="216" y="800"/>
      <point x="200" y="758" type="curve"/>
      <point x="222" y="750" type="line"/>
      <point x="234" y="775"/>
      <point x="252" y="798"/>
    </contour>
    <contour>
      <point x="240" y="35" type="line"/>
      <point x="200" y="35" type="line" smooth="yes"/>
      <point x="147" y="35"/>
      <point x="129" y="40"/>
      <point x="152" y="101" type="curve" smooth="yes"/>
      <point x="196" y="216" type="line"/>
      <point x="444" y="216" type="line"/>
      <point x="482" y="110" type="line" smooth="yes"/>
      <point x="505" y="44"/>
      <point x="484" y="35"/>
      <point x="436" y="35" type="curve" smooth="yes"/>
      <point x="404" y="35" type="line"/>
      <point x="404" y="0" type="line"/>
      <point x="692" y="0" type="line"/>
      <point x="692" y="35" type="line"/>
      <point x="668" y="35" type="line" smooth="yes"/>
      <point x="620" y="35"/>
      <point x="611" y="37"/>
      <point x="586" y="106" type="curve" smooth="yes"/>
      <point x="376" y="692" type="line"/>
      <point x="340" y="692" type="line"/>
      <point x="108" y="96" type="line" smooth="yes"/>
      <point x="85" y="37"/>
      <point x="70" y="35"/>
      <point x="22" y="35" type="curve" smooth="yes"/>
      <point x="-10" y="35" type="line"/>
      <point x="-10" y="0" type="line"/>
      <point x="240" y="0" type="line"/>
    </contour>
    <contour>
      <point x="210" y="252" type="line"/>
      <point x="326" y="556" type="line"/>
      <point x="432" y="252" type="line"/>
    </contour>
  </outline>
</glyph>
<glyph name="Adieresis" format="2">
  <advance width="682"/>
  <unicode hex="00C4"/>
  <outline>
    <contour>
      <point x="405" y="808" type="curve" smooth="yes"/>
      <point x="405" y="779"/>
      <point x="428" y="756"/>
      <point x="457" y="756" type="curve" smooth="yes"/>
      <point x="486" y="756"/>
      <point x="509" y="779"/>
      <point x="509" y="808" type="curve" smooth="yes"/>
      <point x="509" y="837"/>
      <point x="486" y="860"/>
      <point x="457" y="860" type="curve" smooth="yes"/>
      <point x="428" y="860"/>
      <point x="405" y="837"/>
    </contour>
    <contour>
      <point x="211" y="808" type="curve" smooth="yes"/>
      <point x="211" y="779"/>
      <point x="234" y="756"/>
      <point x="263" y="756" type="curve" smooth="yes"/>
      <point x="292" y="756"/>
      <point x="315" y="779"/>
      <point x="315" y="808" type="curve" smooth="yes"/>
      <point x="315" y="837"/>
      <point x="292" y="860"/>
      <point x="263" y="860" type="curve" smooth="yes"/>
      <point x="234" y="860"/>
      <point x="211" y="837"/>
    </contour>
    <contour>
      <point x="240" y="35" type="line"/>
      <point x="200" y="35" type="line" smooth="yes"/>
      <point x="147" y="35"/>
      <point x="129" y="40"/>
      <point x="152" y="101" type="curve" smooth="yes"/>
      <point x="196" y="216" type="line"/>
      <point x="444" y="216" type="line"/>
      <point x="482" y="110" type="line" smooth="yes"/>
      <point x="505" y="44"/>
      <point x="484" y="35"/>
      <point x="436" y="35" type="curve" smooth="yes"/>
      <point x="404" y="35" type="line"/>
      <point x="404" y="0" type="line"/>
      <point x="692" y="0" type="line"/>
      <point x="692" y="35" type="line"/>
      <point x="668" y="35" type="line" smooth="yes"/>
      <point x="620" y="35"/>
      <point x="611" y="37"/>
      <point x="586" y="106" type="curve" smooth="yes"/>
      <point x="376" y="692" type="line"/>
      <point x="340" y="692" type="line"/>
      <point x="108" y="96" type="line" smooth="yes"/>
      <point x="85" y="37"/>
      <point x="70" y="35"/>
      <point x="22" y="35" type="curve" smooth="yes"/>
      <point x="-10" y="35" type="line"/>
      <point x="-10" y="0" type="line"/>
      <point x="240" y="0" type="line"/>
    </contour>
    <contour>
      <point x="210" y="252" type="line"/>
      <point x="326" y="556" type="line"/>
      <point x="432" y="252" type="line"/>
    </contour>
  </outline>
</glyph>
<glyph name="AE" format="2">
  <advance width="1007"/>
  <unicode hex="00C6"/>
  <anchor x="339" y="750" name="t.dieresis"/>
  <anchor x="339" y="730" name="t.asciicircum_1"/>
  <outline>
    <contour>
      <point x="40" y="0" type="line"/>
      <point x="290" y="0" type="line"/>
      <point x="290" y="35" type="line"/>
      <point x="268" y="35" type="line" smooth="yes"/>
      <point x="210" y="35"/>
      <point x="192" y="47"/>
      <point x="230" y="114" type="curve" smooth="yes"/>
      <point x="289" y="217" type="line"/>
      <point x="520" y="217" type="line"/>
      <point x="520" y="85" type="line" smooth="yes"/>
      <point x="520" y="40"/>
      <point x="515" y="35"/>
      <point x="470" y="35" type="curve" smooth="yes"/>
      <point x="430" y="35" type="line"/>
      <point x="430" y="0" type="line"/>
      <point x="962" y="0" type="line"/>
      <point x="967" y="280" type="line"/>
      <point x="937" y="280" type="line"/>
      <point x="915" y="159"/>
      <point x="897" y="36"/>
      <point x="731" y="36" type="curve" smooth="yes"/>
      <point x="677" y="36" type="line" smooth="yes"/>
      <point x="651" y="36"/>
      <point x="626" y="55"/>
      <point x="626" y="79" type="curve" smooth="yes"/>
      <point x="626" y="327" type="line"/>
      <point x="669" y="327" type="line" smooth="yes"/>
      <point x="725" y="327"/>
      <point x="760" y="265"/>
      <point x="768" y="175" type="curve"/>
      <point x="803" y="175" type="line"/>
      <point x="803" y="512" type="line"/>
      <point x="768" y="512" type="line"/>
      <point x="760" y="422"/>
      <point x="729" y="362"/>
      <point x="669" y="362" type="curve" smooth="yes"/>
      <point x="626" y="362" type="line"/>
      <point x="626" y="604" type="line" smooth="yes"/>
      <point x="626" y="628"/>
      <point x="661" y="644"/>
      <point x="691" y="644" type="curve" smooth="yes"/>
      <point x="734" y="644" type="line" smooth="yes"/>
      <point x="839" y="644"/>
      <point x="893" y="571"/>
      <point x="920" y="445" type="curve"/>
      <point x="950" y="445" type="line"/>
      <point x="945" y="680" type="line"/>
      <point x="395" y="680" type="line"/>
      <point x="394" y="645" type="line"/>
      <point x="424" y="645" type="line" smooth="yes"/>
      <point x="480" y="645"/>
      <point x="491" y="639"/>
      <point x="452" y="572" type="curve" smooth="yes"/>
      <point x="180" y="105" type="line" smooth="yes"/>
      <point x="149" y="52"/>
      <point x="130" y="35"/>
      <point x="50" y="35" type="curve" smooth="yes"/>
      <point x="40" y="35" type="line"/>
    </contour>
    <contour>
      <point x="309" y="252" type="line"/>
      <point x="486" y="560" type="line" smooth="yes"/>
      <point x="512" y="605"/>
      <point x="520" y="605"/>
      <point x="520" y="552" type="curve" smooth="yes"/>
      <point x="520" y="252" type="line"/>
    </contour>
  </outline>
</glyph>
<glyph name="Eacute" format="2">
  <advance width="631"/>
  <unicode hex="00C9"/>
  <outline>
    <contour>
      <point x="327" y="906" type="line"/>
      <point x="309" y="862"/>
      <point x="267" y="794"/>
      <point x="233" y="754" type="curve"/>
      <point x="241" y="732" type="line"/>
      <point x="297" y="764"/>
      <point x="403" y="846"/>
      <point x="445" y="886" type="curve"/>
      <point x="438" y="906" type="line"/>
    </contour>
    <contour>
      <point x="38" y="680" type="line"/>
      <point x="38" y="645" type="line"/>
      <point x="78" y="645" type="line" smooth="yes"/>
      <point x="123" y="645"/>
      <point x="128" y="640"/>
      <point x="128" y="595" type="curve" smooth="yes"/>
      <point x="128" y="85" type="line" smooth="yes"/>
      <point x="128" y="40"/>
      <point x="123" y="35"/>
      <point x="78" y="35" type="curve" smooth="yes"/>
      <point x="38" y="35" type="line"/>
      <point x="38" y="0" type="line"/>
      <point x="579" y="0" type="line"/>
      <point x="584" y="269" type="line"/>
      <point x="554" y="269" type="line"/>
      <point x="532" y="148"/>
      <point x="514" y="36"/>
      <point x="348" y="36" type="curve" smooth="yes"/>
      <point x="274" y="36" type="line" smooth="yes"/>
      <point x="248" y="36"/>
      <point x="223" y="55"/>
      <point x="223" y="79" type="curve" smooth="yes"/>
      <point x="223" y="326" type="line"/>
      <point x="286" y="326" type="line" smooth="yes"/>
      <point x="342" y="326"/>
      <point x="377" y="270"/>
      <point x="385" y="180" type="curve"/>
      <point x="420" y="180" type="line"/>
      <point x="420" y="507" type="line"/>
      <point x="385" y="507" type="line"/>
      <point x="377" y="417"/>
      <point x="346" y="362"/>
      <point x="286" y="362" type="curve" smooth="yes"/>
      <point x="223" y="362" type="line"/>
      <point x="223" y="604" type="line" smooth="yes"/>
      <point x="223" y="628"/>
      <point x="258" y="644"/>
      <point x="288" y="644" type="curve" smooth="yes"/>
      <point x="351" y="644" type="line" smooth="yes"/>
      <point x="471" y="644"/>
      <point x="510" y="576"/>
      <point x="537" y="449" type="curve"/>
      <point x="567" y="449" type="line"/>
      <point x="562" y="680" type="line"/>
    </contour>
  </outline>
</glyph>
<glyph name="Edieresis" format="2">
  <advance width="631"/>
  <unicode hex="00CB"/>
  <outline>
    <contour>
      <point x="384" y="808" type="curve" smooth="yes"/>
      <point x="384" y="779"/>
      <point x="407" y="756"/>
      <point x="436" y="756" type="curve" smooth="yes"/>
      <point x="465" y="756"/>
      <point x="488" y="779"/>
      <point x="488" y="808" type="curve" smooth="yes"/>
      <point x="488" y="837"/>
      <point x="465" y="860"/>
      <point x="436" y="860" type="curve" smooth="yes"/>
      <point x="407" y="860"/>
      <point x="384" y="837"/>
    </contour>
    <contour>
      <point x="190" y="808" type="curve" smooth="yes"/>
      <point x="190" y="779"/>
      <point x="213" y="756"/>
      <point x="242" y="756" type="curve" smooth="yes"/>
      <point x="271" y="756"/>
      <point x="294" y="779"/>
      <point x="294" y="808" type="curve" smooth="yes"/>
      <point x="294" y="837"/>
      <point x="271" y="860"/>
      <point x="242" y="860" type="curve" smooth="yes"/>
      <point x="213" y="860"/>
      <point x="190" y="837"/>
    </contour>
    <contour>
      <point x="38" y="680" type="line"/>
      <point x="38" y="645" type="line"/>
      <point x="78" y="645" type="line" smooth="yes"/>
      <point x="123" y="645"/>
      <point x="128" y="640"/>
      <point x="128" y="595" type="curve" smooth="yes"/>
      <point x="128" y="85" type="line" smooth="yes" name="hr01"/>
      <point x="128" y="40"/>
      <point x="123" y="35"/>
      <point x="78" y="35" type="curve" smooth="yes"/>
      <point x="38" y="35" type="line"/>
      <point x="38" y="0" type="line"/>
      <point x="579" y="0" type="line"/>
      <point x="584" y="269" type="line"/>
      <point x="554" y="269" type="line"/>
      <point x="532" y="148"/>
      <point x="514" y="36"/>
      <point x="348" y="36" type="curve" smooth="yes"/>
      <point x="274" y="36" type="line" smooth="yes"/>
      <point x="248" y="36"/>
      <point x="223" y="55"/>
      <point x="223" y="79" type="curve" smooth="yes"/>
      <point x="223" y="326" type="line"/>
      <point x="286" y="326" type="line" smooth="yes"/>
      <point x="342" y="326"/>
      <point x="377" y="270"/>
      <point x="385" y="180" type="curve"/>
      <point x="420" y="180" type="line"/>
      <point x="420" y="507" type="line"/>
      <point x="385" y="507" type="line"/>
      <point x="377" y="417"/>
      <point x="346" y="362"/>
      <point x="286" y="362" type="curve" smooth="yes"/>
      <point x="223" y="362" type="line"/>
      <point x="223" y="604" type="line" smooth="yes"/>
      <point x="223" y="628"/>
      <point x="258" y="644"/>
      <point x="288" y="644" type="curve" smooth="yes"/>
      <point x="351" y="644" type="line" smooth="yes"/>
      <point x="471" y="644"/>
      <point x="510" y="576"/>
      <point x="537" y="449" type="curve"/>
      <point x="567" y="449" type="line"/>
      <point x="562" y="680" type="line"/>
    </contour>
  </outline>
</glyph>
<glyph name="Igrave" format="2">
  <advance width="388"/>
  <unicode hex="00CC"/>
  <outline>
    <contour>
      <point x="120" y="927" type="curve"/>
      <point x="9" y="927" type="line"/>
      <point x="2" y="907" type="line"/>
      <point x="44" y="867"/>
      <point x="150" y="785"/>
      <point x="206" y="753" type="curve"/>
      <point x="214" y="775" type="line"/>
      <point x="180" y="815"/>
      <point x="138" y="883"/>
    </contour>
    <contour>
      <point x="242" y="595" type="line" smooth="yes"/>
      <point x="242" y="640"/>
      <point x="247" y="645"/>
      <point x="292" y="645" type="curve" smooth="yes"/>
      <point x="332" y="645" type="line"/>
      <point x="332" y="680" type="line"/>
      <point x="57" y="680" type="line"/>
      <point x="57" y="645" type="line"/>
      <point x="97" y="645" type="line" smooth="yes"/>
      <point x="142" y="645"/>
      <point x="147" y="640"/>
      <point x="147" y="595" type="curve" smooth="yes"/>
      <point x="147" y="85" type="line" smooth="yes"/>
      <point x="147" y="40"/>
      <point x="142" y="35"/>
      <point x="97" y="35" type="curve" smooth="yes"/>
      <point x="57" y="35" type="line"/>
      <point x="57" y="0" type="line"/>
      <point x="332" y="0" type="line"/>
      <point x="332" y="35" type="line"/>
      <point x="292" y="35" type="line" smooth="yes"/>
      <point x="247" y="35"/>
      <point x="242" y="49"/>
      <point x="242" y="85" type="curve" smooth="yes"/>
    </contour>
  </outline>
</glyph>
<glyph name="Iacute" format="2">
  <advance width="388"/>
  <unicode hex="00CD"/>
  <outline>
    <contour>
      <point x="292" y="927" type="line"/>
      <point x="274" y="883"/>
      <point x="232" y="815"/>
      <point x="198" y="775" type="curve"/>
      <point x="206" y="753" type="line"/>
      <point x="262" y="785"/>
      <point x="368" y="867"/>
      <point x="410" y="907" type="curve"/>
      <point x="403" y="927" type="line"/>
    </contour>
    <contour>
      <point x="242" y="595" type="line" smooth="yes"/>
      <point x="242" y="640"/>
      <point x="247" y="645"/>
      <point x="292" y="645" type="curve" smooth="yes"/>
      <point x="332" y="645" type="line"/>
      <point x="332" y="680" type="line"/>
      <point x="57" y="680" type="line"/>
      <point x="57" y="645" type="line"/>
      <point x="97" y="645" type="line" smooth="yes"/>
      <point x="142" y="645"/>
      <point x="147" y="640"/>
      <point x="147" y="595" type="curve" smooth="yes"/>
      <point x="147" y="85" type="line" smooth="yes"/>
      <point x="147" y="40"/>
      <point x="142" y="35"/>
      <point x="97" y="35" type="curve" smooth="yes"/>
      <point x="57" y="35" type="line"/>
      <point x="57" y="0" type="line"/>
      <point x="332" y="0" type="line"/>
      <point x="332" y="35" type="line"/>
      <point x="292" y="35" type="line" smooth="yes"/>
      <point x="247" y="35"/>
      <point x="242" y="49"/>
      <point x="242" y="85" type="curve" smooth="yes"/>
    </contour>
  </outline>
</glyph>
<glyph name="Eth" format="2">
  <advance width="655"/>
  <unicode hex="00D0"/>
  <outline>
    <contour>
      <point x="38" y="0" type="line"/>
      <point x="309" y="0" type="line" smooth="yes"/>
      <point x="524" y="0"/>
      <point x="618" y="160"/>
      <point x="618" y="340" type="curve" smooth="yes"/>
      <point x="618" y="520"/>
      <point x="524" y="680"/>
      <point x="309" y="680" type="curve" smooth="yes"/>
      <point x="38" y="680" type="line"/>
      <point x="38" y="645" type="line"/>
      <point x="78" y="645" type="line" smooth="yes"/>
      <point x="123" y="645"/>
      <point x="128" y="640"/>
      <point x="128" y="595" type="curve" smooth="yes"/>
      <point x="128" y="374" type="line"/>
      <point x="28" y="374" type="line"/>
      <point x="28" y="309" type="line"/>
      <point x="128" y="309" type="line"/>
      <point x="128" y="85" type="line" smooth="yes"/>
      <point x="128" y="40"/>
      <point x="123" y="35"/>
      <point x="78" y="35" type="curve" smooth="yes"/>
      <point x="38" y="35" type="line"/>
    </contour>
    <contour>
      <point x="292" y="36" type="line" smooth="yes"/>
      <point x="271" y="36"/>
      <point x="223" y="44"/>
      <point x="223" y="76" type="curve" smooth="yes"/>
      <point x="223" y="309" type="line"/>
      <point x="324" y="309" type="line"/>
      <point x="324" y="374" type="line"/>
      <point x="223" y="374" type="line"/>
      <point x="223" y="604" type="line" smooth="yes"/>
      <point x="223" y="636"/>
      <point x="272" y="644"/>
      <point x="292" y="644" type="curve" smooth="yes"/>
      <point x="299" y="644" type="line" smooth="yes"/>
      <point x="439" y="644"/>
      <point x="503" y="560"/>
      <point x="503" y="340" type="curve" smooth="yes"/>
      <point x="503" y="120"/>
      <point x="439" y="36"/>
      <point x="299" y="36" type="curve" smooth="yes"/>
    </contour>
  </outline>
</glyph>
<glyph name="Ograve" format="2">
  <advance width="640"/>
  <unicode hex="00D2"/>
  <outline>
    <contour>
      <point x="335" y="906" type="curve"/>
      <point x="224" y="906" type="line"/>
      <point x="217" y="886" type="line"/>
      <point x="259" y="846"/>
      <point x="365" y="764"/>
      <point x="421" y="732" type="curve"/>
      <point x="429" y="754" type="line"/>
      <point x="395" y="794"/>
      <point x="353" y="862"/>
    </contour>
    <contour>
      <point x="155" y="340" type="curve" smooth="yes"/>
      <point x="155" y="590"/>
      <point x="231" y="660"/>
      <point x="321" y="660" type="curve" smooth="yes"/>
      <point x="411" y="660"/>
      <point x="486" y="590"/>
      <point x="486" y="340" type="curve" smooth="yes"/>
      <point x="486" y="90"/>
      <point x="411" y="20"/>
      <point x="321" y="20" type="curve" smooth="yes"/>
      <point x="231" y="20"/>
      <point x="155" y="90"/>
    </contour>
    <contour>
      <point x="38" y="340" type="curve" smooth="yes"/>
      <point x="38" y="146"/>
      <point x="141" y="-12"/>
      <point x="321" y="-12" type="curve" smooth="yes"/>
      <point x="501" y="-12"/>
      <point x="603" y="146"/>
      <point x="603" y="340" type="curve" smooth="yes"/>
      <point x="603" y="535"/>
      <point x="501" y="692"/>
      <point x="321" y="692" type="curve" smooth="yes"/>
      <point x="141" y="692" name="hr01"/>
      <point x="38" y="535"/>
    </contour>
  </outline>
</glyph>
<glyph name="Oacute" format="2">
  <advance width="640"/>
  <unicode hex="00D3"/>
  <outline>
    <contour>
      <point x="311" y="906" type="line"/>
      <point x="293" y="862"/>
      <point x="251" y="794"/>
      <point x="217" y="754" type="curve"/>
      <point x="225" y="732" type="line"/>
      <point x="281" y="764"/>
      <point x="387" y="846"/>
      <point x="429" y="886" type="curve"/>
      <point x="422" y="906" type="line"/>
    </contour>
    <contour>
      <point x="155" y="340" type="curve" smooth="yes"/>
      <point x="155" y="590"/>
      <point x="231" y="660"/>
      <point x="321" y="660" type="curve" smooth="yes"/>
      <point x="411" y="660"/>
      <point x="486" y="590"/>
      <point x="486" y="340" type="curve" smooth="yes"/>
      <point x="486" y="90"/>
      <point x="411" y="20"/>
      <point x="321" y="20" type="curve" smooth="yes"/>
      <point x="231" y="20"/>
      <point x="155" y="90"/>
    </contour>
    <contour>
      <point x="38" y="340" type="curve" smooth="yes"/>
      <point x="38" y="146"/>
      <point x="141" y="-12"/>
      <point x="321" y="-12" type="curve" smooth="yes"/>
      <point x="501" y="-12"/>
      <point x="603" y="146"/>
      <point x="603" y="340" type="curve" smooth="yes"/>
      <point x="603" y="535"/>
      <point x="501" y="692"/>
      <point x="321" y="692" type="curve" smooth="yes"/>
      <point x="141" y="692"/>
      <point x="38" y="535"/>
    </contour>
  </outline>
</glyph>
<glyph name="multiply" format="2">
  <advance width="498"/>
  <unicode hex="00D7"/>
  <outline>
    <contour>
      <point x="49" y="92" type="line"/>
      <point x="81" y="60" type="line"/>
      <point x="249" y="228" type="line"/>
      <point x="417" y="60" type="line"/>
      <point x="449" y="92" type="line"/>
      <point x="281" y="260" type="line"/>
      <point x="449" y="428" type="line"/>
      <point x="417" y="460" type="line"/>
      <point x="249" y="292" type="line"/>
      <point x="81" y="460" type="line"/>
      <point x="49" y="428" type="line"/>
      <point x="217" y="260" type="line"/>
    </contour>
  </outline>
</glyph>
<glyph name="Oslash" format="2">
  <advance width="645"/>
  <unicode hex="00D8"/>
  <anchor x="323" y="750" name="t.dieresis"/>
  <anchor x="323" y="730" name="t.asciicircum_1"/>
  <outline>
    <contour>
      <point x="80" y="-41" type="line"/>
      <point x="114" y="-61" type="line"/>
      <point x="170" y="36" type="line"/>
      <point x="212" y="5"/>
      <point x="263" y="-12"/>
      <point x="323" y="-12" type="curve" smooth="yes"/>
      <point x="503" y="-12"/>
      <point x="605" y="146"/>
      <point x="605" y="340" type="curve" smooth="yes"/>
      <point x="605" y="453"/>
      <point x="571" y="554"/>
      <point x="506" y="618" type="curve"/>
      <point x="566" y="721" type="line"/>
      <point x="532" y="741" type="line"/>
      <point x="476" y="644" type="line"/>
      <point x="434" y="675"/>
      <point x="383" y="692"/>
      <point x="323" y="692" type="curve" smooth="yes"/>
      <point x="143" y="692"/>
      <point x="40" y="535"/>
      <point x="40" y="340" type="curve" smooth="yes"/>
      <point x="40" y="227"/>
      <point x="75" y="126"/>
      <point x="140" y="62" type="curve"/>
    </contour>
    <contour>
      <point x="172" y="340" type="curve" smooth="yes"/>
      <point x="172" y="590"/>
      <point x="233" y="660"/>
      <point x="323" y="660" type="curve" smooth="yes"/>
      <point x="372" y="660"/>
      <point x="412" y="639"/>
      <point x="439" y="580" type="curve"/>
      <point x="190" y="150" type="line"/>
      <point x="178" y="197"/>
      <point x="172" y="259"/>
    </contour>
    <contour>
      <point x="455" y="529" type="line"/>
      <point x="467" y="483"/>
      <point x="473" y="421"/>
      <point x="473" y="340" type="curve" smooth="yes"/>
      <point x="473" y="90"/>
      <point x="413" y="20"/>
      <point x="323" y="20" type="curve" smooth="yes"/>
      <point x="274" y="20"/>
      <point x="234" y="41"/>
      <point x="207" y="100" type="curve"/>
    </contour>
  </outline>
</glyph>
<glyph name="Ugrave" format="2">
  <advance width="674"/>
  <unicode hex="00D9"/>
  <outline>
    <contour>
      <point x="370" y="906" type="curve"/>
      <point x="259" y="906" type="line"/>
      <point x="252" y="886" type="line"/>
      <point x="294" y="846"/>
      <point x="400" y="764"/>
      <point x="456" y="732" type="curve"/>
      <point x="464" y="754" type="line"/>
      <point x="430" y="794"/>
      <point x="388" y="862"/>
    </contour>
    <contour>
      <point x="556" y="595" type="line"/>
      <point x="556" y="640"/>
      <point x="561" y="645"/>
      <point x="606" y="645" type="curve" smooth="yes"/>
      <point x="656" y="645" type="line"/>
      <point x="656" y="680" type="line"/>
      <point x="415" y="680" type="line"/>
      <point x="415" y="645" type="line"/>
      <point x="465" y="645" type="line" smooth="yes"/>
      <point x="510" y="645"/>
      <point x="515" y="640"/>
      <point x="515" y="595" type="curve" smooth="yes"/>
      <point x="515" y="274" type="line" smooth="yes"/>
      <point x="515" y="154"/>
      <point x="487" y="31"/>
      <point x="351" y="31" type="curve" smooth="yes"/>
      <point x="235" y="31"/>
      <point x="214" y="128"/>
      <point x="214" y="288" type="curve" smooth="yes"/>
      <point x="214" y="595" type="line" smooth="yes"/>
      <point x="214" y="640"/>
      <point x="219" y="645"/>
      <point x="264" y="645" type="curve" smooth="yes"/>
      <point x="304" y="645" type="line"/>
      <point x="304" y="680" type="line"/>
      <point x="19" y="680" type="line"/>
      <point x="19" y="645" type="line"/>
      <point x="59" y="645" type="line" smooth="yes"/>
      <point x="104" y="645"/>
      <point x="109" y="640"/>
      <point x="109" y="595" type="curve" smooth="yes"/>
      <point x="109" y="269" type="line" smooth="yes"/>
      <point x="109" y="69"/>
      <point x="189" y="-12"/>
      <point x="329" y="-12" type="curve" smooth="yes"/>
      <point x="516" y="-12"/>
      <point x="555" y="118"/>
      <point x="555" y="257" type="curve"/>
    </contour>
  </outline>
</glyph>
<glyph name="Udieresis" format="2">
  <advance width="674"/>
  <unicode hex="00DC"/>
  <outline>
    <contour>
      <point x="403" y="808" type="curve" smooth="yes"/>
      <point x="403" y="779"/>
      <point x="426" y="756"/>
      <point x="455" y="756" type="curve" smooth="yes"/>
      <point x="484" y="756"/>
      <point x="507" y="779"/>
      <point x="507" y="808" type="curve" smooth="yes"/>
      <point x="507" y="837"/>
      <point x="484" y="860"/>
      <point x="455" y="860" type="curve" smooth="yes"/>
      <point x="426" y="860"/>
      <point x="403" y="837"/>
    </contour>
    <contour>
      <point x="209" y="808" type="curve" smooth="yes"/>
      <point x="209" y="779"/>
      <point x="232" y="756"/>
      <point x="261" y="756" type="curve" smooth="yes"/>
      <point x="290" y="756"/>
      <point x="313" y="779"/>
      <point x="313" y="808" type="curve" smooth="yes"/>
      <point x="313" y="837"/>
      <point x="290" y="860"/>
      <point x="261" y="860" type="curve" smooth="yes"/>
      <point x="232" y="860"/>
      <point x="209" y="837"/>
    </contour>
    <contour>
      <point x="556" y="595" type="line"/>
      <point x="556" y="640"/>
      <point x="561" y="645"/>
      <point x="606" y="645" type="curve" smooth="yes"/>
      <point x="656" y="645" type="line"/>
      <point x="656" y="680" type="line"/>
      <point x="415" y="680" type="line"/>
      <point x="415" y="645" type="line"/>
      <point x="465" y="645" type="line" smooth="yes"/>
      <point x="510" y="645"/>
      <point x="515" y="640"/>
      <point x="515" y="595" type="curve" smooth="yes"/>
      <point x="515" y="274" type="line" smooth="yes"/>
      <point x="515" y="154"/>
      <point x="487" y="31"/>
      <point x="351" y="31" type="curve" smooth="yes"/>
      <point x="235" y="31"/>
      <point x="214" y="128"/>
      <point x="214" y="288" type="curve" smooth="yes"/>
      <point x="214" y="595" type="line" smooth="yes"/>
      <point x="214" y="640"/>
      <point x="219" y="645"/>
      <point x="264" y="645" type="curve" smooth="yes"/>
      <point x="304" y="645" type="line"/>
      <point x="304" y="680" type="line"/>
      <point x="19" y="680" type="line"/>
      <point x="19" y="645" type="line"/>
      <point x="59" y="645" type="line" smooth="yes"/>
      <point x="104" y="645"/>
      <point x="109" y="640"/>
      <point x="109" y="595" type="curve" smooth="yes"/>
      <point x="109" y="269" type="line" smooth="yes"/>
      <point x="109" y="69"/>
      <point x="189" y="-12"/>
      <point x="329" y="-12" type="curve" smooth="yes"/>
      <point x="516" y="-12"/>
      <point x="555" y="118"/>
      <point x="555" y="257" type="curve"/>
    </contour>
  </outline>
</glyph>
<glyph name="germandbls" format="2">
  <advance width="537"/>
  <unicode hex="00DF"/>
  <outline>
    <contour>
      <point x="21" y="0" type="line"/>
      <point x="196" y="0" type="line"/>
      <point x="196" y="552" type="line" smooth="yes"/>
      <point x="196" y="620"/>
      <point x="228" y="667"/>
      <point x="285" y="667" type="curve" smooth="yes"/>
      <point x="364" y="667"/>
      <point x="372" y="594"/>
      <point x="372" y="508" type="curve" smooth="yes"/>
      <point x="372" y="415"/>
      <point x="323" y="373"/>
      <point x="270" y="373" type="curve" smooth="yes"/>
      <point x="260" y="373" type="line"/>
      <point x="260" y="344" type="line"/>
      <point x="274" y="344" type="line" smooth="yes"/>
      <point x="364" y="344"/>
      <point x="418" y="308" name=".hr01"/>
      <point x="418" y="175" type="curve" smooth="yes"/>
      <point x="418" y="65"/>
      <point x="401" y="19"/>
      <point x="364" y="19" type="curve" smooth="yes"/>
      <point x="345" y="19"/>
      <point x="343" y="42"/>
      <point x="342" y="57" type="curve" smooth="yes"/>
      <point x="341" y="78"/>
      <point x="326" y="107" name=".hr02"/>
      <point x="295" y="107" type="curve" smooth="yes"/>
      <point x="263" y="107"/>
      <point x="242" y="87"/>
      <point x="242" y="54" type="curve" smooth="yes"/>
      <point x="242" y="10"/>
      <point x="294" y="-12"/>
      <point x="355" y="-12" type="curve" smooth="yes"/>
      <point x="437" y="-12"/>
      <point x="522" y="60"/>
      <point x="522" y="174" type="curve" smooth="yes"/>
      <point x="522" y="272"/>
      <point x="454" y="339"/>
      <point x="362" y="358" type="curve"/>
      <point x="362" y="367" type="line"/>
      <point x="422" y="387"/>
      <point x="468" y="439" name=".hr03"/>
      <point x="468" y="512" type="curve" smooth="yes"/>
      <point x="468" y="613"/>
      <point x="398" y="693"/>
      <point x="292" y="693" type="curve" smooth="yes"/>
      <point x="199" y="693"/>
      <point x="101" y="643"/>
      <point x="101" y="498" type="curve" smooth="yes"/>
      <point x="101" y="85" type="line" smooth="yes"/>
      <point x="101" y="40"/>
      <point x="96" y="35"/>
      <point x="51" y="35" type="curve" smooth="yes"/>
      <point x="21" y="35" type="line"/>
    </contour>
  </outline>
</glyph>
<glyph name="agrave" format="2">
  <advance width="497"/>
  <unicode hex="00E0"/>
  <outline>
    <contour>
      <point x="251" y="706" type="curve"/>
      <point x="140" y="706" type="line"/>
      <point x="133" y="686" type="line"/>
      <point x="175" y="646"/>
      <point x="281" y="564"/>
      <point x="337" y="532" type="curve"/>
      <point x="345" y="554" type="line"/>
      <point x="311" y="594"/>
      <point x="269" y="662"/>
    </contour>
    <contour>
      <point x="404" y="316" type="line" smooth="yes"/>
      <point x="404" y="400"/>
      <point x="340" y="462"/>
      <point x="232" y="462" type="curve" smooth="yes"/>
      <point x="109" y="462"/>
      <point x="58" y="402"/>
      <point x="58" y="357" type="curve" smooth="yes"/>
      <point x="58" y="326"/>
      <point x="74" y="296"/>
      <point x="113" y="296" type="curve" smooth="yes"/>
      <point x="139" y="296"/>
      <point x="159" y="317"/>
      <point x="159" y="343" type="curve" smooth="yes"/>
      <point x="159" y="366"/>
      <point x="139" y="379"/>
      <point x="139" y="394" type="curve" smooth="yes"/>
      <point x="139" y="417"/>
      <point x="167" y="431"/>
      <point x="224" y="431" type="curve" smooth="yes"/>
      <point x="294" y="431"/>
      <point x="314" y="377"/>
      <point x="314" y="301" type="curve" smooth="yes"/>
      <point x="314" y="290" type="line"/>
      <point x="230" y="270" type="line" smooth="yes"/>
      <point x="123" y="244"/>
      <point x="32" y="206"/>
      <point x="32" y="107" type="curve" smooth="yes"/>
      <point x="32" y="39"/>
      <point x="87" y="-12"/>
      <point x="163" y="-12" type="curve" smooth="yes"/>
      <point x="242" y="-12"/>
      <point x="293" y="28"/>
      <point x="320" y="66" type="curve"/>
      <point x="331" y="18"/>
      <point x="358" y="-12"/>
      <point x="412" y="-12" type="curve" smooth="yes"/>
      <point x="459" y="-12"/>
      <point x="503" y="28"/>
      <point x="513" y="92" type="curve"/>
      <point x="489" y="98" type="line"/>
      <point x="480" y="59"/>
      <point x="464" y="34"/>
      <point x="440" y="34" type="curve" smooth="yes"/>
      <point x="416" y="34"/>
      <point x="404" y="55"/>
      <point x="404" y="124" type="curve" smooth="yes"/>
    </contour>
    <contour>
      <point x="133" y="118" type="curve" smooth="yes"/>
      <point x="133" y="185"/>
      <point x="155" y="222"/>
      <point x="248" y="245" type="curve" smooth="yes"/>
      <point x="314" y="261" type="line"/>
      <point x="314" y="132" type="line" smooth="yes"/>
      <point x="314" y="81"/>
      <point x="246" y="24"/>
      <point x="199" y="24" type="curve" smooth="yes"/>
      <point x="151" y="24"/>
      <point x="133" y="56"/>
    </contour>
  </outline>
</glyph>
<glyph name="aacute" format="2">
  <advance width="497"/>
  <unicode hex="00E1"/>
  <outline>
    <contour>
      <point x="227" y="706" type="line"/>
      <point x="209" y="662"/>
      <point x="167" y="594"/>
      <point x="133" y="554" type="curve"/>
      <point x="141" y="532" type="line"/>
      <point x="197" y="564"/>
      <point x="303" y="646"/>
      <point x="345" y="686" type="curve"/>
      <point x="338" y="706" type="line"/>
    </contour>
    <contour>
      <point x="404" y="316" type="line" smooth="yes"/>
      <point x="404" y="400"/>
      <point x="340" y="462"/>
      <point x="232" y="462" type="curve" smooth="yes"/>
      <point x="109" y="462"/>
      <point x="58" y="402" name="hr01"/>
      <point x="58" y="357" type="curve" smooth="yes"/>
      <point x="58" y="326"/>
      <point x="74" y="296"/>
      <point x="113" y="296" type="curve" smooth="yes"/>
      <point x="139" y="296"/>
      <point x="159" y="317" name="hr02"/>
      <point x="159" y="343" type="curve" smooth="yes"/>
      <point x="159" y="366"/>
      <point x="139" y="379" name="hr03"/>
      <point x="139" y="394" type="curve" smooth="yes"/>
      <point x="139" y="417"/>
      <point x="167" y="431"/>
      <point x="224" y="431" type="curve" smooth="yes"/>
      <point x="294" y="431"/>
      <point x="314" y="377"/>
      <point x="314" y="301" type="curve" smooth="yes"/>
      <point x="314" y="290" type="line"/>
      <point x="230" y="270" type="line" smooth="yes"/>
      <point x="123" y="244"/>
      <point x="32" y="206" name="hr04"/>
      <point x="32" y="107" type="curve" smooth="yes"/>
      <point x="32" y="39"/>
      <point x="87" y="-12"/>
      <point x="163" y="-12" type="curve" smooth="yes"/>
      <point x="242" y="-12"/>
      <point x="293" y="28"/>
      <point x="320" y="66" type="curve"/>
      <point x="331" y="18"/>
      <point x="358" y="-12"/>
      <point x="412" y="-12" type="curve" smooth="yes"/>
      <point x="459" y="-12"/>
      <point x="503" y="28"/>
      <point x="513" y="92" type="curve"/>
      <point x="489" y="98" type="line"/>
      <point x="480" y="59"/>
      <point x="464" y="34" name="hr05"/>
      <point x="440" y="34" type="curve" smooth="yes"/>
      <point x="416" y="34"/>
      <point x="404" y="55"/>
      <point x="404" y="124" type="curve" smooth="yes"/>
    </contour>
    <contour>
      <point x="133" y="118" type="curve" smooth="yes"/>
      <point x="133" y="185"/>
      <point x="155" y="222"/>
      <point x="248" y="245" type="curve" smooth="yes"/>
      <point x="314" y="261" type="line"/>
      <point x="314" y="132" type="line" smooth="yes"/>
      <point x="314" y="81"/>
      <point x="246" y="24" name="hr06"/>
      <point x="199" y="24" type="curve" smooth="yes"/>
      <point x="151" y="24"/>
      <point x="133" y="56"/>
    </contour>
  </outline>
</glyph>
<glyph name="ae" format="2">
  <advance width="681"/>
  <unicode hex="00E6"/>
  <outline>
    <contour>
      <point x="302" y="267" type="line"/>
      <point x="157" y="267"/>
      <point x="15" y="222"/>
      <point x="15" y="107" type="curve" smooth="yes"/>
      <point x="15" y="39"/>
      <point x="75" y="-12"/>
      <point x="151" y="-12" type="curve" smooth="yes"/>
      <point x="219" y="-12"/>
      <point x="285" y="19"/>
      <point x="320" y="87" type="curve"/>
      <point x="355" y="27"/>
      <point x="412" y="-12"/>
      <point x="491" y="-12" type="curve" smooth="yes"/>
      <point x="567" y="-12"/>
      <point x="637" y="45"/>
      <point x="666" y="134" type="curve"/>
      <point x="638" y="144" type="line"/>
      <point x="612" y="64"/>
      <point x="555" y="21"/>
      <point x="505" y="21" type="curve" smooth="yes"/>
      <point x="442" y="21"/>
      <point x="392" y="75"/>
      <point x="392" y="225" type="curve" smooth="yes"/>
      <point x="392" y="238" type="line"/>
      <point x="664" y="238" type="line"/>
      <point x="664" y="252" type="line" smooth="yes"/>
      <point x="664" y="352"/>
      <point x="614" y="462"/>
      <point x="491" y="462" type="curve" smooth="yes"/>
      <point x="433" y="462"/>
      <point x="388" y="429"/>
      <point x="354" y="390" type="curve"/>
      <point x="321" y="432"/>
      <point x="271" y="462"/>
      <point x="210" y="462" type="curve" smooth="yes"/>
      <point x="96" y="462"/>
      <point x="46" y="402"/>
      <point x="46" y="357" type="curve" smooth="yes"/>
      <point x="46" y="326"/>
      <point x="62" y="296"/>
      <point x="101" y="296" type="curve" smooth="yes"/>
      <point x="127" y="296"/>
      <point x="147" y="317"/>
      <point x="147" y="343" type="curve" smooth="yes"/>
      <point x="147" y="366"/>
      <point x="127" y="379"/>
      <point x="127" y="394" type="curve" smooth="yes"/>
      <point x="127" y="417"/>
      <point x="155" y="431"/>
      <point x="202" y="431" type="curve" smooth="yes"/>
      <point x="272" y="431"/>
      <point x="302" y="364"/>
      <point x="302" y="288" type="curve" smooth="yes"/>
    </contour>
    <contour>
      <point x="302" y="147" type="line" smooth="yes"/>
      <point x="302" y="76"/>
      <point x="234" y="24"/>
      <point x="187" y="24" type="curve" smooth="yes"/>
      <point x="139" y="24"/>
      <point x="116" y="56"/>
      <point x="116" y="118" type="curve" smooth="yes"/>
      <point x="116" y="203"/>
      <point x="164" y="238"/>
      <point x="302" y="238" type="curve"/>
    </contour>
    <contour>
      <point x="393" y="267" type="line"/>
      <point x="401" y="386"/>
      <point x="442" y="436"/>
      <point x="491" y="436" type="curve" smooth="yes"/>
      <point x="536" y="436"/>
      <point x="561" y="380"/>
      <point x="561" y="312" type="curve" smooth="yes"/>
      <point x="561" y="275"/>
      <point x="545" y="267"/>
      <point x="512" y="267" type="curve" smooth="yes"/>
    </contour>
  </outline>
</glyph>
<glyph name="ccedilla" format="2">
  <advance width="413"/>
  <unicode hex="00E7"/>
  <outline>
    <contour>
      <point x="187" y="-95" type="line"/>
      <point x="195" y="-103" type="line"/>
      <point x="237" y="-87"/>
      <point x="261" y="-105"/>
      <point x="261" y="-153" type="curve" smooth="yes"/>
      <point x="261" y="-191"/>
      <point x="237" y="-213"/>
      <point x="202" y="-213" type="curve" smooth="yes"/>
      <point x="179" y="-213"/>
      <point x="147" y="-199"/>
      <point x="119" y="-167" type="curve"/>
      <point x="100" y="-188" type="line"/>
      <point x="124" y="-219"/>
      <point x="170" y="-240"/>
      <point x="210" y="-240" type="curve" smooth="yes"/>
      <point x="268" y="-240"/>
      <point x="333" y="-213"/>
      <point x="333" y="-149" type="curve" smooth="yes"/>
      <point x="333" y="-107"/>
      <point x="296" y="-59"/>
      <point x="219" y="-73" type="curve"/>
      <point x="219" y="11" type="line"/>
      <point x="187" y="11" type="line"/>
    </contour>
    <contour>
      <point x="387" y="333" type="curve" smooth="yes"/>
      <point x="387" y="393"/>
      <point x="329" y="462"/>
      <point x="231" y="462" type="curve" smooth="yes"/>
      <point x="105" y="462"/>
      <point x="23" y="355"/>
      <point x="23" y="225" type="curve" smooth="yes"/>
      <point x="23" y="95"/>
      <point x="105" y="-12"/>
      <point x="229" y="-12" type="curve" smooth="yes"/>
      <point x="311" y="-12"/>
      <point x="362" y="45"/>
      <point x="391" y="114" type="curve"/>
      <point x="361" y="122" type="line"/>
      <point x="330" y="59"/>
      <point x="292" y="24"/>
      <point x="245" y="24" type="curve" smooth="yes"/>
      <point x="188" y="24"/>
      <point x="131" y="75"/>
      <point x="131" y="225" type="curve" smooth="yes"/>
      <point x="131" y="375"/>
      <point x="172" y="433" name="hr02"/>
      <point x="235" y="433" type="curve" smooth="yes"/>
      <point x="282" y="433"/>
      <point x="305" y="412"/>
      <point x="305" y="394" type="curve" smooth="yes"/>
      <point x="305" y="376"/>
      <point x="269" y="366" name="hr03"/>
      <point x="269" y="326" type="curve" smooth="yes"/>
      <point x="269" y="293"/>
      <point x="296" y="266"/>
      <point x="329" y="266" type="curve" smooth="yes"/>
      <point x="364" y="266"/>
      <point x="387" y="298"/>
    </contour>
  </outline>
</glyph>
<glyph name="eacute" format="2">
  <advance width="449"/>
  <unicode hex="00E9"/>
  <outline>
    <contour>
      <point x="225" y="706" type="line"/>
      <point x="207" y="662"/>
      <point x="165" y="594"/>
      <point x="131" y="554" type="curve"/>
      <point x="139" y="532" type="line"/>
      <point x="195" y="564"/>
      <point x="301" y="646"/>
      <point x="343" y="686" type="curve"/>
      <point x="336" y="706" type="line"/>
    </contour>
    <contour>
      <point x="131" y="237" type="line"/>
      <point x="423" y="237" type="line"/>
      <point x="423" y="251" type="line" smooth="yes"/>
      <point x="423" y="351"/>
      <point x="365" y="462"/>
      <point x="235" y="462" type="curve" smooth="yes"/>
      <point x="105" y="462"/>
      <point x="23" y="355"/>
      <point x="23" y="225" type="curve" smooth="yes"/>
      <point x="23" y="95"/>
      <point x="104" y="-12"/>
      <point x="235" y="-12" type="curve" smooth="yes"/>
      <point x="311" y="-12"/>
      <point x="390" y="44"/>
      <point x="419" y="133" type="curve"/>
      <point x="387" y="144" type="line"/>
      <point x="361" y="64"/>
      <point x="297" y="25"/>
      <point x="247" y="25" type="curve" smooth="yes"/>
      <point x="184" y="25"/>
      <point x="131" y="75"/>
      <point x="131" y="224" type="curve" smooth="yes"/>
    </contour>
    <contour>
      <point x="319" y="312" type="curve" smooth="yes"/>
      <point x="319" y="275"/>
      <point x="304" y="267"/>
      <point x="271" y="267" type="curve" smooth="yes"/>
      <point x="131" y="267" type="line"/>
      <point x="139" y="386"/>
      <point x="178" y="436"/>
      <point x="235" y="436" type="curve" smooth="yes"/>
      <point x="286" y="436"/>
      <point x="319" y="380"/>
    </contour>
  </outline>
</glyph>
<glyph name="igrave" format="2">
  <advance width="280"/>
  <unicode hex="00EC"/>
  <outline>
    <contour>
      <point x="137" y="706" type="curve"/>
      <point x="26" y="706" type="line"/>
      <point x="19" y="686" type="line"/>
      <point x="61" y="646"/>
      <point x="167" y="564"/>
      <point x="223" y="532" type="curve"/>
      <point x="231" y="554" type="line"/>
      <point x="197" y="594"/>
      <point x="155" y="662"/>
    </contour>
    <contour>
      <point x="245" y="35" type="line" smooth="yes"/>
      <point x="200" y="35"/>
      <point x="195" y="40"/>
      <point x="195" y="85" type="curve" smooth="yes"/>
      <point x="195" y="450" type="line"/>
      <point x="25" y="450" type="line"/>
      <point x="25" y="415" type="line"/>
      <point x="55" y="415" type="line" smooth="yes"/>
      <point x="100" y="415"/>
      <point x="105" y="410"/>
      <point x="105" y="365" type="curve" smooth="yes"/>
      <point x="105" y="85" type="line" smooth="yes"/>
      <point x="105" y="45"/>
      <point x="95" y="35"/>
      <point x="55" y="35" type="curve" smooth="yes"/>
      <point x="25" y="35" type="line"/>
      <point x="25" y="0" type="line"/>
      <point x="275" y="0" type="line"/>
      <point x="275" y="35" type="line"/>
    </contour>
  </outline>
</glyph>
